{"glyphs":{"0":{"ha":919,"x_min":31,"x_max":892,"o":"m 44 504 q 31 360 31 418 q 115 99 31 193 q 374 6 199 6 q 711 141 585 6 q 878 504 838 276 q 892 647 892 588 q 808 907 892 813 q 549 1001 724 1001 q 211 867 338 1001 q 44 504 85 732 m 574 504 q 524 351 556 406 q 425 297 493 297 q 356 325 376 297 q 336 404 336 353 q 347 504 336 446 q 397 656 365 603 q 497 710 428 710 q 585 604 585 710 q 574 504 585 560 z "},"1":{"ha":554,"x_min":50,"x_max":571,"o":"m 50 694 l 100 983 l 571 983 l 399 0 l 75 0 l 197 694 l 50 694 z "},"2":{"ha":786,"x_min":-35,"x_max":801,"o":"m 6 246 q 338 490 213 383 q 478 682 463 597 q 479 706 479 690 q 440 751 479 751 q 397 727 413 751 q 369 636 381 703 l 71 636 q 156 848 92 764 q 310 971 221 932 q 497 1010 399 1010 q 729 941 657 1010 q 801 764 801 872 q 796 699 801 728 q 666 460 774 572 q 408 263 558 347 l 726 263 l 683 14 l -35 14 l 6 246 z "},"3":{"ha":810,"x_min":14,"x_max":810,"o":"m 508 1038 q 732 970 654 1038 q 810 794 810 903 q 804 740 810 776 q 733 599 788 650 q 615 528 678 547 l 614 522 q 710 447 675 499 q 744 318 744 396 q 739 251 744 283 q 618 61 718 132 q 358 -10 518 -10 q 103 63 192 -10 q 14 283 14 136 q 18 346 14 313 l 318 346 q 311 303 311 318 q 375 244 311 244 q 419 260 400 244 q 443 300 439 275 q 446 324 446 317 q 346 392 446 392 l 294 392 l 339 640 l 389 640 q 497 715 483 635 q 499 735 499 722 q 487 772 499 760 q 457 783 475 783 q 390 697 406 783 l 90 697 q 231 950 124 863 q 508 1038 339 1038 z "},"4":{"ha":936,"x_min":11,"x_max":906,"o":"m 11 153 l 57 410 l 574 1000 l 906 1000 l 804 419 l 904 419 l 857 153 l 757 153 l 731 0 l 419 0 l 446 153 l 11 153 m 558 649 l 368 419 l 518 419 l 558 649 z "},"5":{"ha":833,"x_min":49,"x_max":858,"o":"m 811 744 l 408 744 l 388 628 q 464 666 419 653 q 561 679 508 679 q 740 610 681 679 q 799 431 799 542 q 792 351 799 397 q 653 92 763 185 q 379 0 543 0 q 135 70 221 0 q 49 257 49 140 q 56 325 49 286 l 356 325 l 354 313 q 367 278 354 293 q 410 264 379 264 q 465 289 444 264 q 494 357 486 314 q 497 381 497 374 q 481 424 497 410 q 436 439 465 439 q 390 425 407 439 q 368 393 372 411 l 68 393 l 178 1015 l 858 1015 l 811 744 z "},"6":{"ha":849,"x_min":50,"x_max":829,"o":"m 539 707 q 526 768 539 749 q 479 788 513 788 q 400 735 426 788 q 354 568 374 682 q 437 629 386 607 q 547 651 488 651 q 726 589 661 651 q 792 407 792 526 q 783 318 792 367 q 653 78 757 167 q 393 -10 549 -10 q 131 85 213 -10 q 50 350 50 181 q 68 528 50 426 q 158 817 100 706 q 306 981 215 928 q 528 1033 397 1033 q 757 956 685 1033 q 829 758 829 879 q 826 707 829 740 l 539 707 m 331 317 q 349 269 331 285 q 401 254 368 254 q 472 276 446 254 q 499 344 499 299 q 480 397 499 378 q 429 415 461 415 q 358 390 386 415 q 331 317 331 364 z "},"7":{"ha":697,"x_min":-46,"x_max":785,"o":"m 744 769 l 271 0 l -46 0 l 425 732 l 69 732 l 115 996 l 785 996 l 744 769 z "},"8":{"ha":869,"x_min":25,"x_max":868,"o":"m 131 782 q 195 910 143 849 q 338 1010 247 971 q 547 1050 428 1050 q 726 1015 654 1050 q 833 922 799 979 q 868 799 868 865 q 864 754 868 778 q 710 558 842 628 q 825 349 825 485 q 818 278 825 319 q 669 60 793 135 q 358 -15 544 -15 q 190 16 265 -15 q 69 110 114 47 q 25 261 25 172 q 31 326 25 294 q 90 461 44 404 q 213 558 135 518 q 126 728 126 614 q 131 782 126 753 m 425 715 q 422 690 422 696 q 436 648 422 663 q 474 633 450 633 q 523 654 501 633 q 553 715 544 675 q 554 736 554 722 q 540 783 554 765 q 503 800 526 800 q 453 777 475 800 q 425 715 431 754 m 329 310 q 349 256 329 276 q 404 236 368 236 q 483 269 453 236 q 513 351 513 303 q 493 406 513 386 q 438 426 474 426 q 360 393 390 426 q 329 310 329 360 z "},"9":{"ha":788,"x_min":25,"x_max":810,"o":"m 317 317 q 331 256 317 276 q 379 236 346 236 q 456 288 431 236 q 501 456 481 340 q 419 394 469 417 q 308 372 368 372 q 128 435 194 372 q 63 618 63 499 q 71 706 63 660 q 206 945 97 857 q 476 1033 315 1033 q 733 947 656 1033 q 810 699 810 860 q 789 496 810 617 q 710 215 758 324 q 576 49 663 107 q 350 -10 489 -10 q 160 38 233 -10 q 56 160 88 86 q 29 317 25 235 l 317 317 m 524 708 q 506 754 524 739 q 454 769 488 769 q 390 749 415 769 q 358 688 365 729 q 357 669 357 681 q 376 624 357 640 q 426 608 394 608 q 496 635 468 608 q 524 708 524 661 z "},"\u0000":{"ha":0,"x_min":0,"x_max":0,"o":""},"\r":{"ha":236,"x_min":0,"x_max":0,"o":""}," ":{"ha":236,"x_min":0,"x_max":0,"o":""},"अ":{"ha":1174,"x_min":42,"x_max":1279,"o":"m 1279 1028 l 1239 793 l 1132 793 l 992 0 l 710 0 l 764 308 l 661 308 q 539 147 626 206 q 333 88 451 88 q 119 153 197 88 q 42 329 42 218 q 47 388 42 360 l 311 388 q 310 375 310 383 q 322 342 310 356 q 358 329 335 329 q 406 350 388 329 q 425 401 425 371 q 406 443 425 428 q 349 458 386 458 l 281 458 l 321 685 l 389 685 q 455 703 428 685 q 482 758 482 722 q 471 790 482 778 q 440 801 460 801 q 400 786 417 801 q 379 749 383 771 l 119 749 q 184 900 135 833 q 310 1003 233 967 q 482 1040 388 1040 q 672 985 604 1040 q 740 835 740 931 q 736 783 740 811 q 680 659 724 711 q 569 581 636 607 l 568 575 q 629 540 604 563 l 806 540 l 890 1028 l 1279 1028 z "},"आ":{"ha":1638,"x_min":42,"x_max":1743,"o":"m 1279 1028 l 1239 793 l 1132 793 l 992 0 l 710 0 l 764 308 l 661 308 q 539 147 626 206 q 333 88 451 88 q 119 153 197 88 q 42 329 42 218 q 47 388 42 360 l 311 388 q 310 375 310 383 q 322 342 310 356 q 358 329 335 329 q 406 350 388 329 q 425 401 425 371 q 406 443 425 428 q 349 458 386 458 l 281 458 l 321 685 l 389 685 q 455 703 428 685 q 482 758 482 722 q 471 790 482 778 q 440 801 460 801 q 400 786 417 801 q 379 749 383 771 l 119 749 q 184 900 135 833 q 310 1003 233 967 q 482 1040 388 1040 q 672 985 604 1040 q 740 835 740 931 q 736 783 740 811 q 680 659 724 711 q 569 581 636 607 l 568 575 q 629 540 604 563 l 806 540 l 890 1028 l 1279 1028 m 1313 793 l 1206 793 l 1247 1028 l 1743 1028 l 1701 793 l 1596 793 l 1457 0 l 1174 0 l 1313 793 z "},"इ":{"ha":814,"x_min":-1,"x_max":919,"o":"m 715 793 l 706 733 l 669 533 l 404 533 q 372 525 385 533 q 357 501 360 517 q 394 471 353 471 l 454 471 q 631 419 560 471 q 701 260 701 367 q 696 200 701 228 q 603 33 676 94 q 425 -29 531 -29 q 347 -19 382 -29 q 289 7 311 -8 l 267 -124 l -1 -124 l 61 235 l 315 235 q 326 192 311 206 q 368 178 340 178 q 415 193 397 178 q 432 233 432 208 q 364 274 432 274 q 269 276 307 274 q 132 329 192 281 q 72 467 72 378 q 76 514 72 489 q 175 679 96 625 q 369 733 254 733 l 432 733 l 442 793 l 43 793 l 85 1028 l 919 1028 l 878 793 l 715 793 z "},"ई":{"ha":801,"x_min":-1,"x_max":1118,"o":"m 858 1114 q 864 1154 864 1135 q 829 1197 864 1197 q 787 1177 801 1197 q 765 1113 772 1157 l 750 1028 l 922 1028 l 881 793 l 718 793 l 697 681 l 696 681 l 669 533 l 404 533 q 370 524 383 533 q 357 496 357 514 q 394 471 357 471 l 454 471 q 631 419 560 471 q 701 260 701 367 q 696 200 701 228 q 603 33 676 94 q 425 -29 531 -29 q 347 -19 382 -29 q 289 7 311 -8 l 267 -124 l -1 -124 l 61 235 l 315 235 q 326 192 311 206 q 368 178 340 178 q 413 193 396 178 q 431 232 431 208 q 364 274 431 274 q 269 276 307 274 q 131 329 190 281 q 72 468 72 378 q 76 514 72 489 q 175 679 96 625 q 369 733 254 733 l 433 733 l 444 793 l 46 793 l 88 1028 l 490 1028 l 504 1108 q 614 1336 529 1242 q 865 1431 699 1431 q 1053 1373 989 1431 q 1118 1211 1118 1315 q 1106 1114 1118 1167 l 858 1114 z "},"उ":{"ha":776,"x_min":8,"x_max":882,"o":"m 840 792 l 749 792 l 740 747 q 687 613 726 665 q 594 546 647 560 l 593 542 q 670 475 642 522 q 699 363 699 428 q 694 310 699 338 q 569 90 671 172 q 315 7 468 7 q 91 75 174 7 q 8 267 8 143 q 15 340 8 296 l 285 340 q 282 319 282 326 q 299 275 282 292 q 346 258 315 258 q 408 283 383 258 q 433 350 433 308 q 416 397 433 379 q 363 414 399 414 l 267 414 l 310 660 l 364 660 q 431 683 401 660 q 471 760 461 706 l 476 792 l 33 792 l 75 1028 l 882 1028 l 840 792 z "},"ऊ":{"ha":1171,"x_min":8,"x_max":1276,"o":"m 740 747 q 687 613 726 665 q 594 546 647 560 l 593 542 l 815 542 q 1026 488 951 542 q 1100 329 1100 435 q 1094 269 1100 297 q 994 90 1075 161 q 788 19 914 19 q 697 29 742 19 l 735 240 l 775 240 q 813 253 799 240 q 826 288 826 267 q 815 310 826 301 q 781 319 803 319 l 692 319 l 688 293 q 622 147 672 211 q 493 44 572 82 q 315 7 414 7 q 91 75 174 7 q 8 267 8 143 q 15 340 8 296 l 285 340 q 282 319 282 326 q 299 275 282 292 q 346 258 315 258 q 408 283 383 258 q 433 350 433 308 q 416 397 433 379 q 363 414 399 414 l 267 414 l 310 660 l 364 660 q 431 683 401 660 q 471 760 461 706 l 476 793 l 33 793 l 75 1028 l 1276 1028 l 1235 793 l 749 793 l 740 747 z "},"ऋ":{"ha":1488,"x_min":7,"x_max":1593,"o":"m 953 793 l 925 638 l 1097 638 q 1149 651 1128 638 q 1176 692 1171 664 l 1182 726 l 1424 726 l 1339 244 l 1296 244 q 1221 222 1247 244 q 1194 165 1194 200 q 1220 124 1194 138 q 1288 111 1246 111 q 1368 121 1325 111 l 1329 -103 q 1210 -112 1265 -112 q 996 -56 1075 -112 q 917 103 917 1 q 921 150 917 125 q 989 295 936 236 q 1122 385 1042 354 l 1131 431 q 1015 415 1078 415 l 886 415 l 813 0 l 553 0 l 581 153 l 369 0 l 7 0 l 8 11 l 615 410 q 575 455 603 439 q 507 471 547 471 q 387 428 433 471 q 328 315 340 385 l 44 315 q 122 519 65 431 q 265 658 178 608 q 463 708 351 708 q 664 631 597 708 l 693 793 l 35 793 l 75 1028 l 1593 1028 l 1553 793 l 953 793 z "},"ॠ":{"ha":1492,"x_min":7,"x_max":1597,"o":"m 951 793 l 924 638 l 1097 638 q 1149 651 1128 638 q 1175 690 1169 664 l 1182 726 l 1424 726 l 1338 238 l 1292 238 q 1231 228 1254 238 q 1204 192 1208 218 q 1275 147 1196 147 l 1364 147 l 1328 -61 l 1256 -61 q 1183 -71 1210 -61 q 1150 -111 1156 -81 q 1170 -151 1144 -142 q 1239 -161 1196 -161 q 1388 -140 1310 -161 l 1351 -347 q 1260 -370 1314 -362 q 1157 -378 1207 -378 q 953 -331 1036 -378 q 869 -185 869 -283 q 874 -142 869 -165 q 934 -28 885 -76 q 1051 36 983 21 l 1053 42 q 933 172 933 69 q 936 207 933 194 q 1000 320 949 278 q 1121 378 1051 363 l 1131 431 q 1014 415 1075 415 l 885 415 l 813 0 l 553 0 l 579 153 l 369 0 l 7 0 l 8 11 l 614 411 q 574 455 601 439 q 507 471 546 471 q 387 428 433 471 q 328 315 340 385 l 44 315 q 122 519 65 431 q 265 658 178 608 q 463 708 351 708 q 664 632 596 708 l 692 793 l 33 793 l 75 1028 l 1597 1028 l 1556 793 l 951 793 z "},"ऌ":{"ha":1263,"x_min":14,"x_max":1357,"o":"m 1071 793 l 1053 689 q 1143 601 1110 658 q 1176 457 1176 543 q 1169 376 1176 425 q 1122 238 1158 304 l 1114 238 q 1013 219 1043 238 q 976 167 982 201 q 999 122 971 138 q 1076 106 1028 106 q 1158 114 1124 106 l 1118 -110 q 999 -118 1054 -118 q 781 -61 860 -118 q 701 101 701 -4 q 706 153 701 126 q 768 281 718 225 q 886 367 818 338 l 888 378 q 890 404 890 397 q 873 454 890 436 q 824 472 856 472 q 752 441 778 472 q 718 365 726 410 l 708 315 l 475 315 l 485 365 q 488 394 488 385 q 470 450 488 428 q 415 472 453 472 q 336 436 365 472 q 307 339 307 400 q 392 261 307 261 q 429 263 414 261 l 386 18 q 336 17 363 17 q 97 90 179 17 q 14 293 14 163 q 22 376 14 333 q 103 570 43 493 q 247 684 164 647 q 417 721 329 721 q 633 589 588 721 l 639 589 q 781 697 692 664 l 797 793 l 22 793 l 64 1028 l 1357 1028 l 1315 793 l 1071 793 z "},"ॡ":{"ha":1279,"x_min":14,"x_max":1372,"o":"m 1069 793 l 1051 689 q 1144 603 1110 660 q 1178 463 1178 546 q 1169 376 1178 422 q 1122 238 1156 306 l 1088 238 q 1026 228 1050 238 q 999 192 1003 218 q 1071 147 990 147 l 1160 147 l 1124 -61 l 1051 -61 q 978 -71 1006 -61 q 944 -111 950 -81 q 965 -151 939 -142 q 1035 -161 992 -161 q 1183 -140 1106 -161 l 1147 -347 q 1056 -370 1110 -362 q 953 -378 1003 -378 q 749 -331 832 -378 q 665 -185 665 -283 q 669 -142 665 -165 q 730 -28 681 -76 q 847 36 779 21 l 849 42 q 729 172 729 69 q 732 207 729 194 q 785 310 743 269 q 886 369 826 350 l 888 378 q 890 404 890 397 q 873 454 890 436 q 824 472 856 472 q 751 440 778 472 q 717 365 724 408 l 708 315 l 475 315 l 483 365 q 486 394 486 385 q 469 450 486 428 q 415 472 453 472 q 335 436 365 472 q 306 339 306 400 q 392 261 306 261 q 428 263 414 261 l 385 18 q 336 17 363 17 q 97 90 179 17 q 14 293 14 163 q 22 376 14 333 q 103 570 43 493 q 246 684 164 647 q 415 721 328 721 q 558 686 504 721 q 633 589 611 651 l 639 589 q 779 697 690 664 l 796 793 l 21 793 l 63 1028 l 1372 1028 l 1331 793 l 1069 793 z "},"ए":{"ha":906,"x_min":32,"x_max":1011,"o":"m 969 793 l 871 793 l 857 715 q 754 487 831 567 q 536 407 678 407 q 449 414 500 407 l 493 667 q 517 664 510 664 q 562 679 544 664 q 583 722 579 694 l 596 793 l 426 793 l 350 358 q 347 335 347 342 q 365 283 347 300 q 411 267 383 267 q 467 285 443 267 q 497 338 492 304 l 774 338 q 647 108 749 189 q 390 26 544 26 q 149 101 235 26 q 64 301 64 175 q 69 369 64 338 l 143 793 l 32 793 l 74 1028 l 1011 1028 l 969 793 z "},"ऐ":{"ha":907,"x_min":33,"x_max":1013,"o":"m 971 793 l 872 793 l 858 715 q 756 487 832 567 q 538 407 679 407 q 450 414 501 407 l 494 667 q 518 664 511 664 q 563 679 546 664 q 585 722 581 694 l 597 793 l 428 793 l 351 358 q 349 335 349 342 q 367 283 349 300 q 413 267 385 267 q 469 285 444 267 q 499 338 493 304 l 775 338 q 648 108 750 189 q 392 26 546 26 q 151 101 236 26 q 65 301 65 175 q 71 369 65 338 l 144 793 l 33 793 l 75 1028 l 633 1028 q 577 1126 599 1097 q 525 1167 556 1156 q 436 1179 494 1179 l 354 1179 l 394 1406 l 472 1406 q 665 1378 597 1404 q 785 1274 733 1351 q 897 1028 836 1196 l 1013 1028 l 971 793 z "},"ओ":{"ha":1638,"x_min":42,"x_max":1743,"o":"m 1279 1028 l 1239 793 l 1132 793 l 992 0 l 710 0 l 764 308 l 661 308 q 539 147 626 206 q 333 88 451 88 q 119 153 197 88 q 42 329 42 218 q 47 388 42 360 l 311 388 q 310 375 310 383 q 322 342 310 356 q 358 329 335 329 q 406 350 388 329 q 425 401 425 371 q 406 443 425 428 q 349 458 386 458 l 281 458 l 321 685 l 389 685 q 455 703 428 685 q 482 758 482 722 q 471 790 482 778 q 440 801 460 801 q 400 786 417 801 q 379 749 383 771 l 119 749 q 184 900 135 833 q 310 1003 233 967 q 482 1040 388 1040 q 672 985 604 1040 q 740 835 740 931 q 736 783 740 811 q 680 659 724 711 q 569 581 636 607 l 568 575 q 629 540 604 563 l 806 540 l 890 1028 l 1279 1028 m 1313 793 l 1206 793 l 1247 1028 l 1743 1028 l 1701 793 l 1596 793 l 1457 0 l 1174 0 l 1313 793 m 1363 1021 q 1306 1124 1328 1093 q 1252 1167 1283 1156 q 1163 1179 1221 1179 l 1081 1179 l 1119 1406 l 1197 1406 q 1392 1378 1324 1404 q 1512 1272 1460 1351 q 1626 1021 1564 1193 l 1363 1021 z "},"औ":{"ha":1638,"x_min":42,"x_max":1743,"o":"m 1279 1028 l 1239 793 l 1132 793 l 992 0 l 710 0 l 764 308 l 661 308 q 539 147 626 206 q 333 88 451 88 q 119 153 197 88 q 42 329 42 218 q 47 388 42 360 l 311 388 q 310 375 310 383 q 322 342 310 356 q 358 329 335 329 q 406 350 388 329 q 425 401 425 371 q 406 443 425 428 q 349 458 386 458 l 281 458 l 321 685 l 389 685 q 455 703 428 685 q 482 758 482 722 q 471 790 482 778 q 440 801 460 801 q 400 786 417 801 q 379 749 383 771 l 119 749 q 184 900 135 833 q 310 1003 233 967 q 482 1040 388 1040 q 672 985 604 1040 q 740 835 740 931 q 736 783 740 811 q 680 659 724 711 q 569 581 636 607 l 568 575 q 629 540 604 563 l 806 540 l 890 1028 l 1279 1028 m 1313 793 l 1206 793 l 1247 1028 l 1743 1028 l 1701 793 l 1596 793 l 1457 0 l 1174 0 l 1313 793 m 1193 1515 q 1377 1489 1319 1515 q 1483 1367 1435 1463 q 1618 1024 1532 1271 l 1376 1024 q 1325 1054 1372 1026 q 1263 1087 1282 1079 q 1217 1097 1243 1094 q 1121 1099 1192 1099 l 1036 1099 l 1067 1272 l 1144 1272 q 1248 1269 1215 1272 q 1308 1256 1281 1267 q 1367 1218 1335 1244 q 1309 1302 1339 1276 q 1250 1334 1279 1328 q 1169 1340 1221 1340 l 1079 1340 l 1110 1515 l 1193 1515 z "},"ऍ":{"ha":907,"x_min":-6,"x_max":974,"o":"m 522 1122 q 285 1187 363 1122 q 208 1368 208 1251 q 215 1446 208 1400 l 457 1446 q 454 1415 454 1424 q 558 1329 454 1329 q 656 1360 621 1329 q 701 1446 692 1392 l 943 1446 q 811 1208 917 1293 q 522 1122 706 1122 m 932 793 l 833 793 l 819 715 q 717 487 793 567 q 499 407 640 407 q 411 414 463 407 l 456 667 q 479 664 472 664 q 524 679 507 664 q 546 722 542 694 l 558 793 l 389 793 l 313 358 q 310 335 310 342 q 328 283 310 300 q 374 267 346 267 q 430 285 406 267 q 460 338 454 304 l 736 338 q 609 108 711 189 q 353 26 507 26 q 112 101 197 26 q 26 301 26 175 q 32 369 26 338 l 106 793 l -6 793 l 36 1028 l 974 1028 l 932 793 z "},"ॲ":{"ha":1174,"x_min":42,"x_max":1481,"o":"m 1279 1028 l 1239 793 l 1132 793 l 992 0 l 710 0 l 764 308 l 661 308 q 539 147 626 206 q 333 88 451 88 q 119 153 197 88 q 42 329 42 218 q 47 388 42 360 l 311 388 q 310 375 310 383 q 322 342 310 356 q 358 329 335 329 q 406 350 388 329 q 425 401 425 371 q 406 443 425 428 q 349 458 386 458 l 281 458 l 321 685 l 389 685 q 455 703 428 685 q 482 758 482 722 q 471 790 482 778 q 440 801 460 801 q 400 786 417 801 q 379 749 383 771 l 119 749 q 184 900 135 833 q 310 1003 233 967 q 482 1040 388 1040 q 672 985 604 1040 q 740 835 740 931 q 736 783 740 811 q 680 659 724 711 q 569 581 636 607 l 568 575 q 629 540 604 563 l 806 540 l 890 1028 l 1279 1028 m 1071 1131 q 828 1197 910 1131 q 746 1381 746 1263 q 753 1454 746 1410 l 994 1454 q 992 1424 992 1432 q 1096 1338 992 1338 q 1194 1369 1158 1338 q 1239 1454 1229 1400 l 1481 1454 q 1353 1215 1454 1300 q 1071 1131 1253 1131 z "},"ऑ":{"ha":1638,"x_min":42,"x_max":1743,"o":"m 1279 1028 l 1239 793 l 1132 793 l 992 0 l 710 0 l 764 308 l 661 308 q 539 147 626 206 q 333 88 451 88 q 119 153 197 88 q 42 329 42 218 q 47 388 42 360 l 311 388 q 310 375 310 383 q 322 342 310 356 q 358 329 335 329 q 406 350 388 329 q 425 401 425 371 q 406 443 425 428 q 349 458 386 458 l 281 458 l 321 685 l 389 685 q 455 703 428 685 q 482 758 482 722 q 471 790 482 778 q 440 801 460 801 q 400 786 417 801 q 379 749 383 771 l 119 749 q 184 900 135 833 q 310 1003 233 967 q 482 1040 388 1040 q 672 985 604 1040 q 740 835 740 931 q 736 783 740 811 q 680 659 724 711 q 569 581 636 607 l 568 575 q 629 540 604 563 l 806 540 l 890 1028 l 1279 1028 m 1313 793 l 1206 793 l 1247 1028 l 1743 1028 l 1701 793 l 1596 793 l 1457 0 l 1174 0 l 1313 793 m 1297 1122 q 1054 1188 1136 1122 q 972 1372 972 1254 q 979 1446 972 1401 l 1221 1446 q 1218 1415 1218 1424 q 1322 1329 1218 1329 q 1420 1360 1385 1329 q 1465 1446 1456 1392 l 1707 1446 q 1580 1207 1681 1292 q 1297 1122 1479 1122 z "},"ा":{"ha":465,"x_min":1,"x_max":571,"o":"m 140 793 l 33 793 l 75 1028 l 571 1028 l 529 793 l 424 793 l 285 0 l 1 0 l 140 793 z "},"ि":{"ha":465,"x_min":0,"x_max":1400,"o":"m 867 1463 q 1160 1411 1040 1463 q 1340 1270 1281 1360 q 1400 1068 1400 1181 q 1393 992 1400 1036 l 1389 967 l 1106 967 l 1108 986 q 1111 1022 1111 1011 q 1033 1178 1111 1122 q 826 1233 956 1233 q 593 1178 693 1233 q 464 1028 493 1124 l 571 1028 l 529 793 l 424 793 l 283 0 l 0 0 l 140 793 l 33 793 l 75 1028 l 183 1028 q 305 1249 215 1151 q 538 1405 394 1347 q 867 1463 681 1463 z "},"ी":{"ha":465,"x_min":-294,"x_max":572,"o":"m 572 1028 l 531 793 l 425 793 l 285 0 l 1 0 l 142 793 l 35 793 l 76 1028 l 192 1028 l 200 1076 q 207 1136 207 1118 q 129 1225 207 1225 q 38 1181 65 1225 q 0 1076 11 1138 l -19 967 l -294 967 l -278 1063 q -137 1356 -246 1250 q 171 1463 -28 1463 q 483 1179 483 1463 q 472 1063 483 1126 l 467 1028 l 572 1028 z "},"ु":{"ha":0,"x_min":-815,"x_max":-103,"o":"m -471 -507 q -715 -442 -614 -507 q -815 -239 -815 -378 q -808 -164 -815 -197 l -558 -164 q -562 -199 -562 -183 q -533 -266 -562 -244 q -453 -287 -504 -287 q -374 -265 -403 -287 q -346 -204 -346 -243 q -367 -162 -346 -178 q -431 -146 -389 -146 l -490 -146 l -451 72 l -392 72 q -179 8 -256 72 q -103 -174 -103 -57 q -106 -221 -103 -204 q -221 -430 -121 -353 q -471 -507 -321 -507 z "},"ू":{"ha":0,"x_min":-699,"x_max":1,"o":"m -437 -481 q -565 -456 -506 -481 q -662 -383 -625 -432 q -699 -261 -699 -333 q -693 -207 -699 -233 q -575 -7 -671 -76 q -337 63 -479 63 q -80 -35 -161 63 q 1 -281 1 -132 q -7 -375 1 -328 q -15 -415 -11 -397 q -21 -446 -18 -432 q -28 -474 -26 -467 l -257 -474 l -237 -367 q -231 -293 -231 -322 q -262 -185 -231 -225 q -362 -146 -294 -146 q -431 -162 -400 -146 q -469 -215 -462 -179 q -471 -228 -471 -219 q -449 -267 -471 -254 q -397 -281 -428 -281 l -365 -281 l -400 -481 l -437 -481 z "},"ृ":{"ha":0,"x_min":-651,"x_max":-150,"o":"m -364 -489 q -499 -462 -433 -489 q -608 -382 -565 -436 q -651 -247 -651 -328 q -646 -192 -651 -218 q -526 -1 -624 -68 q -271 67 -428 67 q -169 64 -200 67 l -203 -125 l -279 -125 q -372 -187 -360 -125 q -374 -203 -374 -193 q -346 -249 -374 -232 q -278 -265 -318 -265 q -150 -246 -224 -265 l -189 -464 q -364 -489 -274 -489 z "},"ॄ":{"ha":0,"x_min":-636,"x_max":-117,"o":"m -349 -699 q -553 -652 -471 -699 q -636 -508 -636 -606 q -632 -464 -636 -487 q -571 -349 -619 -397 q -453 -286 -522 -301 l -453 -281 q -540 -236 -507 -268 q -572 -150 -572 -204 q -569 -115 -572 -128 q -471 23 -553 -21 q -300 67 -389 67 l -169 67 l -196 -83 l -212 -83 q -273 -93 -250 -83 q -300 -129 -296 -103 q -229 -175 -308 -175 l -140 -175 l -176 -382 l -247 -382 q -322 -392 -294 -382 q -356 -433 -350 -403 q -335 -472 -361 -462 q -265 -482 -308 -482 q -117 -461 -194 -482 l -154 -669 q -245 -691 -190 -683 q -349 -699 -300 -699 z "},"ॢ":{"ha":0,"x_min":-821,"x_max":75,"o":"m 26 -401 q -53 -415 -29 -401 q -82 -456 -78 -429 q -65 -490 -86 -478 q -8 -503 -44 -503 q 56 -496 28 -503 l 25 -668 q -68 -675 -28 -675 q -235 -631 -174 -675 q -296 -506 -296 -586 q -255 -381 -296 -436 q -154 -301 -214 -326 l -153 -296 q -151 -275 -151 -289 q -164 -236 -151 -250 q -200 -222 -176 -222 q -255 -247 -235 -222 q -281 -304 -275 -271 l -287 -342 l -468 -342 l -461 -304 q -458 -281 -458 -287 q -471 -238 -458 -254 q -511 -222 -483 -222 q -574 -249 -550 -222 q -597 -322 -597 -276 q -531 -383 -597 -383 q -503 -381 -514 -383 l -537 -571 l -574 -571 q -758 -515 -694 -571 q -821 -358 -821 -458 q -815 -296 -821 -325 q -753 -147 -800 -207 q -643 -60 -707 -87 q -512 -32 -579 -32 q -347 -132 -382 -32 l -343 -132 q -256 -59 -310 -86 q -133 -32 -201 -32 q 15 -83 -46 -32 q 75 -233 75 -133 q 69 -296 75 -267 q 35 -401 60 -349 l 26 -401 z "},"ॣ":{"ha":0,"x_min":-819,"x_max":76,"o":"m -108 -669 q -92 -699 -112 -692 q -37 -706 -72 -706 q 75 -690 14 -706 l 46 -850 q -23 -865 18 -860 q -103 -871 -64 -871 q -258 -836 -196 -871 q -321 -726 -321 -801 q -282 -616 -321 -662 q -182 -556 -243 -569 l -182 -553 q -247 -517 -222 -543 q -272 -450 -272 -492 q -238 -352 -272 -389 q -151 -297 -204 -315 l -151 -296 q -150 -276 -150 -289 q -163 -237 -150 -251 q -200 -222 -176 -222 q -253 -246 -235 -222 q -279 -304 -272 -269 l -286 -342 l -467 -342 l -460 -304 q -457 -282 -457 -290 q -470 -240 -457 -257 q -511 -222 -483 -222 q -574 -249 -550 -222 q -597 -322 -597 -276 q -529 -383 -597 -383 q -503 -381 -512 -383 l -536 -571 l -572 -571 q -756 -515 -692 -571 q -819 -360 -819 -458 q -814 -296 -819 -325 q -703 -98 -789 -164 q -512 -32 -618 -32 q -346 -132 -383 -32 l -342 -132 q -256 -59 -310 -86 q -133 -32 -201 -32 q 16 -83 -44 -32 q 76 -233 76 -133 q 71 -296 76 -267 q 35 -401 63 -344 l 3 -401 q -65 -440 -65 -401 q -7 -469 -65 -469 l 58 -469 l 29 -629 l -25 -629 q -83 -637 -62 -629 q -108 -669 -104 -644 z "},"े":{"ha":0,"x_min":-550,"x_max":-4,"o":"m -268 1021 q -325 1124 -303 1093 q -378 1167 -347 1156 q -468 1179 -410 1179 l -550 1179 l -511 1406 l -433 1406 q -239 1378 -307 1404 q -119 1272 -171 1351 q -4 1021 -67 1193 l -268 1021 z "},"ै":{"ha":0,"x_min":-596,"x_max":-14,"o":"m -439 1515 q -255 1489 -312 1515 q -149 1367 -197 1463 q -14 1024 -100 1271 l -256 1024 q -307 1054 -260 1026 q -369 1087 -350 1079 q -415 1097 -389 1094 q -511 1099 -440 1099 l -596 1099 l -565 1272 l -487 1272 q -384 1269 -417 1272 q -324 1256 -351 1267 q -265 1218 -297 1244 q -323 1302 -293 1276 q -382 1334 -353 1328 q -462 1340 -411 1340 l -553 1340 l -522 1515 l -439 1515 z "},"ो":{"ha":467,"x_min":-83,"x_max":572,"o":"m 572 1028 l 531 793 l 425 793 l 286 0 l 3 0 l 142 793 l 35 793 l 76 1028 l 196 1028 q 140 1126 163 1096 q 88 1167 118 1156 q -1 1179 57 1179 l -83 1179 l -43 1406 l 35 1406 q 228 1378 160 1404 q 347 1274 296 1353 q 460 1028 399 1196 l 572 1028 z "},"ौ":{"ha":465,"x_min":-174,"x_max":528,"o":"m 528 1028 l 486 793 l 381 793 l 242 0 l -42 0 l 97 793 l -10 793 l 32 1028 l 160 1028 l 115 1053 q 53 1086 72 1078 q 8 1097 33 1094 q -89 1099 -18 1099 l -174 1099 l -143 1272 l -65 1272 q 38 1269 6 1272 q 98 1256 71 1267 q 157 1218 125 1244 q 99 1302 129 1276 q 40 1334 69 1328 q -40 1340 11 1340 l -131 1340 l -100 1515 l -17 1515 q 167 1489 110 1515 q 274 1368 225 1463 q 407 1028 322 1274 l 528 1028 z "},"ॅ":{"ha":0,"x_min":-440,"x_max":294,"o":"m -115 1121 q -358 1187 -276 1121 q -440 1371 -440 1253 q -433 1444 -440 1400 l -192 1444 q -194 1414 -194 1422 q -90 1328 -194 1328 q 8 1359 -28 1328 q 53 1444 43 1390 l 294 1444 q 167 1206 268 1290 q -115 1121 67 1121 z "},"ॉ":{"ha":468,"x_min":1,"x_max":761,"o":"m 351 1121 q 108 1187 190 1121 q 26 1371 26 1253 q 33 1444 26 1400 l 275 1444 q 272 1414 272 1422 q 376 1328 272 1328 q 474 1359 439 1328 q 519 1444 510 1390 l 761 1444 q 634 1206 735 1290 q 351 1121 533 1121 m 140 793 l 33 793 l 75 1028 l 571 1028 l 529 793 l 424 793 l 285 0 l 1 0 l 140 793 z "},"क":{"ha":1314,"x_min":31,"x_max":1419,"o":"m 854 793 l 828 644 q 1004 713 899 713 q 1177 640 1115 713 q 1239 456 1239 568 q 1232 379 1239 413 q 1113 156 1204 233 q 894 78 1022 78 q 797 90 843 78 l 836 310 q 857 307 844 307 q 922 333 894 307 q 949 403 949 360 q 932 452 949 432 q 881 472 915 472 q 816 446 842 472 q 781 369 790 419 l 715 0 l 443 0 l 467 135 q 272 60 394 60 q 147 93 201 60 q 61 186 92 126 q 31 322 31 246 q 38 393 31 351 q 154 626 63 539 q 385 713 246 713 q 556 642 504 713 l 582 793 l 33 793 l 75 1028 l 1419 1028 l 1378 793 l 854 793 m 401 297 q 473 321 443 297 q 510 379 503 344 l 511 386 l 513 400 q 491 453 513 433 q 433 474 469 474 q 354 443 386 474 q 322 368 322 413 q 344 317 322 338 q 401 297 367 297 z "},"ख":{"ha":1358,"x_min":35,"x_max":1464,"o":"m 1464 1028 l 1422 793 l 1317 793 l 1178 0 l 896 0 l 926 174 q 783 132 869 132 q 743 136 763 132 q 591 28 678 68 q 403 -12 504 -12 q 141 70 233 -12 q 49 307 49 153 q 58 413 49 360 l 85 564 l 111 564 q 258 604 208 564 q 321 726 307 644 l 332 793 l 35 793 l 76 1028 l 1464 1028 m 453 231 q 589 286 544 231 q 578 379 578 333 q 583 449 578 417 q 683 635 603 564 q 871 707 764 707 q 1011 661 965 707 l 1035 793 l 617 793 l 599 686 q 506 476 576 557 q 332 372 435 394 q 329 344 329 353 q 361 262 329 293 q 453 231 393 231 m 822 406 q 840 361 822 376 q 885 346 857 346 q 940 366 917 346 q 969 421 964 386 q 971 436 971 426 q 956 478 971 461 q 911 494 940 494 q 848 471 874 494 q 822 406 822 447 z "},"ग":{"ha":1193,"x_min":31,"x_max":1299,"o":"m 1299 1028 l 1257 793 l 1150 793 l 1011 0 l 728 0 l 867 793 l 738 793 l 690 518 q 573 278 665 368 q 321 188 481 188 q 110 250 189 188 q 31 432 31 313 q 38 504 31 463 q 47 550 43 535 l 321 550 l 313 506 q 310 472 310 493 q 346 428 310 428 q 404 506 392 428 l 454 793 l 33 793 l 75 1028 l 1299 1028 z "},"घ":{"ha":960,"x_min":33,"x_max":1065,"o":"m 1024 793 l 919 793 l 781 0 l 496 0 l 531 199 q 300 121 436 121 q 120 177 193 121 q 47 331 47 233 q 51 374 47 351 q 110 495 64 444 q 213 567 156 546 l 213 572 q 126 704 126 603 q 131 753 126 726 l 138 793 l 33 793 l 75 1028 l 1065 1028 l 1024 793 m 635 793 l 421 793 l 417 767 q 414 744 414 750 q 486 686 414 686 l 535 686 l 494 460 l 424 460 q 365 442 386 460 q 343 394 343 424 q 362 362 343 374 q 411 350 381 350 q 521 388 474 350 q 582 488 568 425 l 635 793 z "},"ङ":{"ha":1014,"x_min":6,"x_max":1119,"o":"m 1119 1028 l 1079 793 l 715 793 l 703 731 l 704 731 l 669 533 l 406 533 q 372 525 386 533 q 357 503 358 517 q 393 471 351 471 l 454 471 q 634 419 564 471 q 704 268 704 368 q 699 214 704 240 q 586 31 678 94 q 340 -33 494 -33 q 100 28 194 -33 q 6 203 6 89 q 7 235 6 224 l 289 235 q 307 190 286 203 q 356 178 328 178 q 410 192 389 178 q 432 235 432 207 q 367 274 432 274 l 322 274 q 151 317 231 274 q 71 465 71 361 q 75 513 71 488 q 174 674 93 617 q 369 731 256 731 l 429 731 l 442 793 l 38 793 l 78 1028 l 1119 1028 m 888 632 q 974 599 940 632 q 1007 515 1007 565 q 983 435 1007 472 q 919 374 958 397 q 838 351 881 351 q 753 384 786 351 q 719 465 719 417 q 743 548 719 510 q 806 609 767 586 q 888 632 844 632 z "},"च":{"ha":1063,"x_min":33,"x_max":1168,"o":"m 1126 793 l 1021 793 l 881 0 l 597 0 l 631 186 q 388 100 533 100 q 215 153 281 100 q 150 301 150 207 q 156 354 150 318 q 218 478 168 428 l 64 478 l 103 699 l 622 699 l 583 478 l 519 478 q 462 460 488 478 q 429 407 436 442 q 428 394 428 403 q 451 349 428 365 q 513 333 474 333 q 626 379 582 333 q 688 511 669 425 l 738 793 l 33 793 l 75 1028 l 1168 1028 l 1126 793 z "},"छ":{"ha":1149,"x_min":32,"x_max":1254,"o":"m 979 793 l 965 715 q 1055 634 1024 688 q 1086 507 1086 581 q 1079 438 1086 479 q 979 219 1057 313 q 772 74 901 125 q 472 22 643 22 q 247 55 346 22 q 94 149 149 88 q 39 294 39 211 q 44 349 39 325 q 204 538 72 482 l 204 543 q 142 589 165 556 q 119 675 119 622 q 124 724 119 697 l 136 793 l 32 793 l 74 1028 l 1254 1028 l 1213 793 l 979 793 m 718 793 l 419 793 l 410 736 q 407 710 407 717 q 461 656 407 656 l 488 656 l 447 431 l 426 431 q 358 406 383 431 q 332 344 332 381 q 374 284 332 306 q 518 263 417 263 q 740 308 664 263 q 835 451 817 354 q 838 479 838 471 q 801 532 838 532 q 760 510 776 532 q 738 454 744 489 q 733 399 733 428 q 735 361 733 374 l 504 361 q 503 403 503 372 q 510 486 503 446 q 576 633 525 575 q 704 717 628 690 l 718 793 z "},"ज":{"ha":1211,"x_min":33,"x_max":1317,"o":"m 1275 793 l 1169 793 l 1031 0 l 747 0 l 822 428 l 728 428 q 595 198 699 285 q 340 111 492 111 q 117 185 200 111 q 33 383 33 258 q 40 453 33 411 l 79 668 l 364 668 l 325 451 q 322 418 322 439 q 375 358 322 358 q 456 451 439 358 l 494 668 l 864 668 l 886 793 l 33 793 l 75 1028 l 1317 1028 l 1275 793 z "},"झ":{"ha":1236,"x_min":0,"x_max":1342,"o":"m 1300 793 l 1193 793 l 1054 0 l 776 0 l 822 260 l 688 260 q 683 183 689 225 q 597 31 667 89 q 425 -28 526 -28 q 347 -18 382 -28 q 289 7 311 -8 l 267 -124 l 0 -124 l 63 233 l 317 233 q 315 221 315 229 q 368 178 315 178 q 414 192 397 178 q 431 231 431 206 q 414 262 431 250 q 364 274 397 274 q 269 276 307 274 q 129 330 189 281 q 69 472 69 379 q 74 522 69 496 q 172 681 92 629 q 369 733 253 733 l 432 733 l 442 793 l 44 793 l 86 1028 l 1342 1028 l 1300 793 m 915 793 l 715 793 l 706 733 l 669 533 l 404 533 q 372 525 385 533 q 357 501 360 517 q 394 471 353 471 l 454 471 l 858 471 l 915 793 z "},"ञ":{"ha":1182,"x_min":24,"x_max":1288,"o":"m 1246 793 l 1140 793 l 1001 0 l 718 0 l 765 272 l 672 272 q 527 103 624 163 q 311 43 431 43 q 103 107 182 43 q 24 288 24 171 q 26 333 24 318 l 293 333 q 315 292 297 304 q 356 281 333 281 q 426 317 397 281 q 454 407 454 354 q 438 459 454 439 q 392 479 422 479 q 346 467 369 479 q 310 428 322 456 l 43 428 q 121 585 64 519 q 258 685 178 651 q 431 719 339 719 q 619 665 544 719 q 708 510 693 610 l 807 510 l 857 793 l 33 793 l 75 1028 l 1288 1028 l 1246 793 z "},"ट":{"ha":893,"x_min":26,"x_max":999,"o":"m 475 485 q 361 447 410 485 q 313 342 313 408 q 340 276 313 300 q 419 251 368 251 q 522 285 481 251 q 572 375 563 319 l 842 375 q 761 181 822 264 q 605 52 700 97 q 390 7 510 7 q 199 44 282 7 q 72 151 117 82 q 26 311 26 219 q 32 375 26 346 q 171 620 58 529 q 461 719 283 711 l 474 793 l 33 793 l 75 1028 l 999 1028 l 957 793 l 751 793 l 697 485 l 475 485 z "},"ठ":{"ha":926,"x_min":29,"x_max":1032,"o":"m 649 793 l 635 719 q 792 617 732 689 q 851 442 851 546 q 844 372 851 411 q 760 184 825 263 q 599 66 696 106 q 388 26 501 26 q 206 63 288 26 q 77 167 125 99 q 29 328 29 235 q 35 394 29 363 q 144 614 57 531 q 357 726 232 697 l 369 793 l 32 793 l 74 1028 l 1032 1028 l 990 793 l 649 793 m 567 410 q 539 479 567 454 q 460 504 511 504 q 353 463 394 504 q 313 357 313 421 q 340 287 313 313 q 417 261 367 261 q 525 303 483 261 q 567 410 567 346 z "},"ड":{"ha":781,"x_min":6,"x_max":886,"o":"m 406 533 q 372 525 386 533 q 357 503 358 517 q 393 471 351 471 l 454 471 q 634 419 564 471 q 704 268 704 368 q 699 214 704 240 q 586 31 678 94 q 340 -33 494 -33 q 100 28 194 -33 q 6 203 6 89 q 7 235 6 224 l 289 235 q 307 190 286 203 q 356 178 328 178 q 410 192 389 178 q 432 235 432 207 q 367 274 432 274 l 322 274 q 151 317 231 274 q 71 465 71 361 q 75 513 71 488 q 174 674 93 617 q 369 731 256 731 l 429 731 l 442 793 l 38 793 l 78 1028 l 886 1028 l 846 793 l 714 793 l 668 533 l 406 533 z "},"ढ":{"ha":925,"x_min":31,"x_max":1031,"o":"m 560 544 q 393 494 464 544 q 307 356 322 444 q 303 313 303 333 q 344 213 303 250 q 472 175 385 175 q 581 197 538 175 q 632 263 624 218 q 626 290 635 279 q 603 301 618 301 q 564 272 572 301 q 561 249 561 264 l 364 249 q 368 308 364 283 q 460 450 383 400 q 650 500 536 500 q 814 446 753 500 q 875 300 875 392 q 871 254 875 279 q 736 47 846 121 q 444 -26 626 -26 q 230 15 324 -26 q 83 132 136 56 q 31 311 31 208 q 38 382 31 340 q 124 573 58 493 q 287 694 189 653 q 500 736 385 736 l 508 736 l 518 793 l 36 793 l 78 1028 l 1031 1028 l 989 793 l 783 793 l 740 544 l 560 544 z "},"ण":{"ha":1279,"x_min":33,"x_max":1385,"o":"m 1343 793 l 1238 793 l 1097 0 l 814 0 l 954 793 l 822 793 l 768 492 q 651 256 743 346 q 401 167 558 167 q 178 238 261 167 q 94 429 94 310 q 100 492 94 463 l 154 793 l 33 793 l 75 1028 l 1385 1028 l 1343 793 m 544 793 l 431 793 l 372 465 q 371 451 371 460 q 384 417 371 429 q 419 404 397 404 q 464 421 447 404 q 486 465 481 438 l 544 793 z "},"त":{"ha":996,"x_min":22,"x_max":1101,"o":"m 1060 793 l 953 793 l 814 0 l 531 0 l 607 436 l 453 436 q 351 399 392 436 q 310 306 310 363 q 335 244 310 267 q 414 222 361 222 l 436 222 l 397 1 l 357 1 q 194 32 271 1 q 70 126 118 63 q 22 282 22 189 q 28 344 22 315 q 182 596 56 514 q 482 678 308 678 l 649 678 l 669 793 l 33 793 l 75 1028 l 1101 1028 l 1060 793 z "},"थ":{"ha":1126,"x_min":44,"x_max":1232,"o":"m 1232 1028 l 1192 793 l 1085 793 l 944 0 l 661 0 l 701 229 q 573 137 656 174 q 388 100 490 100 q 137 184 229 100 q 44 415 44 268 q 53 506 44 458 q 82 622 65 575 l 193 622 q 376 651 310 622 q 454 749 442 681 q 456 761 456 753 q 446 789 456 778 q 419 800 436 800 q 374 770 388 800 q 364 703 360 740 l 110 703 q 158 870 114 793 q 281 994 201 947 q 467 1040 360 1040 q 654 978 585 1040 q 724 806 724 915 q 718 740 724 772 q 594 521 694 608 q 318 424 494 433 q 360 360 325 386 q 471 333 396 333 q 663 406 581 333 q 769 617 746 478 l 842 1028 l 1232 1028 z "},"द":{"ha":857,"x_min":35,"x_max":963,"o":"m 457 467 q 363 433 397 467 q 328 349 328 400 q 346 301 328 318 q 397 283 364 283 q 461 308 436 283 q 493 371 486 332 l 756 371 l 679 -61 l 403 -61 l 433 110 q 274 61 369 61 q 154 90 208 61 q 67 174 100 118 q 35 313 35 231 q 42 390 35 344 q 185 626 69 544 q 469 708 300 708 l 490 708 l 506 793 l 39 793 l 81 1028 l 963 1028 l 919 793 l 790 793 l 732 467 l 457 467 z "},"ध":{"ha":1046,"x_min":50,"x_max":1151,"o":"m 1111 793 l 1011 793 l 871 0 l 588 0 l 621 190 q 329 90 513 90 q 128 146 207 90 q 50 303 50 201 q 54 349 50 324 q 124 479 68 429 q 243 547 179 529 l 244 553 q 152 623 189 574 q 115 744 115 672 q 119 794 115 768 q 220 976 139 913 q 419 1040 301 1040 q 597 987 533 1040 q 660 838 660 933 q 643 733 660 790 l 436 733 q 440 763 440 746 q 403 804 440 804 q 365 784 379 804 q 350 732 350 764 q 447 668 350 668 l 575 668 l 535 442 l 463 442 q 347 381 358 442 q 367 336 342 351 q 444 321 392 321 q 599 376 536 321 q 681 526 661 432 l 728 793 l 768 1028 l 1151 1028 l 1111 793 z "},"न":{"ha":1172,"x_min":25,"x_max":1278,"o":"m 1236 793 l 1131 793 l 990 0 l 707 0 l 786 447 l 658 447 q 667 383 667 408 q 661 329 667 356 q 594 178 646 240 q 472 85 543 117 q 322 54 400 54 q 169 89 238 54 q 63 186 101 124 q 25 328 25 249 q 31 386 25 347 q 167 609 58 536 q 431 682 275 682 l 828 682 l 847 793 l 33 793 l 75 1028 l 1278 1028 l 1236 793 m 446 383 q 428 430 446 413 q 381 447 411 447 q 313 420 340 447 q 285 354 285 393 q 303 309 285 326 q 353 292 322 292 q 418 318 390 292 q 446 383 446 344 z "},"प":{"ha":960,"x_min":33,"x_max":1065,"o":"m 1024 793 l 918 793 l 779 0 l 496 0 l 539 244 q 358 189 464 189 q 152 267 226 189 q 78 474 78 346 q 86 557 78 514 l 128 793 l 33 793 l 75 1028 l 1065 1028 l 1024 793 m 635 793 l 411 793 l 369 557 q 365 522 365 539 q 390 452 365 478 q 467 426 415 426 q 548 458 517 426 q 592 544 579 490 l 635 793 z "},"फ":{"ha":1367,"x_min":33,"x_max":1472,"o":"m 896 793 l 869 640 q 1071 713 949 713 q 1240 646 1182 713 q 1299 472 1299 579 q 1292 400 1299 442 q 1172 164 1265 250 q 950 78 1078 78 q 843 94 889 78 l 881 310 q 913 306 897 306 q 978 335 953 306 q 1003 406 1003 365 q 987 453 1003 435 q 936 472 971 472 q 861 441 892 472 q 818 350 831 410 l 757 0 l 474 0 l 517 242 q 347 189 444 189 q 149 264 221 189 q 76 460 76 339 q 85 542 76 500 l 128 793 l 33 793 l 75 1028 l 1472 1028 l 1431 793 l 896 793 m 613 793 l 411 793 l 368 542 q 364 510 364 525 q 386 449 364 472 q 453 426 408 426 q 527 455 499 426 q 567 531 556 483 l 613 793 z "},"ब":{"ha":954,"x_min":33,"x_max":1060,"o":"m 1060 1028 l 1018 793 l 913 793 l 774 0 l 501 0 l 522 118 q 431 70 485 86 q 317 54 378 54 q 168 91 232 54 q 70 194 104 128 q 36 343 36 260 q 42 414 36 381 q 174 642 67 557 q 435 728 281 728 q 621 679 550 728 l 640 793 l 33 793 l 75 1028 l 1060 1028 m 464 549 q 376 525 417 549 l 581 368 q 589 400 589 394 q 592 428 592 419 q 557 515 592 482 q 464 549 522 549 m 285 400 q 282 371 282 381 q 319 285 282 317 q 413 253 356 253 q 499 275 458 253 l 294 433 q 285 400 286 411 z "},"भ":{"ha":1235,"x_min":24,"x_max":1340,"o":"m 1340 1028 l 1300 793 l 1192 793 l 1051 0 l 768 0 l 843 424 l 707 424 l 700 385 q 572 140 672 229 q 311 50 472 50 q 101 115 178 50 q 24 293 24 181 q 29 354 24 326 q 165 578 56 503 q 424 654 275 654 l 483 654 l 499 742 q 500 763 500 749 q 467 800 500 800 q 432 785 446 800 q 414 746 418 769 q 411 707 410 725 l 128 707 l 128 719 q 131 757 128 732 q 247 961 153 882 q 497 1040 342 1040 q 700 974 638 1040 q 763 792 763 907 q 753 689 763 739 l 747 654 l 883 654 l 949 1028 l 1340 1028 m 443 424 l 392 424 q 319 402 347 424 q 290 340 290 381 q 306 302 290 315 q 349 289 322 289 q 406 311 385 289 q 433 369 426 333 l 443 424 z "},"म":{"ha":1221,"x_min":15,"x_max":1326,"o":"m 1285 793 l 1179 793 l 1039 0 l 754 0 l 829 424 l 699 424 l 692 385 q 563 140 664 229 q 301 50 463 50 q 92 116 168 50 q 15 294 15 182 q 21 354 15 326 q 156 578 46 503 q 414 654 267 654 l 475 654 l 499 793 l 33 793 l 75 1028 l 1326 1028 l 1285 793 m 894 793 l 763 793 l 739 654 l 869 654 l 894 793 m 435 424 l 382 424 q 310 403 338 424 q 282 342 282 382 q 299 303 282 317 q 340 289 317 289 q 397 311 376 289 q 425 369 418 333 l 435 424 z "},"य":{"ha":1068,"x_min":33,"x_max":1174,"o":"m 1132 793 l 1026 793 l 886 0 l 603 0 l 632 167 q 389 88 533 88 q 210 126 286 88 q 92 234 133 164 q 51 397 51 304 q 58 479 51 444 q 82 575 65 517 l 93 575 q 243 621 200 575 q 301 750 286 667 l 310 793 l 33 793 l 75 1028 l 1174 1028 l 1132 793 m 743 793 l 589 793 l 571 697 q 333 436 532 472 q 367 355 331 388 q 475 322 404 322 q 622 378 565 322 q 694 521 679 433 l 743 793 z "},"र":{"ha":735,"x_min":25,"x_max":840,"o":"m 799 793 l 711 793 l 706 757 q 590 493 676 593 q 328 383 503 393 l 310 276 q 308 260 308 271 q 338 228 308 228 q 367 242 356 228 q 383 276 379 256 l 390 322 l 661 322 l 657 286 q 545 67 633 147 q 315 -12 457 -12 q 102 56 179 -12 q 25 233 25 125 q 31 290 25 264 l 88 608 l 224 608 q 367 647 324 608 q 422 757 410 685 l 428 793 l 35 793 l 76 1028 l 840 1028 l 799 793 z "},"ल":{"ha":1278,"x_min":28,"x_max":1383,"o":"m 1119 793 l 1096 657 q 1172 563 1144 621 q 1199 429 1199 506 q 1192 349 1199 385 q 1114 165 1172 243 q 963 45 1056 86 q 751 7 869 4 l 703 10 l 747 254 q 782 251 761 251 q 861 280 826 251 q 904 363 896 308 q 907 388 907 379 q 888 442 907 422 q 833 463 868 463 q 761 431 788 463 q 726 356 735 400 l 719 315 l 486 315 l 493 356 q 496 386 496 375 q 479 441 496 419 q 425 463 463 463 q 355 435 383 463 q 318 363 326 408 q 315 336 315 343 q 340 273 315 294 q 408 251 364 251 q 439 254 417 251 l 394 8 q 353 7 375 7 q 113 88 197 7 q 28 300 28 168 q 35 379 28 344 q 113 569 54 494 q 252 678 172 644 q 418 711 332 711 q 564 676 507 711 q 644 581 621 640 l 649 581 q 825 700 714 672 l 842 793 l 33 793 l 75 1028 l 1383 1028 l 1342 793 l 1119 793 z "},"व":{"ha":919,"x_min":33,"x_max":1025,"o":"m 1025 1028 l 983 793 l 878 793 l 739 0 l 463 0 l 485 129 q 294 57 408 57 q 104 129 174 57 q 35 325 35 201 q 44 417 35 361 q 160 637 69 556 q 390 718 250 718 q 575 646 507 718 l 601 793 l 33 793 l 75 1028 l 1025 1028 m 313 368 q 338 306 313 331 q 406 282 363 282 q 495 319 458 282 q 532 410 532 357 q 508 470 532 447 q 442 493 483 493 q 349 456 386 493 q 313 368 313 419 z "},"श":{"ha":1225,"x_min":32,"x_max":1331,"o":"m 372 233 q 422 256 404 233 q 447 324 439 278 l 722 324 q 609 78 703 164 q 350 -8 515 -8 q 118 63 204 -8 q 32 257 32 133 q 39 325 32 286 l 89 607 l 276 607 q 440 634 374 607 q 521 736 507 661 q 522 750 522 742 q 513 783 522 771 q 483 796 503 796 q 431 766 449 796 q 414 694 414 736 l 132 694 q 251 949 147 858 q 515 1040 354 1040 q 728 972 644 1040 q 811 783 811 904 q 806 718 811 747 q 647 458 775 544 q 343 371 519 371 l 333 371 l 322 308 q 319 283 319 292 q 372 233 319 233 m 1331 1028 l 1289 793 l 1183 793 l 1043 0 l 756 0 l 938 1028 l 1331 1028 z "},"ष":{"ha":986,"x_min":33,"x_max":1092,"o":"m 1050 793 l 943 793 l 804 0 l 526 0 l 568 236 q 363 167 483 167 q 151 249 225 167 q 78 464 78 331 q 86 557 78 510 l 128 793 l 33 793 l 75 1028 l 1092 1028 l 1050 793 m 665 793 l 406 793 l 639 643 l 665 793 m 358 549 q 356 511 356 536 q 381 433 356 463 q 457 404 406 404 q 594 475 544 404 l 371 615 l 358 549 z "},"स":{"ha":1160,"x_min":29,"x_max":1265,"o":"m 1224 793 l 1118 793 l 978 0 l 694 0 l 760 374 l 326 374 l 310 279 q 308 267 308 275 q 344 228 308 228 q 381 244 368 228 q 400 294 393 261 l 671 294 q 563 69 658 150 q 317 -12 468 -12 q 104 60 179 -12 q 29 247 29 132 q 35 310 29 282 l 81 574 l 168 574 q 311 612 268 574 q 367 722 354 650 l 379 793 l 35 793 l 76 1028 l 1265 1028 l 1224 793 m 835 793 l 663 793 l 650 722 q 614 604 639 656 l 801 604 l 835 793 z "},"ह":{"ha":825,"x_min":19,"x_max":932,"o":"m 446 539 q 410 529 425 539 q 393 500 396 519 l 392 490 q 396 476 392 483 q 431 478 408 478 q 592 444 525 478 q 692 356 658 411 q 726 236 726 300 q 724 200 726 225 l 453 200 q 436 240 454 224 q 389 256 418 256 q 324 226 354 256 q 294 139 294 196 q 313 86 294 103 q 358 69 332 69 q 407 83 385 69 q 439 119 429 97 l 710 119 q 579 -86 682 -10 q 333 -162 476 -162 q 170 -128 242 -162 q 59 -30 99 -93 q 19 117 19 33 q 25 183 19 151 q 172 408 50 329 q 119 522 119 453 q 151 631 119 582 q 240 709 182 681 q 378 738 299 738 l 444 738 l 454 793 l 49 793 l 90 1028 l 932 1028 l 890 793 l 724 793 l 714 738 l 678 539 l 446 539 z "},"ळ":{"ha":1300,"x_min":24,"x_max":1406,"o":"m 1136 793 l 1110 647 q 1192 558 1163 614 q 1221 432 1221 503 q 1215 365 1221 397 q 1142 190 1197 265 q 1008 76 1088 115 q 840 36 929 36 q 690 71 756 36 q 593 176 624 106 l 585 176 q 458 71 533 106 q 299 36 383 36 q 158 67 221 36 q 60 158 96 99 q 24 299 24 218 q 29 365 24 333 q 102 538 47 464 q 237 653 157 613 q 406 693 317 693 q 550 663 486 693 q 653 554 614 633 l 658 554 q 843 681 736 651 l 863 793 l 31 793 l 72 1028 l 1406 1028 l 1364 793 l 1136 793 m 485 365 q 486 381 486 371 q 465 433 486 413 q 411 454 444 454 q 335 424 367 454 q 304 346 304 393 q 325 295 304 314 q 381 276 346 276 q 448 301 418 276 q 485 365 478 325 m 940 381 q 920 434 940 414 q 864 454 900 454 q 790 423 821 454 q 758 347 758 392 q 778 295 758 314 q 833 276 799 276 q 909 305 878 276 q 940 381 940 333 z "},"क़":{"ha":1314,"x_min":24,"x_max":1419,"o":"m 854 793 l 828 644 q 1004 713 899 713 q 1177 640 1115 713 q 1239 456 1239 568 q 1232 379 1239 413 q 1113 156 1204 233 q 894 78 1022 78 q 797 90 843 78 l 836 310 q 857 307 844 307 q 922 333 894 307 q 949 403 949 360 q 932 452 949 432 q 881 472 915 472 q 816 446 842 472 q 781 369 790 419 l 715 0 l 443 0 l 467 135 q 272 60 394 60 q 147 93 201 60 q 61 186 92 126 q 31 322 31 246 q 38 393 31 351 q 154 626 63 539 q 385 713 246 713 q 556 642 504 713 l 582 793 l 33 793 l 75 1028 l 1419 1028 l 1378 793 l 854 793 m 401 297 q 473 321 443 297 q 510 379 503 344 l 511 386 l 513 400 q 491 453 513 433 q 433 474 469 474 q 354 443 386 474 q 322 368 322 413 q 344 317 322 338 q 401 297 367 297 m 156 -315 q 60 -278 97 -315 q 24 -187 24 -242 q 50 -94 24 -137 q 120 -26 76 -51 q 211 0 164 0 q 307 -37 269 0 q 344 -132 344 -75 q 318 -223 344 -181 q 248 -290 292 -265 q 156 -315 204 -315 z "},"ख़":{"ha":1358,"x_min":35,"x_max":1464,"o":"m 1464 1028 l 1422 793 l 1317 793 l 1178 0 l 896 0 l 926 174 q 783 132 869 132 q 743 136 763 132 q 591 28 678 68 q 403 -12 504 -12 q 141 70 233 -12 q 49 307 49 153 q 58 413 49 360 l 85 564 l 111 564 q 258 604 208 564 q 321 726 307 644 l 332 793 l 35 793 l 76 1028 l 1464 1028 m 453 231 q 589 286 544 231 q 578 379 578 333 q 583 449 578 417 q 683 635 603 564 q 871 707 764 707 q 1011 661 965 707 l 1035 793 l 617 793 l 599 686 q 506 476 576 557 q 332 372 435 394 q 329 344 329 353 q 361 262 329 293 q 453 231 393 231 m 822 406 q 840 361 822 376 q 885 346 857 346 q 940 366 917 346 q 969 421 964 386 q 971 436 971 426 q 956 478 971 461 q 911 494 940 494 q 848 471 874 494 q 822 406 822 447 m 300 -382 q 205 -345 242 -382 q 168 -254 168 -308 q 194 -161 168 -204 q 265 -92 221 -118 q 356 -67 308 -67 q 451 -104 414 -67 q 489 -199 489 -142 q 463 -290 489 -247 q 392 -357 436 -332 q 300 -382 349 -382 z "},"ग़":{"ha":1193,"x_min":31,"x_max":1299,"o":"m 1299 1028 l 1257 793 l 1150 793 l 1011 0 l 728 0 l 867 793 l 738 793 l 690 518 q 573 278 665 368 q 321 188 481 188 q 110 250 189 188 q 31 432 31 313 q 38 504 31 463 q 47 550 43 535 l 321 550 l 313 506 q 310 472 310 493 q 346 428 310 428 q 404 506 392 428 l 454 793 l 33 793 l 75 1028 l 1299 1028 m 244 -187 q 149 -151 186 -187 q 113 -60 113 -114 q 139 33 113 -10 q 209 102 165 76 q 300 128 253 128 q 396 90 358 128 q 433 -4 433 53 q 407 -95 433 -53 q 337 -162 381 -137 q 244 -187 293 -187 z "},"ज़":{"ha":1211,"x_min":33,"x_max":1317,"o":"m 1275 793 l 1169 793 l 1031 0 l 747 0 l 822 428 l 728 428 q 595 198 699 285 q 340 111 492 111 q 117 185 200 111 q 33 383 33 258 q 40 453 33 411 l 79 668 l 364 668 l 325 451 q 322 418 322 439 q 375 358 322 358 q 456 451 439 358 l 494 668 l 864 668 l 886 793 l 33 793 l 75 1028 l 1317 1028 l 1275 793 m 265 -262 q 170 -226 207 -262 q 133 -135 133 -189 q 160 -42 133 -85 q 230 27 186 1 q 321 53 274 53 q 417 15 379 53 q 454 -79 454 -22 q 428 -170 454 -128 q 358 -237 401 -212 q 265 -262 314 -262 z "},"ड़":{"ha":781,"x_min":6,"x_max":886,"o":"m 406 533 q 372 525 386 533 q 357 503 358 517 q 393 471 351 471 l 454 471 q 634 419 564 471 q 704 268 704 368 q 699 214 704 240 q 586 31 678 94 q 340 -33 494 -33 q 100 28 194 -33 q 6 203 6 89 q 7 235 6 224 l 289 235 q 307 190 286 203 q 356 178 328 178 q 410 192 389 178 q 432 235 432 207 q 367 274 432 274 l 322 274 q 151 317 231 274 q 71 465 71 361 q 75 513 71 488 q 174 674 93 617 q 369 731 256 731 l 429 731 l 442 793 l 38 793 l 78 1028 l 886 1028 l 846 793 l 714 793 l 668 533 l 406 533 m 261 -407 q 166 -370 203 -407 q 129 -279 129 -333 q 156 -186 129 -229 q 226 -117 182 -143 q 317 -92 269 -92 q 413 -129 375 -92 q 450 -224 450 -167 q 424 -315 450 -272 q 353 -382 397 -357 q 261 -407 310 -407 z "},"ढ़":{"ha":925,"x_min":31,"x_max":1031,"o":"m 560 544 q 393 494 464 544 q 307 356 322 444 q 303 313 303 333 q 344 213 303 250 q 472 175 385 175 q 581 197 538 175 q 632 263 624 218 q 626 290 635 279 q 603 301 618 301 q 564 272 572 301 q 561 249 561 264 l 364 249 q 368 308 364 283 q 460 450 383 400 q 650 500 536 500 q 814 446 753 500 q 875 300 875 392 q 871 254 875 279 q 736 47 846 121 q 444 -26 626 -26 q 230 15 324 -26 q 83 132 136 56 q 31 311 31 208 q 38 382 31 340 q 124 573 58 493 q 287 694 189 653 q 500 736 385 736 l 508 736 l 518 793 l 36 793 l 78 1028 l 1031 1028 l 989 793 l 783 793 l 740 544 l 560 544 m 340 -399 q 245 -362 282 -399 q 208 -271 208 -325 q 235 -178 208 -221 q 305 -109 261 -135 q 396 -83 349 -83 q 492 -121 454 -83 q 529 -215 529 -158 q 503 -306 529 -264 q 433 -374 476 -349 q 340 -399 389 -399 z "},"फ़":{"ha":1367,"x_min":33,"x_max":1472,"o":"m 896 793 l 869 640 q 1071 713 949 713 q 1240 646 1182 713 q 1299 472 1299 579 q 1292 400 1299 442 q 1172 164 1265 250 q 950 78 1078 78 q 843 94 889 78 l 881 310 q 913 306 897 306 q 978 335 953 306 q 1003 406 1003 365 q 987 453 1003 435 q 936 472 971 472 q 861 441 892 472 q 818 350 831 410 l 757 0 l 474 0 l 517 242 q 347 189 444 189 q 149 264 221 189 q 76 460 76 339 q 85 542 76 500 l 128 793 l 33 793 l 75 1028 l 1472 1028 l 1431 793 l 896 793 m 613 793 l 411 793 l 368 542 q 364 510 364 525 q 386 449 364 472 q 453 426 408 426 q 527 455 499 426 q 567 531 556 483 l 613 793 m 165 -176 q 70 -140 107 -176 q 33 -49 33 -103 q 60 44 33 1 q 130 113 86 88 q 221 139 174 139 q 317 101 279 139 q 354 7 354 64 q 328 -84 354 -42 q 258 -151 301 -126 q 165 -176 214 -176 z "},"ऱ":{"ha":735,"x_min":-137,"x_max":840,"o":"m 799 793 l 711 793 l 706 757 q 590 493 676 593 q 328 383 503 393 l 310 276 q 308 260 308 271 q 338 228 308 228 q 367 242 356 228 q 383 276 379 256 l 390 322 l 661 322 l 657 286 q 545 67 633 147 q 315 -12 457 -12 q 102 56 179 -12 q 25 233 25 125 q 31 290 25 264 l 88 608 l 224 608 q 367 647 324 608 q 422 757 410 685 l 428 793 l 35 793 l 76 1028 l 840 1028 l 799 793 m -6 -342 q -101 -305 -64 -342 q -137 -214 -137 -268 q -111 -121 -137 -164 q -41 -52 -85 -78 q 50 -26 3 -26 q 146 -64 108 -26 q 183 -158 183 -101 q 157 -249 183 -207 q 87 -317 131 -292 q -6 -342 43 -342 z "},"ं":{"ha":0,"x_min":-267,"x_max":56,"o":"m -135 1110 q -230 1147 -193 1110 q -267 1239 -267 1183 q -240 1331 -267 1289 q -170 1399 -214 1374 q -79 1425 -126 1425 q 18 1388 -19 1425 q 56 1294 56 1351 q 28 1204 56 1247 q -42 1135 1 1161 q -135 1110 -86 1110 z "},"ँ":{"ha":0,"x_min":-439,"x_max":294,"o":"m -85 1374 q -144 1397 -121 1374 q -168 1457 -168 1421 q -131 1540 -168 1504 q -49 1576 -94 1576 q 14 1553 -10 1576 q 38 1493 38 1529 q 1 1409 38 1444 q -85 1374 -36 1374 m -115 1121 q -350 1188 -261 1121 q -439 1379 -439 1256 q -433 1444 -439 1413 l -210 1444 q -212 1421 -212 1428 q -181 1347 -212 1375 q -92 1319 -149 1319 q 15 1354 -28 1319 q 68 1444 58 1389 l 294 1444 q 163 1203 267 1285 q -115 1121 60 1121 z "},"ः":{"ha":431,"x_min":19,"x_max":411,"o":"m 222 472 q 126 510 164 472 q 89 601 89 547 q 116 693 89 650 q 187 762 143 736 q 278 788 231 788 q 374 750 336 788 q 411 657 411 713 q 384 566 411 608 q 313 498 357 524 q 222 472 269 472 m 153 82 q 57 119 94 82 q 19 211 19 156 q 47 303 19 260 q 117 371 74 346 q 208 396 161 396 q 304 359 267 396 q 342 265 342 322 q 315 174 342 217 q 244 107 288 132 q 153 82 201 82 z "},"ऽ":{"ha":847,"x_min":-15,"x_max":819,"o":"m 26 288 l 356 288 q 408 325 408 288 q 392 362 408 343 q 339 410 375 381 q 263 480 293 449 q 211 557 233 511 q 189 661 189 603 q 193 715 189 686 q 290 876 211 819 q 482 933 368 933 l 819 933 l 778 696 l 513 696 q 475 671 478 696 q 488 635 472 653 q 542 585 504 617 q 619 516 589 547 q 673 438 650 485 q 696 331 696 390 q 690 276 696 315 q 587 110 671 169 q 389 51 503 51 l -15 51 l 26 288 z "},"्":{"ha":0,"x_min":-471,"x_max":-56,"o":"m -471 -71 l -190 -71 l -56 -401 l -343 -401 l -471 -71 z "},"़":{"ha":0,"x_min":-486,"x_max":-165,"o":"m -354 -465 q -449 -428 -412 -465 q -486 -337 -486 -392 q -460 -244 -486 -287 q -390 -176 -433 -201 q -299 -150 -346 -150 q -203 -187 -240 -150 q -165 -282 -165 -225 q -192 -373 -165 -331 q -262 -440 -218 -415 q -354 -465 -306 -465 z "},"०":{"ha":919,"x_min":31,"x_max":892,"o":"m 44 504 q 31 360 31 418 q 115 99 31 193 q 374 6 199 6 q 711 141 585 6 q 878 504 838 276 q 892 647 892 588 q 808 907 892 813 q 549 1001 724 1001 q 211 867 338 1001 q 44 504 85 732 m 574 504 q 524 351 556 406 q 425 297 493 297 q 356 325 376 297 q 336 404 336 353 q 347 504 336 446 q 397 656 365 603 q 497 710 428 710 q 585 604 585 710 q 574 504 585 560 z "},"१":{"ha":554,"x_min":50,"x_max":571,"o":"m 50 694 l 100 983 l 571 983 l 399 0 l 75 0 l 197 694 l 50 694 z "},"२":{"ha":786,"x_min":-35,"x_max":801,"o":"m 6 246 q 338 490 213 383 q 478 682 463 597 q 479 706 479 690 q 440 751 479 751 q 397 727 413 751 q 369 636 381 703 l 71 636 q 156 848 92 764 q 310 971 221 932 q 497 1010 399 1010 q 729 941 657 1010 q 801 764 801 872 q 796 699 801 728 q 666 460 774 572 q 408 263 558 347 l 726 263 l 683 14 l -35 14 l 6 246 z "},"३":{"ha":810,"x_min":14,"x_max":810,"o":"m 508 1038 q 732 970 654 1038 q 810 794 810 903 q 804 740 810 776 q 733 599 788 650 q 615 528 678 547 l 614 522 q 710 447 675 499 q 744 318 744 396 q 739 251 744 283 q 618 61 718 132 q 358 -10 518 -10 q 103 63 192 -10 q 14 283 14 136 q 18 346 14 313 l 318 346 q 311 303 311 318 q 375 244 311 244 q 419 260 400 244 q 443 300 439 275 q 446 324 446 317 q 346 392 446 392 l 294 392 l 339 640 l 389 640 q 497 715 483 635 q 499 735 499 722 q 487 772 499 760 q 457 783 475 783 q 390 697 406 783 l 90 697 q 231 950 124 863 q 508 1038 339 1038 z "},"४":{"ha":936,"x_min":11,"x_max":906,"o":"m 11 153 l 57 410 l 574 1000 l 906 1000 l 804 419 l 904 419 l 857 153 l 757 153 l 731 0 l 419 0 l 446 153 l 11 153 m 558 649 l 368 419 l 518 419 l 558 649 z "},"५":{"ha":833,"x_min":49,"x_max":858,"o":"m 811 744 l 408 744 l 388 628 q 464 666 419 653 q 561 679 508 679 q 740 610 681 679 q 799 431 799 542 q 792 351 799 397 q 653 92 763 185 q 379 0 543 0 q 135 70 221 0 q 49 257 49 140 q 56 325 49 286 l 356 325 l 354 313 q 367 278 354 293 q 410 264 379 264 q 465 289 444 264 q 494 357 486 314 q 497 381 497 374 q 481 424 497 410 q 436 439 465 439 q 390 425 407 439 q 368 393 372 411 l 68 393 l 178 1015 l 858 1015 l 811 744 z "},"६":{"ha":849,"x_min":50,"x_max":829,"o":"m 539 707 q 526 768 539 749 q 479 788 513 788 q 400 735 426 788 q 354 568 374 682 q 437 629 386 607 q 547 651 488 651 q 726 589 661 651 q 792 407 792 526 q 783 318 792 367 q 653 78 757 167 q 393 -10 549 -10 q 131 85 213 -10 q 50 350 50 181 q 68 528 50 426 q 158 817 100 706 q 306 981 215 928 q 528 1033 397 1033 q 757 956 685 1033 q 829 758 829 879 q 826 707 829 740 l 539 707 m 331 317 q 349 269 331 285 q 401 254 368 254 q 472 276 446 254 q 499 344 499 299 q 480 397 499 378 q 429 415 461 415 q 358 390 386 415 q 331 317 331 364 z "},"७":{"ha":697,"x_min":-46,"x_max":785,"o":"m 744 769 l 271 0 l -46 0 l 425 732 l 69 732 l 115 996 l 785 996 l 744 769 z "},"८":{"ha":869,"x_min":25,"x_max":868,"o":"m 131 782 q 195 910 143 849 q 338 1010 247 971 q 547 1050 428 1050 q 726 1015 654 1050 q 833 922 799 979 q 868 799 868 865 q 864 754 868 778 q 710 558 842 628 q 825 349 825 485 q 818 278 825 319 q 669 60 793 135 q 358 -15 544 -15 q 190 16 265 -15 q 69 110 114 47 q 25 261 25 172 q 31 326 25 294 q 90 461 44 404 q 213 558 135 518 q 126 728 126 614 q 131 782 126 753 m 425 715 q 422 690 422 696 q 436 648 422 663 q 474 633 450 633 q 523 654 501 633 q 553 715 544 675 q 554 736 554 722 q 540 783 554 765 q 503 800 526 800 q 453 777 475 800 q 425 715 431 754 m 329 310 q 349 256 329 276 q 404 236 368 236 q 483 269 453 236 q 513 351 513 303 q 493 406 513 386 q 438 426 474 426 q 360 393 390 426 q 329 310 329 360 z "},"९":{"ha":788,"x_min":25,"x_max":810,"o":"m 317 317 q 331 256 317 276 q 379 236 346 236 q 456 288 431 236 q 501 456 481 340 q 419 394 469 417 q 308 372 368 372 q 128 435 194 372 q 63 618 63 499 q 71 706 63 660 q 206 945 97 857 q 476 1033 315 1033 q 733 947 656 1033 q 810 699 810 860 q 789 496 810 617 q 710 215 758 324 q 576 49 663 107 q 350 -10 489 -10 q 160 38 233 -10 q 56 160 88 86 q 29 317 25 235 l 317 317 m 524 708 q 506 754 524 739 q 454 769 488 769 q 390 749 415 769 q 358 688 365 729 q 357 669 357 681 q 376 624 357 640 q 426 608 394 608 q 496 635 468 608 q 524 708 524 661 z "},"ॐ":{"ha":1503,"x_min":6,"x_max":1406,"o":"m 857 1244 q 797 1268 821 1244 q 774 1328 774 1292 q 810 1413 774 1376 q 893 1449 847 1449 q 954 1425 931 1449 q 978 1364 978 1401 q 942 1280 978 1315 q 857 1244 906 1244 m 828 992 q 588 1060 674 992 q 501 1250 501 1129 q 507 1315 501 1286 l 731 1315 q 729 1293 729 1307 q 761 1219 729 1247 q 850 1192 793 1192 q 957 1226 914 1192 q 1010 1315 1000 1260 l 1236 1315 q 1108 1074 1213 1157 q 828 992 1003 992 m 1131 944 q 1339 883 1272 944 q 1406 701 1406 821 q 1396 601 1406 665 l 1368 446 q 1208 126 1331 238 q 901 14 1085 14 q 760 28 833 14 l 800 261 q 890 253 869 253 q 1031 305 985 253 q 1094 456 1078 357 l 1128 640 q 1129 661 1129 647 q 1089 706 1129 706 q 1022 624 1036 706 q 961 431 1001 501 q 845 325 921 360 q 643 289 769 290 q 642 285 642 288 q 524 86 619 160 q 294 13 428 13 q 82 77 158 13 q 6 251 6 142 q 11 311 6 283 l 275 311 q 274 300 274 307 q 286 267 274 281 q 321 254 299 254 q 370 275 351 254 q 389 328 389 296 q 369 369 389 354 q 313 385 350 385 l 244 385 l 286 622 l 354 622 q 420 641 393 622 q 447 697 447 660 q 436 728 447 717 q 406 739 425 739 q 365 724 382 739 q 344 686 349 710 l 83 686 q 149 839 99 772 q 279 942 200 906 q 454 979 358 979 q 644 924 576 979 q 713 772 713 869 q 708 721 713 749 q 650 595 694 649 q 539 515 606 542 l 538 510 l 542 508 l 618 508 q 692 518 665 508 q 735 553 719 528 q 760 626 750 578 q 874 865 788 786 q 1131 944 961 944 z "},"॰":{"ha":646,"x_min":75,"x_max":571,"o":"m 567 456 q 469 285 547 351 q 283 218 390 218 q 131 270 188 218 q 75 408 75 322 q 79 456 75 431 q 178 628 99 561 q 367 694 258 694 q 516 642 461 694 q 571 504 571 590 q 567 456 571 481 m 246 442 q 265 399 246 415 q 313 383 283 383 q 368 403 344 383 q 397 456 392 424 q 399 469 399 460 q 382 513 399 497 q 338 529 365 529 q 273 504 300 529 q 246 442 246 479 z "},"।":{"ha":532,"x_min":106,"x_max":567,"o":"m 386 0 l 106 0 l 286 1028 l 567 1028 l 386 0 z "},"॥":{"ha":965,"x_min":106,"x_max":1000,"o":"m 386 0 l 106 0 l 286 1028 l 567 1028 l 386 0 m 819 0 l 538 0 l 718 1028 l 1000 1028 l 819 0 z "},"₨":{"ha":1707,"x_min":-17,"x_max":1674,"o":"m 932 661 q 846 485 914 561 q 668 376 778 410 l 817 0 l 478 0 l 354 353 l 292 0 l -17 0 l 157 983 l 615 983 q 856 913 774 983 q 938 724 938 842 q 932 661 938 689 m 1217 531 q 1246 503 1217 513 q 1340 482 1275 494 q 1488 448 1428 467 q 1592 388 1547 429 q 1638 278 1638 347 q 1635 240 1638 254 q 1574 113 1622 169 q 1445 23 1525 56 q 1263 -10 1365 -10 q 998 63 1090 -10 q 907 271 906 135 l 1208 271 q 1233 229 1207 242 q 1299 217 1258 217 q 1358 247 1351 217 q 1331 281 1363 269 q 1229 304 1299 293 q 1085 337 1143 319 q 985 394 1028 354 q 942 504 942 435 q 946 546 942 524 q 1007 670 958 614 q 1138 760 1056 726 q 1328 793 1221 793 q 1585 716 1499 793 q 1674 513 1671 639 l 1372 513 q 1283 565 1367 565 q 1235 557 1253 565 q 1217 531 1217 549 m 390 558 l 513 558 q 583 578 557 558 q 617 642 608 599 q 618 660 618 649 q 599 708 618 690 q 542 725 579 725 l 419 725 l 390 558 z "},"₹":{"ha":801,"x_min":33,"x_max":875,"o":"m 760 782 l 751 736 l 832 736 l 801 564 l 714 564 q 574 381 672 451 q 326 310 475 310 l 321 283 q 318 257 318 264 q 357 215 318 215 q 397 233 383 215 q 417 293 410 250 l 701 293 q 574 69 668 151 q 331 -14 479 -14 q 33 238 33 -14 q 43 336 33 286 l 74 507 q 274 510 208 507 q 374 526 339 514 q 425 564 410 538 l 83 564 l 114 736 l 464 736 l 472 782 l 122 782 l 157 983 l 875 983 l 840 782 l 760 782 z "},"‌":{"ha":0,"x_min":-32,"x_max":33,"o":"m -32 1126 l 33 1126 l 33 -319 l -32 -319 l -32 1126 z "},"‍":{"ha":0,"x_min":-178,"x_max":178,"o":"m 32 882 l 32 -319 l -33 -319 l -33 882 l -129 781 l -175 826 l -46 956 l -178 1088 l -132 1133 l 0 1001 l 133 1133 l 178 1089 l 44 956 l 178 824 l 132 778 l 32 882 z "},"◌":{"ha":904,"x_min":69,"x_max":835,"o":"m 418 633 q 375 649 392 633 q 358 692 358 665 q 375 734 358 718 q 418 750 392 750 q 461 734 444 750 q 478 692 478 718 q 461 649 478 665 q 418 633 444 633 m 586 613 q 543 628 560 613 q 526 671 526 644 q 543 713 526 697 q 586 729 560 729 q 629 713 613 729 q 646 671 646 697 q 629 628 646 644 q 586 613 613 613 m 256 575 q 213 591 229 575 q 196 633 196 607 q 213 676 196 660 q 256 692 229 692 q 299 676 282 692 q 315 633 315 660 q 299 591 315 607 q 256 575 282 575 m 714 510 q 671 526 688 510 q 654 568 654 542 q 671 610 654 594 q 714 626 688 626 q 757 610 740 626 q 774 568 774 594 q 757 526 774 542 q 714 510 740 510 m 150 438 q 107 453 124 438 q 90 496 90 469 q 107 538 90 522 q 150 554 124 554 q 193 538 176 554 q 210 496 210 522 q 193 453 210 469 q 150 438 176 438 m 775 351 q 732 367 749 351 q 715 410 715 383 q 732 452 715 436 q 775 468 749 468 q 818 452 801 468 q 835 410 835 436 q 818 367 835 383 q 775 351 801 351 m 129 269 q 86 285 103 269 q 69 328 69 301 q 86 370 69 354 q 129 386 103 386 q 172 370 156 386 q 189 328 189 354 q 172 285 189 301 q 129 269 156 269 m 761 185 q 718 201 735 185 q 701 243 701 217 q 718 285 701 269 q 761 301 735 301 q 804 285 788 301 q 821 243 821 269 q 804 201 821 217 q 761 185 788 185 m 192 113 q 149 128 165 113 q 132 171 132 144 q 149 213 132 197 q 192 229 165 229 q 235 213 218 229 q 251 171 251 197 q 235 128 251 144 q 192 113 218 113 m 660 51 q 617 67 633 51 q 600 110 600 83 q 617 152 600 136 q 660 168 633 168 q 703 152 686 168 q 719 110 719 136 q 703 67 719 83 q 660 51 686 51 m 328 7 q 285 23 301 7 q 268 65 268 39 q 285 108 268 92 q 328 124 301 124 q 371 108 354 124 q 388 65 388 92 q 371 23 388 39 q 328 7 354 7 m 500 -12 q 457 3 474 -12 q 440 46 440 19 q 457 88 440 72 q 500 104 474 104 q 543 88 526 104 q 560 46 560 72 q 543 3 560 19 q 500 -12 526 -12 z "},"!":{"ha":604,"x_min":72,"x_max":579,"o":"m 579 1049 l 426 390 l 163 390 l 243 1049 l 579 1049 m 431 294 l 378 0 l 72 0 l 125 294 l 431 294 z "},"\"":{"ha":681,"x_min":53,"x_max":647,"o":"m 335 1115 l 258 789 l 53 789 l 92 1115 l 335 1115 m 647 1115 l 571 789 l 365 789 l 404 1115 l 647 1115 z "},"#":{"ha":1296,"x_min":-46,"x_max":1344,"o":"m 1075 585 l 1024 453 l 1176 453 l 1128 172 l 914 172 l 847 0 l 561 0 l 628 172 l 435 172 l 368 0 l 83 0 l 150 172 l -46 172 l 3 453 l 260 453 l 311 585 l 121 585 l 171 865 l 419 865 l 483 1028 l 768 1028 l 704 865 l 897 865 l 961 1028 l 1247 1028 l 1183 865 l 1344 865 l 1294 585 l 1075 585 m 789 585 l 596 585 l 544 453 l 738 453 l 789 585 z "},"$":{"ha":924,"x_min":10,"x_max":904,"o":"m 569 682 q 539 758 574 740 l 515 621 l 565 604 q 713 549 656 575 q 813 472 771 522 q 854 344 854 422 q 849 290 854 329 q 776 139 833 207 q 622 31 718 71 q 404 -10 526 -10 l 385 -121 l 314 -121 l 333 -7 q 97 77 185 6 q 10 274 10 149 q 13 315 10 288 l 340 315 q 376 233 335 254 l 400 371 l 369 379 q 219 431 278 406 q 116 508 160 457 q 72 642 72 560 q 78 700 72 672 q 157 858 94 792 q 312 960 219 924 q 511 1000 404 996 l 531 1111 l 601 1111 l 582 999 q 820 919 736 990 q 904 724 904 849 q 901 682 904 710 l 569 682 m 411 714 q 449 649 404 676 l 469 765 q 411 714 417 758 m 518 283 q 509 319 522 304 q 467 349 496 335 l 446 224 q 494 242 475 226 q 518 283 514 257 z "},"%":{"ha":1244,"x_min":68,"x_max":1176,"o":"m 368 1001 q 522 952 464 1001 q 579 808 579 903 q 574 750 579 778 q 472 564 551 628 q 281 500 392 500 q 126 549 183 500 q 68 690 68 597 q 74 750 68 722 q 175 937 94 872 q 368 1001 256 1001 m 1117 988 l 424 0 l 129 0 l 822 988 l 1117 988 m 275 750 q 272 724 272 731 q 310 679 272 679 q 351 697 335 679 q 374 750 368 715 q 376 774 376 767 q 335 822 376 822 q 275 750 288 822 m 967 489 q 1120 440 1064 489 q 1176 299 1176 392 q 1171 238 1176 267 q 1071 51 1150 115 q 879 -14 992 -14 q 725 35 783 -14 q 667 179 667 85 q 672 238 667 210 q 775 424 694 360 q 967 489 856 489 m 872 238 q 869 211 869 218 q 908 165 869 165 q 949 183 932 165 q 971 238 965 201 q 974 263 974 257 q 935 310 974 310 q 894 291 911 310 q 872 238 878 272 z "},"&":{"ha":972,"x_min":-4,"x_max":886,"o":"m 579 0 l 536 78 q 485 43 511 57 q 278 -10 390 -10 q 67 60 139 -10 q -4 240 -4 129 q 1 303 -4 275 q 89 490 21 413 q 250 592 157 567 q 236 631 239 617 q 231 686 231 667 q 236 746 231 704 q 293 867 247 811 q 416 958 339 924 q 590 993 493 993 q 785 944 721 993 q 868 811 850 894 q 874 753 874 775 q 860 644 874 703 l 574 644 q 581 701 581 682 q 574 730 581 721 q 550 739 567 739 q 527 728 536 739 q 518 703 518 718 q 536 650 518 686 l 886 0 l 579 0 m 411 324 q 394 361 411 347 q 349 375 378 375 q 288 353 313 375 q 264 299 264 332 q 281 259 264 274 q 326 244 297 244 q 387 267 363 244 q 411 324 411 289 z "},"'":{"ha":368,"x_min":53,"x_max":335,"o":"m 335 1115 l 258 789 l 53 789 l 92 1115 l 335 1115 z "},"(":{"ha":596,"x_min":1,"x_max":846,"o":"m 19 558 q 209 1033 65 819 q 549 1379 353 1246 l 846 1379 l 842 1350 q 488 991 618 1186 q 315 558 357 796 q 299 372 299 463 q 364 47 299 197 q 561 -235 429 -104 l 557 -262 l 260 -262 q 71 2 140 -157 q 1 358 1 161 q 19 558 1 458 z "},")":{"ha":600,"x_min":-247,"x_max":599,"o":"m 581 560 q 390 83 533 296 q 51 -262 247 -131 l -247 -262 l -243 -235 q 113 125 -18 -71 q 285 558 243 321 q 301 743 301 654 q 236 1069 301 918 q 38 1350 171 1219 l 42 1379 l 340 1379 q 529 1114 460 1274 q 599 758 599 954 q 581 560 599 660 z "},"*":{"ha":779,"x_min":108,"x_max":685,"o":"m 622 985 l 685 817 l 522 767 l 668 719 l 536 543 l 436 663 l 446 500 l 253 500 l 321 663 l 181 542 l 108 721 l 272 771 l 128 815 l 251 983 l 358 868 l 344 1033 l 542 1033 l 472 868 l 622 985 z "},"+":{"ha":765,"x_min":3,"x_max":763,"o":"m 713 331 l 506 331 l 468 118 l 172 118 l 210 331 l 3 331 l 53 613 l 260 613 l 297 826 l 593 826 l 556 613 l 763 613 l 713 331 z "},",":{"ha":383,"x_min":29,"x_max":340,"o":"m 314 182 q 340 42 340 121 q 308 -118 340 -42 q 208 -243 276 -194 q 38 -292 140 -292 l 57 -183 q 117 -167 96 -183 q 147 -100 139 -150 l 150 -85 l 29 -85 l 76 182 l 314 182 z "},"-":{"ha":800,"x_min":82,"x_max":774,"o":"m 774 601 l 729 347 l 82 347 l 126 601 l 774 601 z "},".":{"ha":385,"x_min":13,"x_max":371,"o":"m 371 294 l 318 0 l 13 0 l 65 294 l 371 294 z "},"/":{"ha":554,"x_min":-192,"x_max":756,"o":"m 756 1326 l 104 -275 l -192 -275 l 461 1326 l 756 1326 z "},":":{"ha":461,"x_min":13,"x_max":465,"o":"m 465 838 l 414 543 l 108 543 l 160 838 l 465 838 m 369 294 l 318 0 l 13 0 l 64 294 l 369 294 z "},";":{"ha":601,"x_min":118,"x_max":532,"o":"m 532 824 l 479 529 l 174 529 l 226 824 l 532 824 m 403 182 q 429 42 429 121 q 397 -118 429 -42 q 297 -243 365 -194 q 126 -292 229 -292 l 146 -183 q 206 -167 185 -183 q 236 -100 228 -150 l 239 -85 l 118 -85 l 165 182 l 403 182 z "},"<":{"ha":690,"x_min":28,"x_max":715,"o":"m 225 174 l 28 472 l 331 772 l 715 772 l 413 472 l 610 174 l 225 174 z "},"=":{"ha":869,"x_min":-31,"x_max":900,"o":"m 900 806 l 851 526 l 38 526 l 86 806 l 900 806 m 832 417 l 783 138 l -31 138 l 18 417 l 832 417 z "},">":{"ha":690,"x_min":-25,"x_max":663,"o":"m 81 772 l 465 772 l 663 472 l 360 174 l -25 174 l 278 472 l 81 772 z "},"?":{"ha":747,"x_min":31,"x_max":768,"o":"m 476 1074 q 690 1015 611 1074 q 768 840 768 956 q 761 774 768 813 q 643 574 739 650 q 414 496 547 499 l 396 397 l 107 397 l 160 692 l 276 692 q 406 710 360 692 q 460 772 451 729 l 461 783 q 450 813 461 803 q 421 824 439 824 q 378 806 394 824 q 357 761 363 789 l 67 761 q 128 917 78 846 q 268 1031 179 989 q 476 1074 357 1074 m 388 294 l 336 0 l 31 0 l 82 294 l 388 294 z "},"@":{"ha":1879,"x_min":33,"x_max":1883,"o":"m 1196 1171 q 1700 1038 1517 1171 q 1883 647 1883 904 q 1871 510 1883 583 q 1757 250 1846 369 q 1543 61 1668 131 q 1292 -8 1418 -8 q 1119 36 1185 -8 q 1044 168 1054 81 q 911 37 985 82 q 738 -8 838 -8 q 564 58 628 -8 q 500 239 500 124 q 524 386 500 311 q 640 594 558 503 q 833 737 721 686 q 1072 788 946 788 q 1288 731 1207 788 q 1369 561 1369 674 q 1353 453 1369 514 l 1325 358 q 1314 301 1314 321 q 1326 269 1314 279 q 1361 260 1338 260 q 1438 285 1399 260 q 1509 365 1476 311 q 1556 499 1542 418 q 1563 582 1563 535 q 1445 831 1563 740 q 1104 921 1328 921 q 733 841 894 921 q 473 624 572 761 q 344 315 374 486 q 335 213 335 267 q 453 -53 335 43 q 822 -147 572 -150 l 721 -396 q 207 -245 381 -392 q 33 160 33 -99 q 47 315 33 238 q 269 781 96 588 q 687 1072 442 974 q 1196 1171 932 1171 m 896 260 q 982 289 939 260 q 1046 392 1025 318 q 1054 446 1054 417 q 1028 506 1054 489 q 969 522 1003 522 q 882 493 925 522 q 818 390 839 464 q 808 336 808 361 q 835 277 808 294 q 896 260 861 260 z "},"A":{"ha":1074,"x_min":-86,"x_max":988,"o":"m 640 149 l 313 149 l 238 0 l -86 0 l 446 983 l 801 983 l 988 0 l 663 0 l 640 149 m 606 381 l 565 654 l 428 381 l 606 381 z "},"B":{"ha":950,"x_min":-17,"x_max":940,"o":"m 935 728 q 864 583 919 642 q 731 504 808 524 q 842 435 803 486 q 881 315 881 383 q 876 269 881 293 q 756 70 853 140 q 499 0 658 0 l -17 0 l 156 983 l 657 983 q 866 932 792 983 q 940 781 940 881 q 935 728 940 764 m 610 668 q 613 688 613 682 q 540 739 613 739 l 421 739 l 397 600 l 517 600 q 581 617 558 600 q 610 668 604 633 m 569 315 q 571 333 571 322 q 500 386 571 386 l 360 386 l 335 247 l 475 247 q 541 263 518 247 q 569 315 564 279 z "},"C":{"ha":1046,"x_min":32,"x_max":1025,"o":"m 615 993 q 835 945 743 993 q 976 810 928 897 q 1024 606 1025 722 l 699 606 q 649 681 686 654 q 560 708 613 708 q 427 650 482 708 q 354 493 372 592 q 349 433 349 465 q 384 319 349 361 q 485 278 419 278 q 583 305 538 278 q 660 381 629 332 l 985 381 q 777 99 922 204 q 440 -7 632 -7 q 219 42 311 -7 q 80 178 128 90 q 32 383 32 267 q 42 493 32 439 q 146 753 67 639 q 346 930 225 867 q 615 993 467 993 z "},"D":{"ha":1032,"x_min":-17,"x_max":999,"o":"m 990 494 q 883 242 965 354 q 674 65 801 129 q 393 0 547 0 l -17 0 l 156 983 l 565 983 q 799 934 701 983 q 947 797 896 885 q 999 593 999 708 q 990 494 999 547 m 413 275 q 588 332 517 275 q 678 494 660 389 q 683 547 683 531 q 632 671 683 628 q 490 714 581 714 l 417 714 l 339 275 l 413 275 z "},"E":{"ha":772,"x_min":-17,"x_max":811,"o":"m 421 739 l 400 617 l 706 617 l 664 385 l 358 385 l 335 246 l 682 246 l 639 0 l -17 0 l 156 983 l 811 983 l 768 739 l 421 739 z "},"F":{"ha":799,"x_min":-17,"x_max":850,"o":"m 850 983 l 807 739 l 421 739 l 397 603 l 675 603 l 635 371 l 357 371 l 292 0 l -17 0 l 156 983 l 850 983 z "},"G":{"ha":1044,"x_min":32,"x_max":1025,"o":"m 626 993 q 842 949 753 993 q 976 826 931 904 q 1025 647 1021 747 l 700 647 q 657 692 688 676 q 579 708 626 708 q 431 651 490 708 q 354 493 372 593 q 347 426 347 454 q 393 304 347 344 q 535 264 439 264 q 722 350 642 264 l 476 350 l 515 568 l 1017 568 l 963 260 q 454 -7 797 -7 q 227 43 322 -7 q 82 184 132 93 q 32 396 32 275 q 42 507 32 453 q 147 759 67 649 q 351 931 226 869 q 626 993 475 993 z "},"H":{"ha":1049,"x_min":-17,"x_max":1065,"o":"m 1065 983 l 893 0 l 585 0 l 651 383 l 358 383 l 292 0 l -17 0 l 156 983 l 464 983 l 401 629 l 694 629 l 757 983 l 1065 983 z "},"I":{"ha":447,"x_min":-17,"x_max":464,"o":"m 464 983 l 292 0 l -17 0 l 156 983 l 464 983 z "},"J":{"ha":819,"x_min":-14,"x_max":843,"o":"m 843 983 l 731 349 q 592 81 700 172 q 317 -10 483 -10 q 74 65 163 -10 q -14 283 -14 139 q -6 376 -14 326 l 299 376 q 294 333 294 351 q 351 268 294 268 q 397 286 379 268 q 424 349 415 304 l 536 983 l 843 983 z "},"K":{"ha":1049,"x_min":-17,"x_max":1121,"o":"m 674 506 l 949 0 l 578 0 l 367 426 l 292 0 l -17 0 l 156 983 l 464 983 l 392 568 l 753 983 l 1121 983 l 674 506 z "},"L":{"ha":703,"x_min":-17,"x_max":629,"o":"m 332 233 l 629 233 l 589 0 l -17 0 l 156 983 l 464 983 l 332 233 z "},"M":{"ha":1321,"x_min":-17,"x_max":1338,"o":"m 1338 983 l 1165 0 l 858 0 l 944 492 l 707 0 l 443 0 l 378 490 l 292 0 l -17 0 l 156 983 l 533 983 l 647 394 l 961 983 l 1338 983 z "},"N":{"ha":1082,"x_min":-17,"x_max":1099,"o":"m 926 0 l 618 0 l 378 494 l 292 0 l -17 0 l 156 983 l 464 983 l 703 481 l 790 983 l 1099 983 l 926 0 z "},"O":{"ha":1072,"x_min":33,"x_max":1039,"o":"m 585 1000 q 828 945 725 1000 q 985 791 931 890 q 1039 561 1039 692 q 1028 440 1039 507 q 932 206 1004 308 q 747 47 860 104 q 490 -10 633 -10 q 243 44 346 -10 q 87 197 140 99 q 33 426 33 296 q 44 551 33 494 q 141 785 68 683 q 328 943 214 886 q 585 1000 442 1000 m 563 715 q 418 660 475 715 q 344 510 361 606 q 339 450 339 482 q 383 324 339 369 q 513 278 426 278 q 656 333 599 278 q 729 482 714 389 q 735 543 735 511 q 691 670 735 625 q 563 715 647 715 z "},"P":{"ha":901,"x_min":-17,"x_max":908,"o":"m 346 313 l 292 0 l -17 0 l 156 983 l 586 983 q 826 913 744 983 q 908 718 908 842 q 901 646 908 688 q 828 477 885 553 q 680 357 772 401 q 468 313 588 313 l 346 313 m 476 556 q 589 646 572 556 q 590 668 590 654 q 508 736 590 736 l 421 736 l 389 556 l 476 556 z "},"Q":{"ha":1072,"x_min":33,"x_max":1039,"o":"m 1028 440 q 947 228 1007 322 q 794 74 886 133 l 926 -160 l 563 -160 l 499 -10 l 490 -10 q 243 44 346 -10 q 87 197 140 99 q 33 426 33 296 q 44 551 33 494 q 141 785 68 683 q 328 943 214 886 q 585 1000 442 1000 q 828 945 725 1000 q 985 791 931 890 q 1039 561 1039 692 q 1028 440 1039 507 m 344 510 q 339 450 339 482 q 383 324 339 369 q 513 278 426 278 q 656 333 599 278 q 729 482 714 389 q 735 543 735 511 q 691 670 735 625 q 563 715 647 715 q 418 660 475 715 q 344 510 361 606 z "},"R":{"ha":931,"x_min":-17,"x_max":938,"o":"m 614 983 q 855 912 772 983 q 938 722 938 840 q 932 661 938 689 q 845 485 914 561 q 668 376 776 410 l 817 0 l 478 0 l 353 353 l 292 0 l -17 0 l 156 983 l 614 983 m 389 558 l 511 558 q 615 642 601 558 q 617 660 617 649 q 598 708 617 690 q 542 725 579 725 l 419 725 l 389 558 z "},"S":{"ha":863,"x_min":10,"x_max":843,"o":"m 790 249 q 726 117 778 176 q 589 24 674 58 q 396 -10 504 -10 q 113 75 214 -10 q 10 315 11 160 l 338 315 q 399 231 329 231 q 443 246 425 231 q 461 290 461 261 q 428 346 461 324 q 325 399 396 368 q 195 462 247 431 q 106 548 143 493 q 68 685 68 603 q 75 756 68 714 q 205 936 96 872 q 463 1000 314 1000 q 746 917 653 1000 q 843 682 839 833 l 511 682 q 461 760 518 760 q 423 745 439 760 q 407 703 407 731 q 438 652 407 672 q 538 604 469 632 q 669 542 617 572 q 759 458 721 513 q 797 319 797 403 q 790 249 797 290 z "},"T":{"ha":856,"x_min":57,"x_max":928,"o":"m 928 983 l 885 739 l 624 739 l 494 0 l 186 0 l 315 739 l 57 739 l 100 983 l 928 983 z "},"U":{"ha":999,"x_min":44,"x_max":1022,"o":"m 458 983 l 361 429 q 357 383 357 407 q 382 309 357 336 q 461 282 407 282 q 567 322 528 282 q 618 429 606 361 l 715 983 l 1022 983 l 925 429 q 824 190 900 289 q 638 40 747 90 q 403 -10 528 -10 q 141 76 238 -10 q 44 324 44 163 q 54 429 44 376 l 151 983 l 458 983 z "},"V":{"ha":1060,"x_min":86,"x_max":1146,"o":"m 414 983 l 499 307 l 818 983 l 1146 983 l 643 0 l 244 0 l 86 983 l 414 983 z "},"W":{"ha":1528,"x_min":128,"x_max":1572,"o":"m 1572 983 l 1175 0 l 792 0 l 775 558 l 564 0 l 181 0 l 128 983 l 460 983 l 440 364 l 682 983 l 1018 983 l 1042 364 l 1240 983 l 1572 983 z "},"X":{"ha":1061,"x_min":-72,"x_max":1121,"o":"m 717 486 l 975 0 l 610 0 l 474 256 l 279 0 l -72 0 l 340 507 l 86 983 l 451 983 l 582 738 l 769 983 l 1121 983 l 717 486 z "},"Y":{"ha":1014,"x_min":86,"x_max":1100,"o":"m 1100 983 l 626 299 l 575 0 l 267 0 l 318 299 l 86 983 l 439 983 l 535 635 l 753 983 l 1100 983 z "},"Z":{"ha":875,"x_min":-17,"x_max":892,"o":"m 368 246 l 763 246 l 719 0 l -17 0 l 24 232 l 501 739 l 113 739 l 156 983 l 892 983 l 851 751 l 368 246 z "},"[":{"ha":740,"x_min":-10,"x_max":804,"o":"m 804 1326 l 760 1079 l 518 1079 l 324 -29 l 565 -29 l 521 -276 l -10 -276 l 274 1326 l 804 1326 z "},"\\":{"ha":1219,"x_min":419,"x_max":764,"o":"m 469 -275 l 419 1326 l 714 1326 l 764 -275 l 469 -275 z "},"]":{"ha":736,"x_min":-67,"x_max":747,"o":"m -67 -276 l -22 -29 l 221 -29 l 415 1079 l 172 1079 l 217 1326 l 747 1326 l 464 -276 l -67 -276 z "},"^":{"ha":1053,"x_min":-32,"x_max":951,"o":"m 274 225 l -32 225 l 443 988 l 746 988 l 951 225 l 646 225 l 533 639 l 274 225 z "},"_":{"ha":1019,"x_min":-42,"x_max":949,"o":"m 949 -58 l 896 -358 l -42 -358 l 11 -58 l 949 -58 z "},"`":{"ha":450,"x_min":89,"x_max":461,"o":"m 461 1042 l 425 836 l 89 967 l 129 1194 l 461 1042 z "},"a":{"ha":949,"x_min":21,"x_max":949,"o":"m 413 793 q 549 762 494 793 q 622 676 603 731 l 642 783 l 949 783 l 810 0 l 503 0 l 522 107 q 422 22 483 53 q 285 -10 361 -10 q 91 72 161 -10 q 21 299 21 153 q 32 419 21 350 q 109 619 53 535 q 245 749 165 704 q 413 793 325 793 m 482 524 q 394 489 432 524 q 344 392 356 454 q 342 358 342 379 q 367 285 342 311 q 435 260 392 260 q 523 294 485 260 q 572 392 561 329 q 575 425 575 404 q 550 498 575 472 q 482 524 525 524 z "},"b":{"ha":947,"x_min":0,"x_max":926,"o":"m 0 0 l 182 1028 l 490 1028 l 428 676 q 527 762 467 731 q 664 793 588 793 q 854 714 782 793 q 926 494 926 635 q 917 392 926 442 q 836 177 894 268 q 696 38 778 86 q 522 -10 614 -10 q 397 22 446 -10 q 328 107 347 53 l 308 0 l 0 0 m 467 260 q 555 294 517 260 q 604 392 593 329 q 607 425 607 404 q 582 498 607 472 q 514 524 557 524 q 426 489 464 524 q 376 392 388 454 q 374 358 374 379 q 399 285 374 311 q 467 260 424 260 z "},"c":{"ha":856,"x_min":21,"x_max":835,"o":"m 488 793 q 740 707 646 793 q 835 468 833 621 l 508 468 q 447 529 499 529 q 383 494 410 529 q 343 392 356 460 q 338 340 338 353 q 354 276 338 297 q 400 254 371 254 q 481 315 453 254 l 807 315 q 633 76 753 163 q 360 -10 513 -10 q 113 78 206 -10 q 21 321 21 167 q 31 419 21 358 q 116 618 51 533 q 277 748 181 703 q 488 793 374 793 z "},"d":{"ha":939,"x_min":21,"x_max":990,"o":"m 990 1028 l 808 0 l 500 0 l 519 107 q 420 22 481 53 q 283 -10 360 -10 q 93 74 165 -10 q 21 307 21 158 q 31 419 21 363 q 108 619 51 535 q 244 749 164 704 q 411 793 324 793 q 547 762 493 793 q 619 676 600 731 l 682 1028 l 990 1028 m 481 524 q 392 489 431 524 q 343 392 354 454 q 340 358 340 379 q 365 285 340 311 q 433 260 390 260 q 522 294 483 260 q 571 392 560 329 q 574 425 574 404 q 549 498 574 472 q 481 524 524 524 z "},"e":{"ha":857,"x_min":21,"x_max":836,"o":"m 497 793 q 744 710 653 793 q 836 485 836 628 q 828 399 836 444 q 810 338 819 361 l 318 338 q 317 310 317 328 q 334 252 317 268 q 383 236 351 236 q 464 282 435 236 l 790 282 q 626 72 742 153 q 356 -10 510 -10 q 111 76 201 -10 q 21 313 21 161 q 29 407 21 357 q 117 613 50 525 q 282 747 183 700 q 497 793 381 793 m 526 464 q 528 485 528 471 q 507 535 528 518 q 454 551 486 551 q 342 464 371 551 l 526 464 z "},"f":{"ha":535,"x_min":0,"x_max":618,"o":"m 571 839 q 538 842 546 842 q 481 828 501 842 q 449 783 460 814 l 561 783 l 517 526 l 401 526 l 308 0 l 0 0 l 92 526 l 10 526 l 54 783 l 138 783 q 276 1020 167 936 q 554 1104 385 1104 q 618 1101 574 1104 l 571 839 z "},"g":{"ha":943,"x_min":-25,"x_max":949,"o":"m 285 -10 q 94 74 167 -10 q 22 307 22 158 q 32 419 22 363 q 109 619 53 535 q 245 749 165 704 q 413 793 325 793 q 549 762 494 793 q 622 676 603 731 l 642 783 l 949 783 l 813 14 q 669 -272 782 -158 q 356 -385 556 -385 q 73 -297 171 -385 q -25 -57 -25 -210 l 278 -57 q 367 -118 281 -118 q 456 -90 421 -118 q 506 14 492 -62 l 522 107 q 422 22 483 53 q 285 -10 361 -10 m 482 524 q 394 489 432 524 q 344 392 356 454 q 342 358 342 379 q 367 285 342 311 q 435 260 392 260 q 523 294 485 260 q 572 392 561 329 q 575 425 575 404 q 550 498 575 472 q 482 524 525 524 z "},"h":{"ha":967,"x_min":0,"x_max":922,"o":"m 688 789 q 861 724 800 789 q 922 543 922 658 q 914 454 922 503 l 835 0 l 528 0 l 600 415 q 603 446 603 438 q 579 513 603 489 q 513 536 556 536 q 431 508 465 536 q 383 431 397 481 l 308 0 l 0 0 l 181 1028 l 489 1028 l 425 665 q 539 755 472 721 q 688 789 606 789 z "},"i":{"ha":444,"x_min":0,"x_max":510,"o":"m 150 972 q 177 1062 150 1021 q 252 1127 204 1103 q 358 1151 300 1151 q 469 1116 429 1151 q 510 1025 510 1081 q 483 935 510 976 q 410 870 457 894 q 304 846 363 846 q 191 881 232 846 q 150 972 150 917 m 446 783 l 308 0 l 0 0 l 138 783 l 446 783 z "},"j":{"ha":444,"x_min":-176,"x_max":518,"o":"m 313 846 q 199 881 240 846 q 158 972 158 917 q 185 1062 158 1021 q 260 1127 213 1103 q 367 1151 308 1151 q 478 1116 438 1151 q 518 1025 518 1081 q 492 935 518 976 q 418 870 465 894 q 313 846 371 846 m -131 -112 l -71 -112 q -25 -100 -40 -112 q -4 -60 -10 -87 l 144 783 l 453 783 l 304 -54 q -74 -375 249 -375 l -176 -375 l -131 -112 z "},"k":{"ha":939,"x_min":0,"x_max":1000,"o":"m 636 400 l 854 0 l 501 0 l 365 324 l 308 0 l 0 0 l 181 1028 l 489 1028 l 396 500 l 642 783 l 1000 783 l 636 400 z "},"l":{"ha":440,"x_min":0,"x_max":489,"o":"m 489 1028 l 308 0 l 0 0 l 181 1028 l 489 1028 z "},"m":{"ha":1494,"x_min":0,"x_max":1449,"o":"m 1185 789 q 1381 722 1313 789 q 1449 536 1449 654 q 1442 454 1449 490 l 1361 0 l 1054 0 l 1128 415 q 1129 438 1129 424 q 1105 500 1129 478 q 1036 522 1081 522 q 953 495 986 522 q 910 421 919 468 l 835 0 l 528 0 l 601 415 q 603 438 603 424 q 578 500 603 478 q 510 522 554 522 q 424 494 458 522 q 382 415 390 465 l 382 422 l 308 0 l 0 0 l 138 783 l 446 783 l 428 676 q 532 758 469 726 q 674 789 594 789 q 817 752 758 789 q 903 647 876 715 q 1030 749 957 710 q 1185 789 1103 789 z "},"n":{"ha":968,"x_min":0,"x_max":924,"o":"m 688 789 q 863 723 801 789 q 924 540 924 657 q 915 454 924 500 l 835 0 l 528 0 l 601 415 q 604 444 604 435 q 580 512 604 488 q 513 536 556 536 q 426 503 461 536 q 382 415 392 471 l 382 422 l 308 0 l 0 0 l 138 783 l 446 783 l 425 664 q 538 754 472 719 q 688 789 604 789 z "},"o":{"ha":886,"x_min":21,"x_max":865,"o":"m 506 793 q 693 753 611 793 q 820 636 775 713 q 865 456 865 560 q 857 364 865 413 q 769 165 836 250 q 601 35 701 81 q 386 -10 501 -10 q 195 31 278 -10 q 67 149 113 72 q 21 329 21 225 q 29 419 21 372 q 118 618 50 533 q 288 748 186 703 q 506 793 389 793 m 467 526 q 389 492 424 526 q 342 392 354 458 q 338 351 338 369 q 360 281 338 304 q 419 257 382 257 q 497 291 463 257 q 544 392 532 325 q 549 432 549 413 q 526 503 549 479 q 467 526 503 526 z "},"p":{"ha":946,"x_min":-67,"x_max":925,"o":"m 663 793 q 853 714 781 793 q 925 494 925 635 q 915 392 925 442 q 835 177 893 268 q 694 38 776 86 q 521 -10 613 -10 q 395 22 444 -10 q 326 107 346 53 l 242 -375 l -67 -375 l 138 783 l 446 783 l 426 676 q 526 762 465 731 q 663 793 586 793 m 465 260 q 553 294 515 260 q 603 392 592 329 q 606 425 606 404 q 581 498 606 472 q 513 524 556 524 q 424 489 463 524 q 375 392 386 454 q 372 358 372 379 q 397 285 372 311 q 465 260 422 260 z "},"q":{"ha":938,"x_min":21,"x_max":947,"o":"m 947 783 l 743 -375 l 436 -375 l 518 86 q 417 15 467 38 q 307 -8 367 -8 q 97 77 172 -8 q 21 308 21 163 q 31 414 21 361 q 111 618 50 533 q 257 746 172 703 q 433 789 342 789 q 549 772 501 789 q 628 714 597 754 l 640 783 l 947 783 m 481 522 q 397 488 439 522 q 343 386 354 454 q 340 354 340 374 q 369 282 340 304 q 435 260 397 260 q 519 292 478 260 q 571 392 560 324 q 574 425 574 404 q 545 499 574 475 q 481 522 517 522 z "},"r":{"ha":649,"x_min":0,"x_max":704,"o":"m 421 639 q 556 748 481 707 q 704 789 631 789 l 646 460 l 558 460 q 424 429 471 460 q 365 321 378 399 l 308 0 l 0 0 l 138 783 l 446 783 l 421 639 z "},"s":{"ha":804,"x_min":7,"x_max":788,"o":"m 414 793 q 681 716 589 793 q 788 513 774 639 l 486 513 q 388 579 479 579 q 344 572 360 579 q 328 547 328 565 q 358 516 328 528 q 451 489 388 504 q 601 444 542 467 q 706 374 661 421 q 751 250 751 326 q 746 199 751 222 q 635 48 728 106 q 385 -10 543 -10 q 118 63 219 -10 q 7 271 17 136 l 308 271 q 335 218 306 233 q 410 203 364 203 q 469 233 463 203 q 445 268 474 256 q 347 296 417 281 q 201 338 260 315 q 97 406 142 360 q 53 529 53 453 q 58 582 53 546 q 165 733 74 674 q 414 793 257 793 z "},"t":{"ha":606,"x_min":28,"x_max":607,"o":"m 396 315 q 394 301 394 310 q 444 263 394 263 l 518 263 l 471 0 l 354 0 q 81 232 81 0 q 89 321 81 274 l 125 526 l 28 526 l 74 783 l 171 783 l 204 972 l 513 972 l 479 783 l 607 783 l 561 526 l 433 526 l 396 315 z "},"u":{"ha":954,"x_min":31,"x_max":954,"o":"m 954 783 l 817 0 l 508 0 l 529 119 q 416 29 482 64 q 267 -6 350 -6 q 92 60 153 -6 q 31 243 31 126 q 39 329 31 283 l 119 783 l 426 783 l 353 368 q 350 339 350 349 q 374 272 350 296 q 442 247 399 247 q 528 280 493 247 q 572 368 563 313 l 572 361 l 646 783 l 954 783 z "},"v":{"ha":890,"x_min":40,"x_max":947,"o":"m 407 293 l 619 783 l 947 783 l 547 0 l 163 0 l 40 783 l 368 783 l 407 293 z "},"w":{"ha":1226,"x_min":40,"x_max":1300,"o":"m 1300 783 l 975 0 l 628 0 l 611 442 l 433 0 l 86 0 l 40 783 l 346 783 l 328 307 l 513 783 l 842 783 l 864 301 l 1015 783 l 1300 783 z "},"x":{"ha":900,"x_min":-83,"x_max":957,"o":"m 614 381 l 831 0 l 486 0 l 386 176 l 256 0 l -83 0 l 253 413 l 42 783 l 386 783 l 486 606 l 618 783 l 957 783 l 614 381 z "},"y":{"ha":926,"x_min":-43,"x_max":1001,"o":"m 376 783 l 453 386 l 661 783 l 1001 783 l 294 -375 l -43 -375 l 228 39 l 33 783 l 376 783 z "},"z":{"ha":719,"x_min":-42,"x_max":747,"o":"m 342 256 l 668 256 l 622 0 l -42 0 l 1 242 l 350 528 l 56 528 l 101 783 l 747 783 l 704 542 l 342 256 z "},"{":{"ha":713,"x_min":43,"x_max":810,"o":"m 343 515 q 434 473 404 504 q 464 385 464 442 q 460 336 464 364 q 426 206 451 294 q 392 72 401 129 q 382 -29 382 19 q 421 -190 382 -128 q 525 -279 460 -253 l 521 -301 l 206 -301 q 115 -213 158 -279 q 72 -32 72 -147 q 82 76 72 19 q 118 211 90 129 q 134 265 122 224 q 153 344 146 306 q 156 371 156 361 q 128 440 156 413 q 43 467 101 467 l 60 567 q 167 601 131 567 q 214 689 204 636 q 225 818 222 736 q 238 957 228 906 q 306 1154 258 1074 q 404 1276 354 1235 q 494 1335 454 1318 l 810 1335 l 806 1313 q 642 1192 713 1279 q 547 961 572 1104 q 536 829 539 904 q 533 778 536 819 q 524 697 531 736 q 467 575 510 617 q 343 518 424 533 l 343 515 z "},"|":{"ha":364,"x_min":-92,"x_max":456,"o":"m 217 -200 l -92 -200 l 147 1150 l 456 1150 l 217 -200 z "},"}":{"ha":679,"x_min":-94,"x_max":671,"o":"m 372 518 q 278 558 308 531 q 247 635 247 585 q 250 669 247 657 q 283 799 257 710 q 319 933 311 883 q 329 1035 329 994 q 291 1213 329 1139 q 190 1313 253 1288 l 194 1335 l 508 1335 q 599 1247 556 1313 q 642 1065 642 1181 q 632 957 642 1014 q 596 822 624 904 q 580 769 592 810 q 561 689 568 728 q 558 661 558 672 q 582 593 558 621 q 653 565 606 565 l 671 567 l 654 467 q 633 468 647 468 q 543 431 578 468 q 500 344 508 393 q 489 215 492 297 q 476 76 486 128 q 408 -121 456 -40 q 310 -243 360 -201 q 219 -301 260 -285 l -94 -301 l -90 -279 q 22 -204 -32 -258 q 116 -71 76 -150 q 172 100 156 8 q 181 181 179 139 q 185 233 183 222 q 197 364 188 308 q 251 466 208 431 q 372 515 293 501 l 372 518 z "},"~":{"ha":988,"x_min":-4,"x_max":992,"o":"m 386 618 q 475 603 436 618 q 560 563 514 589 q 617 534 596 543 q 663 525 639 525 q 723 547 700 525 q 761 621 746 569 l 992 621 q 828 343 929 432 q 600 254 726 254 q 513 269 550 254 q 428 310 475 283 q 369 338 392 329 q 324 347 347 347 q 263 325 286 347 q 224 251 240 303 l -4 251 q 160 529 60 440 q 386 618 260 618 z "}," ":{"ha":236,"x_min":0,"x_max":0,"o":""},"¡":{"ha":643,"x_min":29,"x_max":567,"o":"m 30 -256 l 192 403 l 471 403 l 386 -256 l 30 -256 m 187 499 l 243 793 l 567 793 l 511 499 l 187 499 z "},"¢":{"ha":804,"x_min":21,"x_max":792,"o":"m 439 468 q 362 438 392 468 q 322 351 332 407 q 319 317 319 339 q 397 236 319 236 q 447 249 422 236 q 483 285 472 261 l 765 285 q 639 85 736 161 q 415 -7 542 10 l 396 -115 l 269 -115 l 289 -8 q 91 78 161 7 q 21 271 21 149 q 28 353 21 317 q 158 602 56 510 q 415 710 261 694 l 433 818 l 560 818 l 542 710 q 722 631 651 696 q 792 457 792 565 q 789 419 792 444 l 507 419 q 482 457 501 446 q 439 468 463 468 z "},"£":{"ha":915,"x_min":8,"x_max":918,"o":"m 632 738 q 571 821 636 821 q 482 725 499 821 q 479 689 479 703 q 488 585 479 660 l 721 585 l 685 381 l 475 381 q 364 229 440 283 l 829 229 l 786 -8 l 19 -8 l 8 136 q 124 244 82 186 q 188 381 167 301 l 44 381 l 81 585 l 188 585 q 185 647 185 624 q 194 761 185 704 q 333 988 219 906 q 604 1071 446 1071 q 839 994 760 1071 q 918 790 918 918 q 915 738 918 774 l 632 738 z "},"¤":{"ha":838,"x_min":44,"x_max":793,"o":"m 711 682 q 743 572 743 635 q 739 526 743 551 q 658 372 722 436 l 715 304 l 583 192 l 507 286 q 376 268 449 268 q 247 288 306 268 l 135 192 l 44 304 l 129 376 q 101 479 101 421 q 106 526 101 501 q 183 678 122 617 l 122 751 l 254 864 l 338 763 q 467 779 399 779 q 586 764 529 779 l 703 864 l 793 751 l 711 682 m 340 524 q 339 506 339 517 q 358 459 339 474 q 407 444 376 444 q 475 469 446 444 q 504 546 504 494 q 485 591 504 576 q 436 606 467 606 q 375 586 401 606 q 340 524 349 567 z "},"¥":{"ha":1014,"x_min":18,"x_max":1100,"o":"m 854 628 l 961 628 l 926 428 l 715 428 l 681 378 l 918 378 l 882 178 l 606 178 l 575 0 l 267 0 l 297 178 l 18 178 l 54 378 l 292 378 l 274 428 l 63 428 l 97 628 l 207 628 l 86 983 l 439 983 l 526 589 l 753 983 l 1100 983 l 854 628 z "},"¦":{"ha":600,"x_min":26,"x_max":574,"o":"m 265 1150 l 574 1150 l 468 553 l 160 553 l 265 1150 m 335 -200 l 26 -200 l 132 399 l 440 399 l 335 -200 z "},"§":{"ha":826,"x_min":7,"x_max":819,"o":"m 514 713 q 517 746 517 738 q 494 788 517 788 q 474 776 482 788 q 465 742 465 764 q 503 680 465 710 q 644 593 540 650 q 801 374 801 497 q 799 339 801 364 q 749 226 788 275 q 629 140 710 176 q 678 -10 678 74 q 674 -61 678 -36 q 551 -253 653 -181 q 288 -326 449 -326 q 78 -258 150 -326 q 7 -74 7 -189 q 8 -35 7 -47 l 313 -35 q 310 -68 310 -60 q 332 -110 310 -110 q 353 -99 344 -110 q 361 -64 361 -87 q 324 -2 361 -32 q 182 86 288 28 q 26 303 26 175 q 29 339 26 326 q 197 539 54 483 q 149 688 149 603 q 153 739 149 714 q 276 931 174 858 q 539 1004 378 1004 q 748 935 676 1004 q 819 751 819 867 q 818 713 819 725 l 514 713 m 472 363 q 431 415 472 415 q 378 387 400 415 q 357 317 357 358 q 399 263 357 263 q 451 292 431 263 q 472 363 472 321 z "},"¨":{"ha":579,"x_min":94,"x_max":651,"o":"m 94 957 q 137 1058 94 1017 q 236 1100 179 1100 q 310 1073 282 1100 q 339 1003 339 1046 q 296 903 339 944 q 194 861 253 861 q 123 888 151 861 q 94 957 94 915 m 407 957 q 449 1058 407 1017 q 549 1100 492 1100 q 623 1073 594 1100 q 651 1003 651 1046 q 608 903 651 944 q 507 861 565 861 q 435 888 464 861 q 407 957 407 915 z "},"©":{"ha":1071,"x_min":32,"x_max":1039,"o":"m 625 1000 q 357 936 481 1000 q 151 758 233 872 q 42 497 68 643 q 32 393 32 447 q 83 183 32 274 q 227 42 133 92 q 447 -8 321 -8 q 715 56 592 -8 q 922 236 839 121 q 1029 497 1004 351 q 1039 604 1039 550 q 989 812 1039 722 q 845 951 939 901 q 625 1000 751 1000 m 610 910 q 854 826 767 910 q 942 594 942 742 q 933 497 942 547 q 846 278 911 372 q 682 133 781 185 q 463 82 583 82 q 217 167 304 82 q 131 400 131 253 q 139 497 131 447 q 226 715 161 622 q 389 859 290 808 q 610 910 488 910 m 596 803 q 728 772 669 803 q 817 685 786 742 q 846 553 849 628 l 590 553 q 546 601 585 601 q 465 496 483 601 q 461 456 461 474 q 510 390 461 390 q 571 439 549 390 l 826 439 q 695 257 789 325 q 488 189 601 189 q 293 253 364 189 q 222 429 222 317 q 228 496 222 464 q 353 719 253 636 q 596 803 454 803 z "},"ª":{"ha":640,"x_min":22,"x_max":683,"o":"m 300 989 q 390 971 356 989 q 443 914 424 953 l 456 983 l 683 983 l 597 493 l 369 493 l 382 561 q 308 504 347 522 q 214 486 269 486 q 75 535 128 486 q 22 675 22 585 q 28 736 22 707 q 124 922 49 856 q 300 989 200 989 m 350 808 q 288 784 314 808 q 261 719 261 760 q 278 681 261 693 q 325 668 296 668 q 388 690 361 668 q 414 753 414 713 q 396 794 414 779 q 350 808 378 808 z "},"«":{"ha":858,"x_min":63,"x_max":846,"o":"m 126 167 l 63 410 l 213 653 l 492 653 l 339 410 l 406 167 l 126 167 m 481 167 l 417 410 l 567 653 l 846 653 l 693 410 l 760 167 l 481 167 z "},"¬":{"ha":1103,"x_min":25,"x_max":1049,"o":"m 1049 622 l 976 215 l 668 215 l 700 392 l 25 392 l 65 622 l 1049 622 z "},"­":{"ha":800,"x_min":82,"x_max":774,"o":"m 774 601 l 729 347 l 82 347 l 126 601 l 774 601 z "},"®":{"ha":1138,"x_min":33,"x_max":1106,"o":"m 658 1000 q 896 950 794 1000 q 1051 809 997 900 q 1106 599 1106 718 q 1096 497 1106 558 q 984 235 1071 350 q 766 56 897 121 q 481 -8 635 -8 q 242 42 343 -8 q 88 185 142 93 q 33 399 33 278 q 42 497 33 446 q 155 758 68 643 q 372 936 242 872 q 658 1000 503 1000 m 1000 497 q 1008 588 1008 546 q 912 824 1008 738 q 643 910 815 910 q 405 859 511 910 q 230 715 299 808 q 139 497 161 622 q 131 407 131 450 q 226 169 131 257 q 496 82 322 82 q 733 133 626 82 q 909 278 840 185 q 1000 497 978 372 m 660 793 q 804 751 758 793 q 850 644 850 710 q 813 526 850 582 q 703 443 775 469 l 790 213 l 588 213 l 519 404 l 486 213 l 299 213 l 401 793 l 660 793 m 544 542 l 596 542 q 653 592 653 542 q 610 624 653 624 l 558 624 l 544 542 z "},"¯":{"ha":626,"x_min":79,"x_max":714,"o":"m 714 1068 l 678 864 l 79 864 l 115 1068 l 714 1068 z "},"°":{"ha":689,"x_min":28,"x_max":661,"o":"m 390 993 q 589 940 517 993 q 661 790 661 886 q 657 740 661 765 q 542 551 636 621 q 307 482 447 482 q 103 539 179 482 q 28 694 28 596 q 32 740 28 718 q 151 926 54 858 q 390 993 247 993 m 364 833 q 303 810 332 833 q 267 738 275 786 q 264 715 264 721 q 285 663 264 681 q 335 644 307 644 q 389 667 364 644 q 422 738 414 690 q 425 764 425 757 q 407 817 425 800 q 364 833 389 833 z "},"±":{"ha":765,"x_min":-24,"x_max":796,"o":"m 540 478 l 529 413 l 735 413 l 686 133 l -24 133 l 25 413 l 233 413 l 244 478 l 38 478 l 86 757 l 293 757 l 314 875 l 610 875 l 589 757 l 796 757 l 747 478 l 540 478 z "},"²":{"ha":586,"x_min":22,"x_max":579,"o":"m 382 996 q 531 958 483 996 q 579 868 579 921 q 528 768 579 810 q 356 683 478 726 l 296 663 l 532 663 l 501 489 l 22 489 l 51 658 l 257 756 q 335 826 328 789 q 324 838 335 838 q 290 790 300 838 l 64 790 q 172 939 88 882 q 382 996 257 996 z "},"³":{"ha":560,"x_min":4,"x_max":543,"o":"m 335 996 q 489 962 435 996 q 543 871 543 928 q 542 849 543 856 q 419 746 525 763 l 418 740 q 494 706 471 728 q 517 650 517 685 q 515 628 517 636 q 433 522 503 558 q 251 485 363 485 q 60 526 117 485 q 4 644 4 567 q 6 669 4 661 l 244 669 q 243 657 243 664 q 258 642 243 642 q 282 671 276 642 q 283 683 283 675 q 251 706 283 706 l 210 706 l 222 781 l 251 781 q 281 789 271 781 q 294 817 290 797 l 294 824 q 282 840 294 840 q 256 801 261 840 l 39 801 q 124 940 53 883 q 335 996 196 996 z "},"´":{"ha":388,"x_min":65,"x_max":489,"o":"m 449 967 l 65 836 l 101 1042 l 489 1194 l 449 967 z "},"µ":{"ha":974,"x_min":-68,"x_max":972,"o":"m 972 783 l 833 0 l 525 0 l 544 107 q 442 27 503 58 q 306 -6 381 -4 l 239 -375 l -68 -375 l 138 783 l 444 783 l 371 369 q 369 346 369 361 q 394 283 369 306 q 461 261 418 261 q 547 290 513 261 q 590 369 582 319 l 590 367 l 664 783 l 972 783 z "},"¶":{"ha":1081,"x_min":57,"x_max":1063,"o":"m 890 0 l 644 0 l 776 753 l 696 753 l 564 0 l 319 0 l 383 368 l 340 368 q 126 438 194 368 q 57 614 57 507 q 63 675 57 647 q 123 826 76 756 q 252 940 169 896 q 449 983 335 983 l 1063 983 l 890 0 z "},"·":{"ha":425,"x_min":32,"x_max":390,"o":"m 390 565 l 338 271 l 32 271 l 85 565 l 390 565 z "},"¸":{"ha":476,"x_min":-21,"x_max":461,"o":"m 308 -37 q 413 -69 365 -37 q 461 -171 461 -101 q 458 -207 461 -194 q 372 -337 442 -297 q 219 -376 303 -376 l -21 -376 l 7 -219 l 215 -219 q 243 -213 232 -219 q 256 -197 254 -207 l 256 -193 q 224 -176 256 -176 l 106 -176 l 139 10 l 317 10 l 308 -37 z "},"¹":{"ha":396,"x_min":40,"x_max":390,"o":"m 40 801 l 71 978 l 390 978 l 304 489 l 76 489 l 132 801 l 40 801 z "},"º":{"ha":625,"x_min":24,"x_max":629,"o":"m 371 985 q 561 928 493 985 q 629 779 629 872 q 625 735 629 758 q 566 606 613 664 q 446 515 519 549 q 282 482 372 482 q 92 540 160 482 q 24 690 24 599 q 28 735 24 713 q 87 863 40 807 q 206 952 133 919 q 371 985 279 985 m 340 811 q 289 792 311 811 q 260 735 267 772 q 257 714 257 718 q 272 672 257 686 q 313 657 288 657 q 364 677 342 657 q 393 735 386 697 q 396 756 396 751 q 381 797 396 783 q 340 811 365 811 z "},"»":{"ha":858,"x_min":26,"x_max":810,"o":"m 181 410 l 113 653 l 393 653 l 456 410 l 307 167 l 26 167 l 181 410 m 535 410 l 467 653 l 747 653 l 810 410 l 661 167 l 381 167 l 535 410 z "},"¼":{"ha":1249,"x_min":15,"x_max":1168,"o":"m 1064 983 l 353 0 l 51 0 l 764 983 l 1064 983 m 15 801 l 46 978 l 365 978 l 279 489 l 51 489 l 107 801 l 15 801 m 1144 81 l 1096 81 l 1082 0 l 853 0 l 867 81 l 585 81 l 606 197 l 853 488 l 1168 488 l 1118 203 l 1167 203 l 1144 81 m 926 347 l 821 210 l 903 210 l 926 347 z "},"½":{"ha":1289,"x_min":57,"x_max":1217,"o":"m 1090 988 l 364 0 l 63 0 l 790 988 l 1090 988 m 149 801 l 57 801 l 88 978 l 407 978 l 321 489 l 93 489 l 149 801 m 1019 506 q 1169 468 1121 506 q 1217 378 1217 431 q 1166 278 1217 319 q 993 193 1115 236 l 933 172 l 1169 172 l 1139 -1 l 660 -1 l 689 168 l 894 265 q 972 336 965 299 q 961 347 972 347 q 928 300 938 347 l 701 300 q 810 449 725 392 q 1019 506 894 506 z "},"¾":{"ha":1422,"x_min":46,"x_max":1351,"o":"m 376 996 q 531 962 476 996 q 585 871 585 928 q 583 849 585 856 q 461 746 567 763 l 460 740 q 535 706 513 728 q 558 650 558 685 q 557 628 558 636 q 474 522 544 558 q 293 485 404 485 q 102 526 158 485 q 46 644 46 567 q 47 669 46 661 l 286 669 q 285 657 285 664 q 300 642 285 642 q 324 671 318 642 q 325 683 325 675 q 293 706 325 706 l 251 706 l 264 781 l 293 781 q 322 789 313 781 q 336 817 332 797 l 336 824 q 324 840 336 840 q 297 801 303 840 l 81 801 q 166 940 94 883 q 376 996 238 996 m 1221 988 l 533 0 l 233 0 l 919 988 l 1221 988 m 1328 81 l 1279 81 l 1265 0 l 1038 0 l 1051 81 l 768 81 l 789 197 l 1008 488 l 1351 488 l 1301 203 l 1350 203 l 1328 81 m 1115 375 l 1004 203 l 1086 203 l 1115 375 z "},"¿":{"ha":749,"x_min":-15,"x_max":722,"o":"m 276 -278 q 63 -219 142 -278 q -15 -44 -15 -160 q -8 22 -15 -17 q 110 222 14 146 q 339 300 206 297 l 357 399 l 646 399 l 593 104 l 476 104 q 347 85 393 104 q 293 24 301 67 l 292 13 q 303 -17 292 -7 q 332 -28 314 -28 q 374 -10 358 -28 q 396 35 390 7 l 686 35 q 624 -122 675 -50 q 485 -235 574 -193 q 276 -278 396 -278 m 365 501 l 417 796 l 722 796 l 671 501 l 365 501 z "},"À":{"ha":1074,"x_min":-85,"x_max":989,"o":"m 642 149 l 314 149 l 239 0 l -85 0 l 447 983 l 803 983 l 989 0 l 664 0 l 642 149 m 607 381 l 567 654 l 429 381 l 607 381 m 842 1242 l 806 1036 l 469 1167 l 510 1394 l 842 1242 z "},"Á":{"ha":1074,"x_min":-85,"x_max":989,"o":"m 642 149 l 314 149 l 239 0 l -85 0 l 447 983 l 803 983 l 989 0 l 664 0 l 642 149 m 607 381 l 567 654 l 429 381 l 607 381 m 828 1167 l 444 1036 l 481 1242 l 868 1394 l 828 1167 z "},"Â":{"ha":1074,"x_min":-79,"x_max":994,"o":"m 647 149 l 319 149 l 244 0 l -79 0 l 453 983 l 808 983 l 994 0 l 669 0 l 647 149 m 613 381 l 572 654 l 435 381 l 613 381 m 656 1144 l 404 1022 l 439 1222 l 690 1340 l 899 1222 l 864 1022 l 656 1144 z "},"Ã":{"ha":1074,"x_min":-76,"x_max":1006,"o":"m 650 149 l 322 149 l 247 0 l -76 0 l 456 983 l 811 983 l 997 0 l 672 0 l 650 149 m 615 381 l 575 654 l 438 381 l 615 381 m 592 1294 q 651 1285 625 1294 q 710 1257 678 1275 q 750 1237 736 1243 q 781 1231 764 1231 q 854 1296 832 1231 l 1006 1296 q 894 1110 960 1167 q 739 1053 828 1053 q 679 1063 706 1053 q 621 1090 653 1072 q 601 1101 617 1093 q 574 1112 586 1108 q 550 1115 561 1115 q 475 1050 499 1115 l 325 1050 q 437 1237 371 1179 q 592 1294 503 1294 z "},"Ä":{"ha":1074,"x_min":-76,"x_max":997,"o":"m 650 149 l 322 149 l 247 0 l -76 0 l 456 983 l 811 983 l 997 0 l 672 0 l 650 149 m 615 381 l 575 654 l 438 381 l 615 381 m 386 1157 q 428 1258 386 1217 q 528 1300 471 1300 q 602 1273 574 1300 q 631 1203 631 1246 q 588 1103 631 1144 q 486 1061 544 1061 q 415 1088 443 1061 q 386 1157 386 1115 m 699 1157 q 741 1258 699 1217 q 840 1300 783 1300 q 915 1273 886 1300 q 943 1203 943 1246 q 900 1103 943 1144 q 799 1061 857 1061 q 727 1088 756 1061 q 699 1157 699 1115 z "},"Å":{"ha":1074,"x_min":-83,"x_max":990,"o":"m 643 149 l 315 149 l 240 0 l -83 0 l 449 983 l 804 983 l 990 0 l 665 0 l 643 149 m 608 381 l 568 654 l 431 381 l 608 381 m 689 1390 q 801 1351 758 1390 q 843 1244 843 1313 q 840 1207 843 1219 q 765 1074 826 1124 q 625 1024 703 1024 q 513 1063 556 1024 q 471 1169 471 1101 q 474 1207 471 1194 q 549 1340 488 1290 q 689 1390 611 1390 m 668 1272 q 614 1251 636 1272 q 592 1194 592 1229 q 607 1156 592 1171 q 646 1142 622 1142 q 699 1165 676 1142 q 722 1221 722 1188 q 707 1258 722 1244 q 668 1272 692 1272 z "},"Æ":{"ha":1369,"x_min":-86,"x_max":1408,"o":"m 1032 739 l 1011 621 l 1303 621 l 1263 389 l 971 389 l 946 246 l 1279 246 l 1236 0 l 594 0 l 618 135 l 335 135 l 249 0 l -86 0 l 557 983 l 1408 983 l 1365 739 l 1032 739 m 658 367 l 725 746 l 483 367 l 658 367 z "},"Ç":{"ha":1046,"x_min":47,"x_max":1040,"o":"m 631 993 q 851 945 758 993 q 992 810 943 897 q 1039 606 1040 722 l 714 606 q 665 681 701 654 q 575 708 628 708 q 442 650 497 708 q 369 493 388 592 q 364 433 364 465 q 399 319 364 361 q 500 278 435 278 q 599 305 553 278 q 675 381 644 332 l 1000 381 q 792 99 938 204 q 456 -7 647 -7 q 235 42 326 -7 q 95 178 143 90 q 47 383 47 267 q 57 493 47 439 q 161 753 82 639 q 361 930 240 867 q 631 993 482 993 m 539 -37 q 644 -69 596 -37 q 692 -171 692 -101 q 689 -207 692 -194 q 603 -337 672 -297 q 450 -376 533 -376 l 210 -376 l 238 -219 l 446 -219 q 474 -213 463 -219 q 486 -197 485 -207 l 486 -193 q 454 -176 486 -176 l 336 -176 l 369 10 l 547 10 l 539 -37 z "},"È":{"ha":772,"x_min":-29,"x_max":799,"o":"m 408 739 l 388 617 l 693 617 l 651 385 l 346 385 l 322 246 l 669 246 l 626 0 l -29 0 l 143 983 l 799 983 l 756 739 l 408 739 m 689 1242 l 653 1036 l 317 1167 l 357 1394 l 689 1242 z "},"É":{"ha":772,"x_min":-29,"x_max":799,"o":"m 408 739 l 388 617 l 693 617 l 651 385 l 346 385 l 322 246 l 669 246 l 626 0 l -29 0 l 143 983 l 799 983 l 756 739 l 408 739 m 676 1167 l 293 1036 l 329 1242 l 717 1394 l 676 1167 z "},"Ê":{"ha":772,"x_min":-24,"x_max":804,"o":"m 414 739 l 393 617 l 699 617 l 657 385 l 351 385 l 328 246 l 675 246 l 632 0 l -24 0 l 149 983 l 804 983 l 761 739 l 414 739 m 503 1144 l 251 1022 l 286 1222 l 538 1340 l 746 1222 l 711 1022 l 503 1144 z "},"Ë":{"ha":771,"x_min":-21,"x_max":807,"o":"m 417 739 l 396 617 l 701 617 l 660 385 l 354 385 l 331 246 l 678 246 l 635 0 l -21 0 l 151 983 l 807 983 l 764 739 l 417 739 m 233 1157 q 276 1258 233 1217 q 375 1300 318 1300 q 449 1273 421 1300 q 478 1203 478 1246 q 435 1103 478 1144 q 333 1061 392 1061 q 262 1088 290 1061 q 233 1157 233 1115 m 546 1157 q 588 1258 546 1217 q 688 1300 631 1300 q 762 1273 733 1300 q 790 1203 790 1246 q 747 1103 790 1144 q 646 1061 704 1061 q 574 1088 603 1061 q 546 1157 546 1115 z "},"Ì":{"ha":446,"x_min":-15,"x_max":528,"o":"m 465 983 l 293 0 l -15 0 l 157 983 l 465 983 m 528 1242 l 492 1036 l 156 1167 l 196 1394 l 528 1242 z "},"Í":{"ha":446,"x_min":-15,"x_max":556,"o":"m 465 983 l 293 0 l -15 0 l 157 983 l 465 983 m 515 1167 l 132 1036 l 168 1242 l 556 1394 l 515 1167 z "},"Î":{"ha":447,"x_min":-10,"x_max":586,"o":"m 471 983 l 299 0 l -10 0 l 163 983 l 471 983 m 343 1144 l 92 1022 l 126 1222 l 378 1340 l 586 1222 l 551 1022 l 343 1144 z "},"Ï":{"ha":447,"x_min":-7,"x_max":632,"o":"m 474 983 l 301 0 l -7 0 l 165 983 l 474 983 m 75 1157 q 117 1258 75 1217 q 217 1300 160 1300 q 291 1273 263 1300 q 319 1203 319 1246 q 276 1103 319 1144 q 175 1061 233 1061 q 103 1088 132 1061 q 75 1157 75 1115 m 388 1157 q 430 1258 388 1217 q 529 1300 472 1300 q 603 1273 575 1300 q 632 1203 632 1246 q 589 1103 632 1144 q 488 1061 546 1061 q 416 1088 444 1061 q 388 1157 388 1115 z "},"Ð":{"ha":1032,"x_min":-21,"x_max":999,"o":"m 565 983 q 799 934 701 983 q 947 797 896 885 q 999 593 999 708 q 990 494 999 547 q 883 242 965 354 q 674 65 801 129 q 393 0 547 0 l -17 0 l 49 372 l -21 372 l 22 617 l 92 617 l 156 983 l 565 983 m 678 494 q 683 547 683 531 q 632 671 683 628 q 490 714 581 714 l 417 714 l 400 617 l 581 617 l 538 372 l 356 372 l 339 275 l 413 275 q 588 332 517 275 q 678 494 660 389 z "},"Ñ":{"ha":1082,"x_min":-19,"x_max":1096,"o":"m 924 0 l 615 0 l 375 494 l 289 0 l -19 0 l 153 983 l 461 983 l 700 481 l 788 983 l 1096 983 l 924 0 m 582 1294 q 642 1285 615 1294 q 700 1257 668 1275 q 740 1237 726 1243 q 771 1231 754 1231 q 844 1296 822 1231 l 996 1296 q 884 1110 950 1167 q 729 1053 818 1053 q 669 1063 696 1053 q 611 1090 643 1072 q 592 1101 607 1093 q 564 1112 576 1108 q 540 1115 551 1115 q 465 1050 489 1115 l 315 1050 q 427 1237 361 1179 q 582 1294 493 1294 z "},"Ò":{"ha":1072,"x_min":22,"x_max":1028,"o":"m 574 1000 q 817 945 714 1000 q 974 791 919 890 q 1028 561 1028 692 q 1017 440 1028 507 q 921 206 993 308 q 735 47 849 104 q 479 -10 622 -10 q 232 44 335 -10 q 76 197 129 99 q 22 426 22 296 q 33 551 22 494 q 130 785 57 683 q 317 943 203 886 q 574 1000 431 1000 m 551 715 q 407 660 464 715 q 333 510 350 606 q 328 450 328 482 q 372 324 328 369 q 501 278 415 278 q 645 333 588 278 q 718 482 703 389 q 724 543 724 511 q 680 670 724 625 q 551 715 636 715 m 840 1242 l 804 1036 l 468 1167 l 508 1394 l 840 1242 z "},"Ó":{"ha":1072,"x_min":11,"x_max":1017,"o":"m 563 1000 q 806 945 703 1000 q 963 791 908 890 q 1017 561 1017 692 q 1006 440 1017 507 q 910 206 982 308 q 724 47 838 104 q 468 -10 611 -10 q 221 44 324 -10 q 65 197 118 99 q 11 426 11 296 q 22 551 11 494 q 119 785 46 683 q 306 943 192 886 q 563 1000 419 1000 m 540 715 q 396 660 453 715 q 322 510 339 606 q 317 450 317 482 q 360 324 317 369 q 490 278 404 278 q 634 333 576 278 q 707 482 692 389 q 713 543 713 511 q 669 670 713 625 q 540 715 625 715 m 817 1167 l 433 1036 l 469 1242 l 857 1394 l 817 1167 z "},"Ô":{"ha":1072,"x_min":17,"x_max":1022,"o":"m 568 1000 q 811 945 708 1000 q 968 791 914 890 q 1022 561 1022 692 q 1011 440 1022 507 q 915 206 988 308 q 730 47 843 104 q 474 -10 617 -10 q 226 44 329 -10 q 70 197 124 99 q 17 426 17 296 q 28 551 17 494 q 124 785 51 683 q 311 943 197 886 q 568 1000 425 1000 m 546 715 q 401 660 458 715 q 328 510 344 606 q 322 450 322 482 q 366 324 322 369 q 496 278 410 278 q 640 333 582 278 q 713 482 697 389 q 718 543 718 511 q 674 670 718 625 q 546 715 631 715 m 643 1144 l 392 1022 l 426 1222 l 678 1340 l 886 1222 l 851 1022 l 643 1144 z "},"Õ":{"ha":1072,"x_min":21,"x_max":1026,"o":"m 572 1000 q 815 945 713 1000 q 972 791 918 890 q 1026 561 1026 692 q 1015 440 1026 507 q 919 206 992 308 q 734 47 847 104 q 478 -10 621 -10 q 231 44 333 -10 q 74 197 128 99 q 21 426 21 296 q 32 551 21 494 q 128 785 56 683 q 315 943 201 886 q 572 1000 429 1000 m 550 715 q 406 660 463 715 q 332 510 349 606 q 326 450 326 482 q 370 324 326 369 q 500 278 414 278 q 644 333 586 278 q 717 482 701 389 q 722 543 722 511 q 678 670 722 625 q 550 715 635 715 m 579 1294 q 639 1285 613 1294 q 697 1257 665 1275 q 738 1237 724 1243 q 768 1231 751 1231 q 842 1296 819 1231 l 993 1296 q 881 1110 947 1167 q 726 1053 815 1053 q 667 1063 693 1053 q 608 1090 640 1072 q 589 1101 604 1093 q 561 1112 574 1108 q 538 1115 549 1115 q 463 1050 486 1115 l 313 1050 q 424 1237 358 1179 q 579 1294 490 1294 z "},"Ö":{"ha":1072,"x_min":19,"x_max":1025,"o":"m 571 1000 q 814 945 711 1000 q 971 791 917 890 q 1025 561 1025 692 q 1014 440 1025 507 q 918 206 990 308 q 733 47 846 104 q 476 -10 619 -10 q 229 44 332 -10 q 73 197 126 99 q 19 426 19 296 q 31 551 19 494 q 127 785 54 683 q 314 943 200 886 q 571 1000 428 1000 m 549 715 q 404 660 461 715 q 331 510 347 606 q 325 450 325 482 q 369 324 325 369 q 499 278 413 278 q 642 333 585 278 q 715 482 700 389 q 721 543 721 511 q 677 670 721 625 q 549 715 633 715 m 375 1157 q 417 1258 375 1217 q 517 1300 460 1300 q 591 1273 563 1300 q 619 1203 619 1246 q 576 1103 619 1144 q 475 1061 533 1061 q 403 1088 432 1061 q 375 1157 375 1115 m 688 1157 q 730 1258 688 1217 q 829 1300 772 1300 q 903 1273 875 1300 q 932 1203 932 1246 q 889 1103 932 1144 q 788 1061 846 1061 q 716 1088 744 1061 q 688 1157 688 1115 z "},"×":{"ha":807,"x_min":11,"x_max":808,"o":"m 615 488 l 763 310 l 524 108 l 379 285 l 175 110 l 11 307 l 215 482 l 78 649 l 317 850 l 453 686 l 643 850 l 808 653 l 615 488 z "},"Ø":{"ha":1094,"x_min":-62,"x_max":1156,"o":"m 969 815 q 1038 563 1038 708 q 1026 440 1038 507 q 931 206 1003 308 q 745 47 858 104 q 489 -10 632 -10 q 183 81 301 -10 l 99 1 l -62 1 l 107 160 q 32 426 32 267 q 43 551 32 494 q 140 785 67 683 q 326 943 213 886 q 583 1000 440 1000 q 759 974 679 1000 q 897 897 839 947 l 996 989 l 1156 989 l 969 815 m 343 510 q 338 450 338 482 q 347 383 338 411 l 671 686 q 561 715 626 715 q 417 660 474 715 q 343 510 360 606 m 728 482 q 733 543 733 510 q 729 590 733 569 l 417 299 q 511 278 454 278 q 655 333 597 278 q 728 482 713 389 z "},"Ù":{"ha":999,"x_min":33,"x_max":1011,"o":"m 447 983 l 350 429 q 346 383 346 407 q 371 309 346 336 q 450 282 396 282 q 556 322 517 282 q 607 429 594 361 l 704 983 l 1011 983 l 914 429 q 813 190 889 289 q 626 40 736 90 q 392 -10 517 -10 q 130 76 226 -10 q 33 324 33 163 q 43 429 33 376 l 140 983 l 447 983 m 790 1242 l 754 1036 l 418 1167 l 458 1394 l 790 1242 z "},"Ú":{"ha":999,"x_min":33,"x_max":1011,"o":"m 447 983 l 350 429 q 346 383 346 407 q 371 309 346 336 q 450 282 396 282 q 556 322 517 282 q 607 429 594 361 l 704 983 l 1011 983 l 914 429 q 813 190 889 289 q 626 40 736 90 q 392 -10 517 -10 q 130 76 226 -10 q 33 324 33 163 q 43 429 33 376 l 140 983 l 447 983 m 778 1167 l 394 1036 l 431 1242 l 818 1394 l 778 1167 z "},"Û":{"ha":999,"x_min":39,"x_max":1017,"o":"m 453 983 l 356 429 q 351 383 351 407 q 376 309 351 336 q 456 282 401 282 q 561 322 522 282 q 613 429 600 361 l 710 983 l 1017 983 l 919 429 q 818 190 894 289 q 632 40 742 90 q 397 -10 522 -10 q 135 76 232 -10 q 39 324 39 163 q 49 429 39 376 l 146 983 l 453 983 m 606 1144 l 354 1022 l 389 1222 l 640 1340 l 849 1222 l 814 1022 l 606 1144 z "},"Ü":{"ha":999,"x_min":42,"x_max":1019,"o":"m 456 983 l 358 429 q 354 383 354 407 q 379 309 354 336 q 458 282 404 282 q 564 322 525 282 q 615 429 603 361 l 713 983 l 1019 983 l 922 429 q 821 190 897 289 q 635 40 744 90 q 400 -10 525 -10 q 138 76 235 -10 q 42 324 42 163 q 51 429 42 376 l 149 983 l 456 983 m 336 1157 q 378 1258 336 1217 q 478 1300 421 1300 q 552 1273 524 1300 q 581 1203 581 1246 q 538 1103 581 1144 q 436 1061 494 1061 q 365 1088 393 1061 q 336 1157 336 1115 m 649 1157 q 691 1258 649 1217 q 790 1300 733 1300 q 865 1273 836 1300 q 893 1203 893 1246 q 850 1103 893 1144 q 749 1061 807 1061 q 677 1088 706 1061 q 649 1157 649 1115 z "},"Ý":{"ha":1014,"x_min":74,"x_max":1088,"o":"m 1088 983 l 614 299 l 563 0 l 254 0 l 306 299 l 74 983 l 426 983 l 522 635 l 740 983 l 1088 983 m 786 1167 l 403 1036 l 439 1242 l 826 1394 l 786 1167 z "},"Þ":{"ha":901,"x_min":-17,"x_max":879,"o":"m 322 174 l 292 0 l -17 0 l 156 983 l 461 983 l 432 817 l 557 817 q 797 748 715 817 q 879 560 879 679 q 874 493 879 525 q 803 331 858 404 q 656 216 747 258 q 444 174 564 174 l 322 174 m 450 403 q 561 493 544 403 q 564 517 564 510 q 482 583 564 583 l 394 583 l 363 403 l 450 403 z "},"ß":{"ha":1060,"x_min":-22,"x_max":1026,"o":"m 844 583 q 981 465 936 532 q 1026 307 1026 397 q 1018 228 1026 269 q 915 58 1000 125 q 697 -8 831 -8 q 469 66 551 -8 q 388 269 388 140 q 389 304 388 292 l 639 304 q 651 269 639 279 q 681 258 664 258 q 722 293 715 258 l 724 304 q 710 335 724 322 q 660 374 697 349 l 478 497 l 499 597 l 517 608 q 571 696 571 640 q 554 740 571 724 q 506 756 538 756 q 436 732 464 756 q 400 661 408 708 l 286 0 l -22 0 l 97 672 q 253 945 129 849 q 581 1042 376 1042 q 763 1011 689 1042 q 872 930 836 981 q 907 819 907 879 q 904 782 907 794 q 863 696 897 736 q 771 626 828 656 l 844 583 z "},"à":{"ha":946,"x_min":28,"x_max":956,"o":"m 419 793 q 556 762 501 793 q 629 676 610 731 l 649 783 l 956 783 l 817 0 l 510 0 l 529 107 q 429 22 490 53 q 292 -10 368 -10 q 98 72 168 -10 q 28 299 28 153 q 39 419 28 350 q 116 619 60 535 q 252 749 172 704 q 419 793 332 793 m 489 524 q 401 489 439 524 q 351 392 363 454 q 349 358 349 379 q 374 285 349 311 q 442 260 399 260 q 530 294 492 260 q 579 392 568 329 q 582 425 582 404 q 557 498 582 472 q 489 524 532 524 m 726 1042 l 690 836 l 354 967 l 394 1194 l 726 1042 z "},"á":{"ha":946,"x_min":28,"x_max":956,"o":"m 419 793 q 556 762 501 793 q 629 676 610 731 l 649 783 l 956 783 l 817 0 l 510 0 l 529 107 q 429 22 490 53 q 292 -10 368 -10 q 98 72 168 -10 q 28 299 28 153 q 39 419 28 350 q 116 619 60 535 q 252 749 172 704 q 419 793 332 793 m 489 524 q 401 489 439 524 q 351 392 363 454 q 349 358 349 379 q 374 285 349 311 q 442 260 399 260 q 530 294 492 260 q 579 392 568 329 q 582 425 582 404 q 557 498 582 472 q 489 524 532 524 m 714 967 l 331 836 l 367 1042 l 754 1194 l 714 967 z "},"â":{"ha":946,"x_min":6,"x_max":933,"o":"m 397 793 q 533 762 479 793 q 607 676 588 731 l 626 783 l 933 783 l 794 0 l 488 0 l 507 107 q 407 22 468 53 q 269 -10 346 -10 q 76 72 146 -10 q 6 299 6 153 q 17 419 6 350 q 94 619 38 535 q 230 749 150 704 q 397 793 310 793 m 467 524 q 378 489 417 524 q 329 392 340 454 q 326 358 326 379 q 351 285 326 311 q 419 260 376 260 q 508 294 469 260 q 557 392 546 329 q 560 425 560 404 q 535 498 560 472 q 467 524 510 524 m 514 944 l 263 822 l 297 1022 l 549 1140 l 757 1022 l 722 822 l 514 944 z "},"ã":{"ha":946,"x_min":36,"x_max":964,"o":"m 428 793 q 564 762 510 793 q 638 676 618 731 l 657 783 l 964 783 l 825 0 l 518 0 l 538 107 q 438 22 499 53 q 300 -10 376 -10 q 106 72 176 -10 q 36 299 36 153 q 47 419 36 350 q 124 619 68 535 q 260 749 181 704 q 428 793 340 793 m 497 524 q 409 489 447 524 q 360 392 371 454 q 357 358 357 379 q 382 285 357 311 q 450 260 407 260 q 538 294 500 260 q 588 392 576 329 q 590 425 590 404 q 565 498 590 472 q 497 524 540 524 m 476 1094 q 536 1085 510 1094 q 594 1057 563 1075 q 635 1037 621 1043 q 665 1031 649 1031 q 739 1096 717 1031 l 890 1096 q 778 910 844 967 q 624 853 713 853 q 564 863 590 853 q 506 890 538 872 q 486 901 501 893 q 458 912 471 908 q 435 915 446 915 q 360 850 383 915 l 210 850 q 322 1037 256 979 q 476 1094 388 1094 z "},"ä":{"ha":946,"x_min":36,"x_max":964,"o":"m 428 793 q 564 762 510 793 q 638 676 618 731 l 657 783 l 964 783 l 825 0 l 518 0 l 538 107 q 438 22 499 53 q 300 -10 376 -10 q 106 72 176 -10 q 36 299 36 153 q 47 419 36 350 q 124 619 68 535 q 260 749 181 704 q 428 793 340 793 m 497 524 q 409 489 447 524 q 360 392 371 454 q 357 358 357 379 q 382 285 357 311 q 450 260 407 260 q 538 294 500 260 q 588 392 576 329 q 590 425 590 404 q 565 498 590 472 q 497 524 540 524 m 272 957 q 315 1058 272 1017 q 414 1100 357 1100 q 488 1073 460 1100 q 517 1003 517 1046 q 474 903 517 944 q 372 861 431 861 q 301 888 329 861 q 272 957 272 915 m 585 957 q 627 1058 585 1017 q 726 1100 669 1100 q 801 1073 772 1100 q 829 1003 829 1046 q 786 903 829 944 q 685 861 743 861 q 613 888 642 861 q 585 957 585 915 z "},"å":{"ha":946,"x_min":1,"x_max":929,"o":"m 393 793 q 529 762 475 793 q 603 676 583 731 l 622 783 l 929 783 l 790 0 l 483 0 l 503 107 q 403 22 464 53 q 265 -10 342 -10 q 72 72 142 -10 q 1 299 1 153 q 13 419 1 350 q 90 619 33 535 q 226 749 146 704 q 393 793 306 793 m 463 524 q 374 489 413 524 q 325 392 336 454 q 322 358 322 379 q 347 285 322 311 q 415 260 372 260 q 503 294 465 260 q 553 392 542 329 q 556 425 556 404 q 531 498 556 472 q 463 524 506 524 m 547 1190 q 659 1151 617 1190 q 701 1044 701 1113 q 699 1007 701 1019 q 623 874 685 924 q 483 824 561 824 q 372 863 414 824 q 329 969 329 901 q 332 1007 329 994 q 408 1140 346 1090 q 547 1190 469 1190 m 526 1072 q 472 1051 494 1072 q 450 994 450 1029 q 465 956 450 971 q 504 942 481 942 q 558 965 535 942 q 581 1021 581 988 q 565 1058 581 1044 q 526 1072 550 1072 z "},"æ":{"ha":1468,"x_min":18,"x_max":1447,"o":"m 1176 793 q 1374 715 1301 793 q 1447 499 1447 638 q 1438 399 1447 463 q 1419 338 1429 361 l 876 338 q 898 256 874 279 q 968 232 922 232 q 1074 282 1042 232 l 1400 282 q 1253 72 1351 154 q 1035 -10 1154 -10 q 899 21 951 -10 q 825 107 846 51 l 806 0 l 499 0 l 518 107 q 418 22 479 53 q 281 -10 357 -10 q 90 69 163 -10 q 18 289 18 149 q 28 392 18 342 q 108 606 50 515 q 249 745 167 697 q 422 793 331 793 q 549 762 499 793 q 618 676 599 731 l 638 783 l 944 783 l 925 676 q 1028 763 963 732 q 1176 793 1093 793 m 1136 464 q 1138 481 1138 469 q 1108 533 1138 515 q 1033 551 1079 551 q 900 464 933 551 l 1136 464 m 568 392 q 571 425 571 404 q 546 498 571 472 q 478 524 521 524 q 390 489 428 524 q 340 392 351 454 q 338 358 338 379 q 363 285 338 311 q 431 260 388 260 q 519 294 481 260 q 568 392 557 329 z "},"ç":{"ha":847,"x_min":25,"x_max":839,"o":"m 492 793 q 744 707 650 793 q 839 468 838 621 l 513 468 q 451 529 503 529 q 387 494 414 529 q 347 392 360 460 q 342 340 342 353 q 358 276 342 297 q 404 254 375 254 q 485 315 457 254 l 811 315 q 637 76 757 163 q 364 -10 517 -10 q 117 78 210 -10 q 25 321 25 167 q 35 419 25 358 q 120 618 56 533 q 281 748 185 703 q 492 793 378 793 m 442 -37 q 547 -69 499 -37 q 594 -171 594 -101 q 592 -207 594 -194 q 506 -337 575 -297 q 353 -376 436 -376 l 113 -376 l 140 -219 l 349 -219 q 376 -213 365 -219 q 389 -197 388 -207 l 389 -193 q 357 -176 389 -176 l 239 -176 l 272 10 l 450 10 l 442 -37 z "},"è":{"ha":853,"x_min":14,"x_max":829,"o":"m 490 793 q 738 710 646 793 q 829 485 829 628 q 821 399 829 444 q 803 338 813 361 l 311 338 q 310 310 310 328 q 327 252 310 268 q 376 236 344 236 q 457 282 428 236 l 783 282 q 619 72 735 153 q 349 -10 503 -10 q 104 76 194 -10 q 14 313 14 161 q 22 407 14 357 q 110 613 43 525 q 275 747 176 700 q 490 793 374 793 m 519 464 q 521 485 521 471 q 500 535 521 518 q 447 551 479 551 q 335 464 364 551 l 519 464 m 689 1042 l 653 836 l 317 967 l 357 1194 l 689 1042 z "},"é":{"ha":853,"x_min":14,"x_max":829,"o":"m 490 793 q 738 710 646 793 q 829 485 829 628 q 821 399 829 444 q 803 338 813 361 l 311 338 q 310 310 310 328 q 327 252 310 268 q 376 236 344 236 q 457 282 428 236 l 783 282 q 619 72 735 153 q 349 -10 503 -10 q 104 76 194 -10 q 14 313 14 161 q 22 407 14 357 q 110 613 43 525 q 275 747 176 700 q 490 793 374 793 m 519 464 q 521 485 521 471 q 500 535 521 518 q 447 551 479 551 q 335 464 364 551 l 519 464 m 676 967 l 293 836 l 329 1042 l 717 1194 l 676 967 z "},"ê":{"ha":854,"x_min":19,"x_max":835,"o":"m 496 793 q 743 710 651 793 q 835 485 835 628 q 826 399 835 444 q 808 338 818 361 l 317 338 q 315 310 315 328 q 333 252 315 268 q 382 236 350 236 q 463 282 433 236 l 789 282 q 624 72 740 153 q 354 -10 508 -10 q 110 76 200 -10 q 19 313 19 161 q 28 407 19 357 q 115 613 49 525 q 281 747 182 700 q 496 793 379 793 m 525 464 q 526 485 526 471 q 506 535 526 518 q 453 551 485 551 q 340 464 369 551 l 525 464 m 504 944 l 253 822 l 288 1022 l 539 1140 l 747 1022 l 713 822 l 504 944 z "},"ë":{"ha":853,"x_min":22,"x_max":838,"o":"m 499 793 q 746 710 654 793 q 838 485 838 628 q 829 399 838 444 q 811 338 821 361 l 319 338 q 318 310 318 328 q 335 252 318 268 q 385 236 353 236 q 465 282 436 236 l 792 282 q 627 72 743 153 q 357 -10 511 -10 q 113 76 203 -10 q 22 313 22 161 q 31 407 22 357 q 118 613 51 525 q 283 747 185 700 q 499 793 382 793 m 528 464 q 529 485 529 471 q 508 535 529 518 q 456 551 488 551 q 343 464 372 551 l 528 464 m 235 957 q 277 1058 235 1017 q 376 1100 319 1100 q 451 1073 422 1100 q 479 1003 479 1046 q 436 903 479 944 q 335 861 393 861 q 263 888 292 861 q 235 957 235 915 m 547 957 q 590 1058 547 1017 q 689 1100 632 1100 q 763 1073 735 1100 q 792 1003 792 1046 q 749 903 792 944 q 647 861 706 861 q 576 888 604 861 q 547 957 547 915 z "},"ì":{"ha":447,"x_min":-1,"x_max":532,"o":"m 446 783 l 307 0 l -1 0 l 138 783 l 446 783 m 532 1042 l 496 836 l 160 967 l 200 1194 l 532 1042 z "},"í":{"ha":447,"x_min":-1,"x_max":560,"o":"m 446 783 l 307 0 l -1 0 l 138 783 l 446 783 m 519 967 l 136 836 l 172 1042 l 560 1194 l 519 967 z "},"î":{"ha":446,"x_min":3,"x_max":561,"o":"m 450 783 l 311 0 l 3 0 l 142 783 l 450 783 m 318 944 l 67 822 l 101 1022 l 353 1140 l 561 1022 l 526 822 l 318 944 z "},"ï":{"ha":447,"x_min":7,"x_max":635,"o":"m 454 783 l 315 0 l 7 0 l 146 783 l 454 783 m 78 957 q 120 1058 78 1017 q 219 1100 163 1100 q 294 1073 265 1100 q 322 1003 322 1046 q 279 903 322 944 q 178 861 236 861 q 106 888 135 861 q 78 957 78 915 m 390 957 q 433 1058 390 1017 q 532 1100 475 1100 q 606 1073 578 1100 q 635 1003 635 1046 q 592 903 635 944 q 490 861 549 861 q 419 888 447 861 q 390 957 390 915 z "},"ð":{"ha":879,"x_min":14,"x_max":876,"o":"m 790 913 q 853 743 831 833 q 876 560 876 653 q 867 440 876 497 q 769 197 842 299 q 594 44 696 96 q 378 -8 492 -8 q 192 31 275 -8 q 62 145 110 71 q 14 319 14 219 q 21 394 14 350 q 110 604 43 515 q 274 741 176 693 q 481 789 371 789 q 589 778 526 789 q 561 850 579 813 l 435 817 l 453 917 l 517 935 q 449 1028 483 990 l 717 1028 l 742 994 l 839 1021 l 821 921 l 790 913 m 544 392 q 549 429 549 413 q 524 501 549 478 q 467 524 500 524 q 385 492 424 524 q 335 392 347 460 q 332 358 332 379 q 360 283 332 308 q 425 258 389 258 q 499 290 465 258 q 544 392 532 322 z "},"ñ":{"ha":968,"x_min":0,"x_max":924,"o":"m 688 789 q 863 723 801 789 q 924 540 924 657 q 915 454 924 500 l 835 0 l 528 0 l 601 415 q 604 444 604 435 q 580 512 604 488 q 513 536 556 536 q 426 503 461 536 q 382 415 392 471 l 382 422 l 308 0 l 0 0 l 138 783 l 446 783 l 425 664 q 538 754 472 719 q 688 789 604 789 m 496 1094 q 556 1085 529 1094 q 614 1057 582 1075 q 654 1037 640 1043 q 685 1031 668 1031 q 758 1096 736 1031 l 910 1096 q 798 910 864 967 q 643 853 732 853 q 583 863 610 853 q 525 890 557 872 q 506 901 521 893 q 478 912 490 908 q 454 915 465 915 q 379 850 403 915 l 229 850 q 341 1037 275 979 q 496 1094 407 1094 z "},"ò":{"ha":885,"x_min":28,"x_max":872,"o":"m 513 793 q 700 753 618 793 q 827 636 782 713 q 872 456 872 560 q 864 364 872 413 q 776 165 843 250 q 608 35 708 81 q 393 -10 508 -10 q 202 31 285 -10 q 74 149 119 72 q 28 329 28 225 q 36 419 28 372 q 125 618 57 533 q 294 748 193 703 q 513 793 396 793 m 474 526 q 396 492 431 526 q 349 392 361 458 q 344 351 344 369 q 367 281 344 304 q 426 257 389 257 q 504 291 469 257 q 551 392 539 325 q 556 432 556 413 q 533 503 556 479 q 474 526 510 526 m 717 1042 l 681 836 l 344 967 l 385 1194 l 717 1042 z "},"ó":{"ha":885,"x_min":28,"x_max":872,"o":"m 513 793 q 700 753 618 793 q 827 636 782 713 q 872 456 872 560 q 864 364 872 413 q 776 165 843 250 q 608 35 708 81 q 393 -10 508 -10 q 202 31 285 -10 q 74 149 119 72 q 28 329 28 225 q 36 419 28 372 q 125 618 57 533 q 294 748 193 703 q 513 793 396 793 m 474 526 q 396 492 431 526 q 349 392 361 458 q 344 351 344 369 q 367 281 344 304 q 426 257 389 257 q 504 291 469 257 q 551 392 539 325 q 556 432 556 413 q 533 503 556 479 q 474 526 510 526 m 704 967 l 321 836 l 357 1042 l 744 1194 l 704 967 z "},"ô":{"ha":885,"x_min":19,"x_max":864,"o":"m 504 793 q 692 753 610 793 q 819 636 774 713 q 864 456 864 560 q 856 364 864 413 q 767 165 835 250 q 600 35 700 81 q 385 -10 500 -10 q 194 31 276 -10 q 65 149 111 72 q 19 329 19 225 q 28 419 19 372 q 117 618 49 533 q 286 748 185 703 q 504 793 388 793 m 465 526 q 388 492 422 526 q 340 392 353 458 q 336 351 336 369 q 358 281 336 304 q 418 257 381 257 q 496 291 461 257 q 543 392 531 325 q 547 432 547 413 q 524 503 547 479 q 465 526 501 526 m 518 944 l 267 822 l 301 1022 l 553 1140 l 761 1022 l 726 822 l 518 944 z "},"õ":{"ha":885,"x_min":38,"x_max":882,"o":"m 522 793 q 710 753 628 793 q 837 636 792 713 q 882 456 882 560 q 874 364 882 413 q 785 165 853 250 q 618 35 718 81 q 403 -10 518 -10 q 212 31 294 -10 q 83 149 129 72 q 38 329 38 225 q 46 419 38 372 q 135 618 67 533 q 304 748 203 703 q 522 793 406 793 m 483 526 q 406 492 440 526 q 358 392 371 458 q 354 351 354 369 q 376 281 354 304 q 436 257 399 257 q 514 291 479 257 q 561 392 549 325 q 565 432 565 413 q 542 503 565 479 q 483 526 519 526 m 468 1094 q 528 1085 501 1094 q 586 1057 554 1075 q 626 1037 613 1043 q 657 1031 640 1031 q 731 1096 708 1031 l 882 1096 q 770 910 836 967 q 615 853 704 853 q 556 863 582 853 q 497 890 529 872 q 478 901 493 893 q 450 912 463 908 q 426 915 438 915 q 351 850 375 915 l 201 850 q 313 1037 247 979 q 468 1094 379 1094 z "},"ö":{"ha":885,"x_min":36,"x_max":881,"o":"m 521 793 q 708 753 626 793 q 835 636 790 713 q 881 456 881 560 q 872 364 881 413 q 784 165 851 250 q 617 35 717 81 q 401 -10 517 -10 q 210 31 293 -10 q 82 149 128 72 q 36 329 36 225 q 44 419 36 372 q 133 618 65 533 q 303 748 201 703 q 521 793 404 793 m 482 526 q 404 492 439 526 q 357 392 369 458 q 353 351 353 369 q 375 281 353 304 q 435 257 397 257 q 513 291 478 257 q 560 392 547 325 q 564 432 564 413 q 541 503 564 479 q 482 526 518 526 m 263 957 q 305 1058 263 1017 q 404 1100 347 1100 q 478 1073 450 1100 q 507 1003 507 1046 q 464 903 507 944 q 363 861 421 861 q 291 888 319 861 q 263 957 263 915 m 575 957 q 617 1058 575 1017 q 717 1100 660 1100 q 791 1073 763 1100 q 819 1003 819 1046 q 776 903 819 944 q 675 861 733 861 q 603 888 632 861 q 575 957 575 915 z "},"÷":{"ha":765,"x_min":3,"x_max":763,"o":"m 617 946 l 565 651 l 260 651 l 311 946 l 617 946 m 763 613 l 713 333 l 3 333 l 53 613 l 763 613 m 501 294 l 450 0 l 144 0 l 196 294 l 501 294 z "},"ø":{"ha":863,"x_min":-67,"x_max":935,"o":"m 797 658 q 857 453 857 572 q 849 364 857 413 q 760 165 828 250 q 593 35 693 81 q 378 -10 493 -10 q 140 58 236 -10 l 76 0 l -67 0 l 72 126 q 13 331 13 213 q 21 419 13 372 q 110 618 42 533 q 279 748 178 703 q 497 793 381 793 q 729 726 635 793 l 792 783 l 935 783 l 797 658 m 329 361 l 500 517 q 458 526 482 526 q 381 492 415 526 q 333 392 346 458 l 329 361 m 540 422 l 369 267 q 411 257 385 257 q 489 291 454 257 q 536 392 524 325 l 540 422 z "},"ù":{"ha":968,"x_min":38,"x_max":961,"o":"m 961 783 l 824 0 l 515 0 l 536 119 q 423 29 489 64 q 274 -6 357 -6 q 99 60 160 -6 q 38 243 38 126 q 46 329 38 283 l 126 783 l 433 783 l 360 368 q 357 339 357 349 q 381 272 357 296 q 449 247 406 247 q 535 280 500 247 q 579 368 569 313 l 579 361 l 653 783 l 961 783 m 756 1042 l 719 836 l 383 967 l 424 1194 l 756 1042 z "},"ú":{"ha":968,"x_min":38,"x_max":961,"o":"m 961 783 l 824 0 l 515 0 l 536 119 q 423 29 489 64 q 274 -6 357 -6 q 99 60 160 -6 q 38 243 38 126 q 46 329 38 283 l 126 783 l 433 783 l 360 368 q 357 339 357 349 q 381 272 357 296 q 449 247 406 247 q 535 280 500 247 q 579 368 569 313 l 579 361 l 653 783 l 961 783 m 743 967 l 360 836 l 396 1042 l 783 1194 l 743 967 z "},"û":{"ha":968,"x_min":42,"x_max":965,"o":"m 965 783 l 828 0 l 519 0 l 540 119 q 427 29 493 64 q 278 -6 361 -6 q 103 60 164 -6 q 42 243 42 126 q 50 329 42 283 l 131 783 l 438 783 l 364 368 q 361 339 361 349 q 385 272 361 296 q 453 247 410 247 q 539 280 504 247 q 583 368 574 313 l 583 361 l 657 783 l 965 783 m 569 944 l 318 822 l 353 1022 l 604 1140 l 813 1022 l 778 822 l 569 944 z "},"ü":{"ha":968,"x_min":46,"x_max":969,"o":"m 969 783 l 832 0 l 524 0 l 544 119 q 431 29 497 64 q 282 -6 365 -6 q 107 60 168 -6 q 46 243 46 126 q 54 329 46 283 l 135 783 l 442 783 l 368 368 q 365 339 365 349 q 390 272 365 296 q 457 247 414 247 q 543 280 508 247 q 588 368 578 313 l 588 361 l 661 783 l 969 783 m 301 957 q 344 1058 301 1017 q 443 1100 386 1100 q 517 1073 489 1100 q 546 1003 546 1046 q 503 903 546 944 q 401 861 460 861 q 330 888 358 861 q 301 957 301 915 m 614 957 q 656 1058 614 1017 q 756 1100 699 1100 q 830 1073 801 1100 q 858 1003 858 1046 q 815 903 858 944 q 714 861 772 861 q 642 888 671 861 q 614 957 614 915 z "},"ý":{"ha":940,"x_min":-46,"x_max":999,"o":"m 374 783 l 450 386 l 658 783 l 999 783 l 292 -375 l -46 -375 l 225 39 l 31 783 l 374 783 m 792 967 l 408 836 l 444 1042 l 832 1194 l 792 967 z "},"þ":{"ha":943,"x_min":-68,"x_max":921,"o":"m 639 789 q 845 703 769 789 q 921 474 921 617 q 914 386 921 438 q 836 169 894 258 q 697 36 778 81 q 525 -8 615 -8 q 403 15 453 -8 q 321 86 353 38 l 240 -375 l -68 -375 l 179 1028 l 488 1028 l 432 714 q 526 772 476 754 q 639 789 575 789 m 467 260 q 549 289 510 260 q 601 386 589 318 q 604 418 604 408 q 576 497 604 471 q 513 522 549 522 q 428 491 469 522 q 375 392 388 460 q 372 360 372 369 q 401 284 372 308 q 467 260 429 260 z "},"ÿ":{"ha":940,"x_min":-37,"x_max":1007,"o":"m 382 783 l 458 386 l 667 783 l 1007 783 l 300 -375 l -37 -375 l 233 39 l 39 783 l 382 783 m 281 957 q 323 1058 281 1017 q 422 1100 365 1100 q 497 1073 468 1100 q 525 1003 525 1046 q 482 903 525 944 q 381 861 439 861 q 309 888 338 861 q 281 957 281 915 m 593 957 q 635 1058 593 1017 q 735 1100 678 1100 q 809 1073 781 1100 q 838 1003 838 1046 q 794 903 838 944 q 693 861 751 861 q 622 888 650 861 q 593 957 593 915 z "},"Ā":{"ha":1074,"x_min":-74,"x_max":1000,"o":"m 653 149 l 325 149 l 250 0 l -74 0 l 458 983 l 814 983 l 1000 0 l 675 0 l 653 149 m 618 381 l 578 654 l 440 381 l 618 381 m 985 1268 l 949 1064 l 350 1064 l 386 1268 l 985 1268 z "},"ā":{"ha":946,"x_min":13,"x_max":940,"o":"m 404 793 q 540 762 486 793 q 614 676 594 731 l 633 783 l 940 783 l 801 0 l 494 0 l 514 107 q 414 22 475 53 q 276 -10 353 -10 q 83 72 153 -10 q 13 299 13 153 q 24 419 13 350 q 101 619 44 535 q 237 749 157 704 q 404 793 317 793 m 474 524 q 385 489 424 524 q 336 392 347 454 q 333 358 333 379 q 358 285 333 311 q 426 260 383 260 q 515 294 476 260 q 564 392 553 329 q 567 425 567 404 q 542 498 567 472 q 474 524 517 524 m 844 1068 l 808 864 l 210 864 l 246 1068 l 844 1068 z "},"Ă":{"ha":1074,"x_min":-79,"x_max":994,"o":"m 647 149 l 319 149 l 244 0 l -79 0 l 453 983 l 808 983 l 994 0 l 669 0 l 647 149 m 613 381 l 572 654 l 435 381 l 613 381 m 635 1033 q 476 1088 536 1033 q 415 1246 415 1142 q 422 1315 415 1274 l 426 1339 l 569 1339 q 568 1319 568 1332 q 592 1269 568 1286 q 672 1253 615 1253 q 768 1274 738 1253 q 806 1339 799 1296 l 949 1339 l 944 1315 q 835 1106 921 1178 q 635 1033 750 1033 z "},"ă":{"ha":947,"x_min":33,"x_max":961,"o":"m 425 793 q 561 762 507 793 q 635 676 615 731 l 654 783 l 961 783 l 822 0 l 515 0 l 535 107 q 435 22 496 53 q 297 -10 374 -10 q 103 72 174 -10 q 33 299 33 153 q 44 419 33 350 q 122 619 65 535 q 258 749 178 704 q 425 793 338 793 m 494 524 q 406 489 444 524 q 357 392 368 454 q 354 358 354 379 q 379 285 354 311 q 447 260 404 260 q 535 294 497 260 q 585 392 574 329 q 588 425 588 404 q 563 498 588 472 q 494 524 538 524 m 521 833 q 362 888 422 833 q 301 1046 301 942 q 308 1115 301 1074 l 313 1139 l 456 1139 q 454 1119 454 1132 q 478 1069 454 1086 q 558 1053 501 1053 q 654 1074 624 1053 q 692 1139 685 1096 l 835 1139 l 831 1115 q 722 906 807 978 q 521 833 636 833 z "},"Ą":{"ha":1074,"x_min":-60,"x_max":1042,"o":"m 1042 -147 l 1014 -304 l 781 -304 q 653 -272 706 -304 q 600 -169 600 -240 q 690 -3 600 -62 l 668 149 l 339 149 l 264 0 l -60 0 l 474 983 l 829 983 l 1010 21 l 988 -104 l 849 -104 q 808 -125 813 -104 l 808 -129 q 840 -147 808 -147 l 1042 -147 m 633 381 l 592 654 l 454 381 l 633 381 z "},"ą":{"ha":946,"x_min":33,"x_max":961,"o":"m 425 793 q 561 762 507 793 q 635 676 615 731 l 654 783 l 961 783 l 822 0 l 515 0 l 535 107 q 435 22 496 53 q 297 -10 374 -10 q 103 72 174 -10 q 33 299 33 153 q 44 419 33 350 q 122 619 65 535 q 258 749 178 704 q 425 793 338 793 m 494 524 q 406 489 444 524 q 357 392 368 454 q 354 358 354 379 q 379 285 354 311 q 447 260 404 260 q 535 294 497 260 q 585 392 574 329 q 588 425 588 404 q 563 498 588 472 q 494 524 538 524 m 825 35 l 800 -104 l 661 -104 q 621 -125 625 -104 l 621 -129 q 653 -147 621 -147 l 854 -147 l 826 -304 l 593 -304 q 465 -272 518 -304 q 413 -169 413 -240 q 415 -135 413 -147 q 463 -35 426 -74 q 543 19 499 3 q 626 35 588 35 l 825 35 z "},"Ć":{"ha":1046,"x_min":35,"x_max":1028,"o":"m 618 993 q 838 945 746 993 q 979 810 931 897 q 1026 606 1028 722 l 701 606 q 652 681 689 654 q 563 708 615 708 q 430 650 485 708 q 357 493 375 592 q 351 433 351 465 q 387 319 351 361 q 488 278 422 278 q 586 305 540 278 q 663 381 632 332 l 988 381 q 780 99 925 204 q 443 -7 635 -7 q 222 42 314 -7 q 83 178 131 90 q 35 383 35 267 q 44 493 35 439 q 149 753 69 639 q 349 930 228 867 q 618 993 469 993 m 815 1167 l 432 1036 l 468 1242 l 856 1394 l 815 1167 z "},"ć":{"ha":847,"x_min":13,"x_max":826,"o":"m 479 793 q 731 707 638 793 q 826 468 825 621 l 500 468 q 439 529 490 529 q 374 494 401 529 q 335 392 347 460 q 329 340 329 353 q 346 276 329 297 q 392 254 363 254 q 472 315 444 254 l 799 315 q 624 76 744 163 q 351 -10 504 -10 q 105 78 197 -10 q 13 321 13 167 q 22 419 13 358 q 108 618 43 533 q 269 748 172 703 q 479 793 365 793 m 669 967 l 286 836 l 322 1042 l 710 1194 l 669 967 z "},"Ċ":{"ha":1046,"x_min":43,"x_max":1036,"o":"m 626 993 q 847 945 754 993 q 988 810 939 897 q 1035 606 1036 722 l 710 606 q 660 681 697 654 q 571 708 624 708 q 438 650 493 708 q 365 493 383 592 q 360 433 360 465 q 395 319 360 361 q 496 278 431 278 q 594 305 549 278 q 671 381 640 332 l 996 381 q 788 99 933 204 q 451 -7 643 -7 q 231 42 322 -7 q 91 178 139 90 q 43 383 43 267 q 53 493 43 439 q 157 753 78 639 q 357 930 236 867 q 626 993 478 993 m 529 1157 q 572 1258 529 1217 q 671 1300 614 1300 q 745 1273 717 1300 q 774 1203 774 1246 q 731 1103 774 1144 q 629 1061 688 1061 q 558 1088 586 1061 q 529 1157 529 1115 z "},"ċ":{"ha":847,"x_min":21,"x_max":835,"o":"m 488 793 q 740 707 646 793 q 835 468 833 621 l 508 468 q 447 529 499 529 q 383 494 410 529 q 343 392 356 460 q 338 340 338 353 q 354 276 338 297 q 400 254 371 254 q 481 315 453 254 l 807 315 q 633 76 753 163 q 360 -10 513 -10 q 113 78 206 -10 q 21 321 21 167 q 31 419 21 358 q 116 618 51 533 q 277 748 181 703 q 488 793 374 793 m 383 957 q 426 1058 383 1017 q 525 1100 468 1100 q 599 1073 571 1100 q 628 1003 628 1046 q 585 903 628 944 q 483 861 542 861 q 412 888 440 861 q 383 957 383 915 z "},"Č":{"ha":1044,"x_min":39,"x_max":1032,"o":"m 622 993 q 842 945 750 993 q 983 810 935 897 q 1031 606 1032 722 l 706 606 q 656 681 693 654 q 567 708 619 708 q 434 650 489 708 q 361 493 379 592 q 356 433 356 465 q 391 319 356 361 q 492 278 426 278 q 590 305 544 278 q 667 381 636 332 l 992 381 q 784 99 929 204 q 447 -7 639 -7 q 226 42 318 -7 q 87 178 135 90 q 39 383 39 267 q 49 493 39 439 q 153 753 74 639 q 353 930 232 867 q 622 993 474 993 m 872 1140 l 622 1022 l 413 1140 l 447 1340 l 657 1218 l 907 1340 l 872 1140 z "},"č":{"ha":847,"x_min":18,"x_max":832,"o":"m 485 793 q 737 707 643 793 q 832 468 831 621 l 506 468 q 444 529 496 529 q 380 494 407 529 q 340 392 353 460 q 335 340 335 353 q 351 276 335 297 q 397 254 368 254 q 478 315 450 254 l 804 315 q 630 76 750 163 q 357 -10 510 -10 q 110 78 203 -10 q 18 321 18 167 q 28 419 18 358 q 113 618 49 533 q 274 748 178 703 q 485 793 371 793 m 726 940 l 476 822 l 267 940 l 301 1140 l 511 1018 l 761 1140 l 726 940 z "},"Ď":{"ha":1032,"x_min":-24,"x_max":992,"o":"m 983 494 q 876 242 958 354 q 667 65 794 129 q 386 0 540 0 l -24 0 l 149 983 l 558 983 q 792 934 694 983 q 940 797 889 885 q 992 593 992 708 q 983 494 992 547 m 406 275 q 581 332 510 275 q 671 494 653 389 q 676 547 676 531 q 625 671 676 628 q 483 714 574 714 l 410 714 l 332 275 l 406 275 m 864 1140 l 614 1022 l 404 1140 l 439 1340 l 649 1218 l 899 1340 l 864 1140 z "},"ď":{"ha":1189,"x_min":35,"x_max":1256,"o":"m 1004 1028 l 822 0 l 514 0 l 533 107 q 434 22 494 53 q 297 -10 374 -10 q 107 74 179 -10 q 35 307 35 158 q 44 419 35 363 q 122 619 65 535 q 258 749 178 704 q 425 793 338 793 q 560 762 507 793 q 633 676 614 731 l 696 1028 l 1004 1028 m 1246 1028 q 1256 926 1256 981 q 1249 842 1256 888 q 1159 665 1229 733 q 976 596 1089 596 l 996 706 q 1090 808 1072 706 l 1093 825 l 993 825 l 1029 1028 l 1246 1028 m 494 524 q 406 489 444 524 q 357 392 368 454 q 354 358 354 379 q 379 285 354 311 q 447 260 404 260 q 535 294 497 260 q 585 392 574 329 q 588 425 588 404 q 563 498 588 472 q 494 524 538 524 z "},"Đ":{"ha":1031,"x_min":-11,"x_max":1008,"o":"m 575 983 q 808 934 711 983 q 957 797 906 885 q 1008 593 1008 708 q 1000 494 1008 547 q 893 242 975 354 q 684 65 811 129 q 403 0 557 0 l -7 0 l 58 372 l -11 372 l 32 617 l 101 617 l 165 983 l 575 983 m 688 494 q 693 547 693 531 q 642 671 693 628 q 500 714 590 714 l 426 714 l 410 617 l 590 617 l 547 372 l 365 372 l 349 275 l 422 275 q 598 332 526 275 q 688 494 669 389 z "},"đ":{"ha":943,"x_min":35,"x_max":1036,"o":"m 1013 822 l 968 822 l 822 0 l 514 0 l 533 107 q 434 22 494 53 q 297 -10 374 -10 q 107 74 179 -10 q 35 307 35 158 q 44 419 35 363 q 122 619 65 535 q 258 749 178 704 q 425 793 338 793 q 560 762 507 793 q 633 676 614 731 l 660 822 l 533 822 l 557 956 l 683 956 l 696 1028 l 1004 1028 l 992 956 l 1036 956 l 1013 822 m 585 392 q 588 425 588 404 q 563 498 588 472 q 494 524 538 524 q 406 489 444 524 q 357 392 368 454 q 354 358 354 379 q 379 285 354 311 q 447 260 404 260 q 535 294 497 260 q 585 392 574 329 z "},"Ē":{"ha":772,"x_min":-17,"x_max":833,"o":"m 421 739 l 400 617 l 706 617 l 664 385 l 358 385 l 335 246 l 682 246 l 639 0 l -17 0 l 156 983 l 811 983 l 768 739 l 421 739 m 833 1268 l 797 1064 l 199 1064 l 235 1268 l 833 1268 z "},"ē":{"ha":853,"x_min":25,"x_max":840,"o":"m 501 793 q 749 710 657 793 q 840 485 840 628 q 832 399 840 444 q 814 338 824 361 l 322 338 q 321 310 321 328 q 338 252 321 268 q 388 236 356 236 q 468 282 439 236 l 794 282 q 630 72 746 153 q 360 -10 514 -10 q 115 76 206 -10 q 25 313 25 161 q 33 407 25 357 q 121 613 54 525 q 286 747 188 700 q 501 793 385 793 m 531 464 q 532 485 532 471 q 511 535 532 518 q 458 551 490 551 q 346 464 375 551 l 531 464 m 833 1068 l 797 864 l 199 864 l 235 1068 l 833 1068 z "},"Ĕ":{"ha":772,"x_min":-24,"x_max":804,"o":"m 414 739 l 393 617 l 699 617 l 657 385 l 351 385 l 328 246 l 675 246 l 632 0 l -24 0 l 149 983 l 804 983 l 761 739 l 414 739 m 482 1033 q 323 1088 383 1033 q 263 1246 263 1142 q 269 1315 263 1274 l 274 1339 l 417 1339 q 415 1319 415 1332 q 439 1269 415 1286 q 519 1253 463 1253 q 615 1274 585 1253 q 653 1339 646 1296 l 796 1339 l 792 1315 q 683 1106 768 1178 q 482 1033 597 1033 z "},"ĕ":{"ha":854,"x_min":19,"x_max":835,"o":"m 496 793 q 743 710 651 793 q 835 485 835 628 q 826 399 835 444 q 808 338 818 361 l 317 338 q 315 310 315 328 q 333 252 315 268 q 382 236 350 236 q 463 282 433 236 l 789 282 q 624 72 740 153 q 354 -10 508 -10 q 110 76 200 -10 q 19 313 19 161 q 28 407 19 357 q 115 613 49 525 q 281 747 182 700 q 496 793 379 793 m 525 464 q 526 485 526 471 q 506 535 526 518 q 453 551 485 551 q 340 464 369 551 l 525 464 m 483 833 q 324 888 385 833 q 264 1046 264 942 q 271 1115 264 1074 l 275 1139 l 418 1139 q 417 1119 417 1132 q 440 1069 417 1086 q 521 1053 464 1053 q 617 1074 586 1053 q 654 1139 647 1096 l 797 1139 l 793 1115 q 684 906 769 978 q 483 833 599 833 z "},"Ė":{"ha":772,"x_min":-21,"x_max":807,"o":"m 417 739 l 396 617 l 701 617 l 660 385 l 354 385 l 331 246 l 678 246 l 635 0 l -21 0 l 151 983 l 807 983 l 764 739 l 417 739 m 390 1157 q 433 1258 390 1217 q 532 1300 475 1300 q 606 1273 578 1300 q 635 1203 635 1246 q 592 1103 635 1144 q 490 1061 549 1061 q 419 1088 447 1061 q 390 1157 390 1115 z "},"ė":{"ha":853,"x_min":22,"x_max":838,"o":"m 499 793 q 746 710 654 793 q 838 485 838 628 q 829 399 838 444 q 811 338 821 361 l 319 338 q 318 310 318 328 q 335 252 318 268 q 385 236 353 236 q 465 282 436 236 l 792 282 q 627 72 743 153 q 357 -10 511 -10 q 113 76 203 -10 q 22 313 22 161 q 31 407 22 357 q 118 613 51 525 q 283 747 185 700 q 499 793 382 793 m 528 464 q 529 485 529 471 q 508 535 529 518 q 456 551 488 551 q 343 464 372 551 l 528 464 m 390 957 q 433 1058 390 1017 q 532 1100 475 1100 q 606 1073 578 1100 q 635 1003 635 1046 q 592 903 635 944 q 490 861 549 861 q 419 888 447 861 q 390 957 390 915 z "},"Ę":{"ha":772,"x_min":-22,"x_max":806,"o":"m 415 739 l 394 617 l 700 617 l 658 385 l 353 385 l 329 246 l 676 246 l 633 0 l -22 0 l 150 983 l 806 983 l 763 739 l 415 739 m 657 139 l 632 0 l 493 0 q 453 -21 457 0 l 453 -25 q 485 -43 453 -43 l 686 -43 l 658 -200 l 425 -200 q 297 -168 350 -200 q 244 -65 244 -136 q 247 -31 244 -43 q 294 69 258 31 q 375 123 331 107 q 458 139 419 139 l 657 139 z "},"ę":{"ha":856,"x_min":38,"x_max":854,"o":"m 515 793 q 763 711 671 793 q 854 486 854 629 q 846 399 854 444 q 829 338 843 375 l 336 338 q 335 317 335 329 q 404 236 335 236 q 483 282 454 236 l 810 282 q 685 106 771 181 q 488 4 599 31 q 454 -28 454 -4 q 499 -50 454 -50 l 672 -50 l 646 -207 l 426 -207 q 298 -175 351 -207 q 244 -72 244 -143 q 247 -37 244 -50 l 256 6 q 95 111 153 35 q 38 303 38 188 q 46 392 38 344 q 133 605 67 514 q 299 744 200 696 q 515 793 399 793 m 546 464 q 547 485 547 471 q 526 535 547 518 q 474 551 506 551 q 360 464 389 551 l 546 464 z "},"Ě":{"ha":772,"x_min":-24,"x_max":804,"o":"m 414 739 l 393 617 l 699 617 l 657 385 l 351 385 l 328 246 l 675 246 l 632 0 l -24 0 l 149 983 l 804 983 l 761 739 l 414 739 m 732 1140 l 482 1022 l 272 1140 l 307 1340 l 517 1218 l 767 1340 l 732 1140 z "},"ě":{"ha":854,"x_min":19,"x_max":835,"o":"m 496 793 q 743 710 651 793 q 835 485 835 628 q 826 399 835 444 q 808 338 818 361 l 317 338 q 315 310 315 328 q 333 252 315 268 q 382 236 350 236 q 463 282 433 236 l 789 282 q 624 72 740 153 q 354 -10 508 -10 q 110 76 200 -10 q 19 313 19 161 q 28 407 19 357 q 115 613 49 525 q 281 747 182 700 q 496 793 379 793 m 525 464 q 526 485 526 471 q 506 535 526 518 q 453 551 485 551 q 340 464 369 551 l 525 464 m 733 940 l 483 822 l 274 940 l 308 1140 l 518 1018 l 768 1140 l 733 940 z "},"Ğ":{"ha":1044,"x_min":26,"x_max":1019,"o":"m 621 993 q 836 949 747 993 q 970 826 925 904 q 1019 647 1015 747 l 694 647 q 651 692 682 676 q 574 708 621 708 q 426 651 485 708 q 349 493 367 593 q 342 426 342 454 q 388 304 342 344 q 529 264 433 264 q 717 350 636 264 l 471 350 l 510 568 l 1011 568 l 957 260 q 449 -7 792 -7 q 222 43 317 -7 q 76 184 126 93 q 26 396 26 275 q 36 507 26 453 q 141 759 61 649 q 345 931 221 869 q 621 993 469 993 m 608 1033 q 449 1088 510 1033 q 389 1246 389 1142 q 396 1315 389 1274 l 400 1339 l 543 1339 q 542 1319 542 1332 q 565 1269 542 1286 q 646 1253 589 1253 q 742 1274 711 1253 q 779 1339 772 1296 l 922 1339 l 918 1315 q 809 1106 894 1178 q 608 1033 724 1033 z "},"ğ":{"ha":943,"x_min":-50,"x_max":924,"o":"m 260 -10 q 69 74 142 -10 q -3 307 -3 158 q 7 419 -3 363 q 84 619 28 535 q 220 749 140 704 q 388 793 300 793 q 524 762 469 793 q 597 676 578 731 l 617 783 l 924 783 l 788 14 q 644 -272 757 -158 q 331 -385 531 -385 q 48 -297 146 -385 q -50 -57 -50 -210 l 253 -57 q 342 -118 256 -118 q 431 -90 396 -118 q 481 14 467 -62 l 497 107 q 397 22 458 53 q 260 -10 336 -10 m 457 524 q 369 489 407 524 q 319 392 331 454 q 317 358 317 379 q 342 285 317 311 q 410 260 367 260 q 498 294 460 260 q 547 392 536 329 q 550 425 550 404 q 525 498 550 472 q 457 524 500 524 m 553 833 q 394 888 454 833 q 333 1046 333 942 q 340 1115 333 1074 l 344 1139 l 488 1139 q 486 1119 486 1132 q 510 1069 486 1086 q 590 1053 533 1053 q 686 1074 656 1053 q 724 1139 717 1096 l 867 1139 l 863 1115 q 753 906 839 978 q 553 833 668 833 z "},"Ġ":{"ha":1044,"x_min":29,"x_max":1022,"o":"m 624 993 q 839 949 750 993 q 973 826 928 904 q 1022 647 1018 747 l 697 647 q 654 692 685 676 q 576 708 624 708 q 428 651 488 708 q 351 493 369 593 q 344 426 344 454 q 390 304 344 344 q 532 264 436 264 q 719 350 639 264 l 474 350 l 513 568 l 1014 568 l 960 260 q 451 -7 794 -7 q 224 43 319 -7 q 79 184 129 93 q 29 396 29 275 q 39 507 29 453 q 144 759 64 649 q 348 931 224 869 q 624 993 472 993 m 517 1157 q 559 1258 517 1217 q 658 1300 601 1300 q 733 1273 704 1300 q 761 1203 761 1246 q 718 1103 761 1144 q 617 1061 675 1061 q 545 1088 574 1061 q 517 1157 517 1115 z "},"ġ":{"ha":944,"x_min":-46,"x_max":928,"o":"m 264 -10 q 74 74 146 -10 q 1 307 1 158 q 11 419 1 363 q 88 619 32 535 q 224 749 144 704 q 392 793 304 793 q 528 762 474 793 q 601 676 582 731 l 621 783 l 928 783 l 792 14 q 648 -272 761 -158 q 335 -385 535 -385 q 52 -297 150 -385 q -46 -57 -46 -210 l 257 -57 q 346 -118 260 -118 q 435 -90 400 -118 q 485 14 471 -62 l 501 107 q 401 22 463 53 q 264 -10 340 -10 m 461 524 q 373 489 411 524 q 324 392 335 454 q 321 358 321 379 q 346 285 321 311 q 414 260 371 260 q 502 294 464 260 q 551 392 540 329 q 554 425 554 404 q 529 498 554 472 q 461 524 504 524 m 461 957 q 503 1058 461 1017 q 603 1100 546 1100 q 677 1073 649 1100 q 706 1003 706 1046 q 663 903 706 944 q 561 861 619 861 q 490 888 518 861 q 461 957 461 915 z "},"Ģ":{"ha":1051,"x_min":29,"x_max":1022,"o":"m 624 993 q 839 949 750 993 q 973 826 928 904 q 1022 647 1018 747 l 697 647 q 654 692 685 676 q 576 708 624 708 q 428 651 488 708 q 351 493 369 593 q 344 426 344 454 q 390 304 344 344 q 532 264 436 264 q 719 350 639 264 l 474 350 l 513 568 l 1014 568 l 960 260 q 451 -7 794 -7 q 224 43 319 -7 q 79 184 129 93 q 29 396 29 275 q 39 507 29 453 q 144 759 64 649 q 348 931 224 869 q 624 993 472 993 m 578 -49 q 588 -151 588 -97 q 581 -236 588 -190 q 491 -412 561 -343 q 308 -481 421 -481 l 326 -372 q 422 -268 403 -372 l 425 -253 l 325 -253 l 361 -49 l 578 -49 z "},"ģ":{"ha":943,"x_min":-49,"x_max":925,"o":"m 474 832 q 464 928 464 879 q 472 1019 464 976 q 561 1195 492 1126 q 743 1264 631 1264 l 724 1156 q 629 1051 647 1156 l 626 1036 l 726 1036 l 690 832 l 474 832 m 261 -10 q 71 74 143 -10 q -1 307 -1 158 q 8 419 -1 363 q 85 619 29 535 q 222 749 142 704 q 389 793 301 793 q 525 762 471 793 q 599 676 579 731 l 618 783 l 925 783 l 789 14 q 645 -272 758 -158 q 332 -385 532 -385 q 49 -297 147 -385 q -49 -57 -49 -210 l 254 -57 q 343 -118 257 -118 q 433 -90 397 -118 q 482 14 468 -62 l 499 107 q 399 22 460 53 q 261 -10 338 -10 m 458 524 q 370 489 408 524 q 321 392 332 454 q 318 358 318 379 q 343 285 318 311 q 411 260 368 260 q 499 294 461 260 q 549 392 538 329 q 551 425 551 404 q 526 498 551 472 q 458 524 501 524 z "},"Ĩ":{"ha":447,"x_min":-6,"x_max":693,"o":"m 475 983 l 303 0 l -6 0 l 167 983 l 475 983 m 279 1294 q 339 1285 313 1294 q 397 1257 365 1275 q 438 1237 424 1243 q 468 1231 451 1231 q 542 1296 519 1231 l 693 1296 q 581 1110 647 1167 q 426 1053 515 1053 q 367 1063 393 1053 q 308 1090 340 1072 q 289 1101 304 1093 q 261 1112 274 1108 q 238 1115 249 1115 q 163 1050 186 1115 l 13 1050 q 124 1237 58 1179 q 279 1294 190 1294 z "},"ĩ":{"ha":447,"x_min":7,"x_max":696,"o":"m 454 783 l 315 0 l 7 0 l 146 783 l 454 783 m 282 1094 q 342 1085 315 1094 q 400 1057 368 1075 q 440 1037 426 1043 q 471 1031 454 1031 q 544 1096 522 1031 l 696 1096 q 584 910 650 967 q 429 853 518 853 q 369 863 396 853 q 311 890 343 872 q 292 901 307 893 q 264 912 276 908 q 240 915 251 915 q 165 850 189 915 l 15 850 q 127 1037 61 979 q 282 1094 193 1094 z "},"Ī":{"ha":447,"x_min":-3,"x_max":674,"o":"m 478 983 l 306 0 l -3 0 l 169 983 l 478 983 m 674 1268 l 638 1064 l 39 1064 l 75 1268 l 674 1268 z "},"ī":{"ha":461,"x_min":10,"x_max":649,"o":"m 457 783 l 318 0 l 10 0 l 149 783 l 457 783 m 649 1068 l 613 864 l 14 864 l 50 1068 l 649 1068 z "},"Ĭ":{"ha":446,"x_min":-10,"x_max":636,"o":"m 471 983 l 299 0 l -10 0 l 163 983 l 471 983 m 322 1033 q 163 1088 224 1033 q 103 1246 103 1142 q 110 1315 103 1274 l 114 1339 l 257 1339 q 256 1319 256 1332 q 279 1269 256 1286 q 360 1253 303 1253 q 456 1274 425 1253 q 493 1339 486 1296 l 636 1339 l 632 1315 q 523 1106 608 1178 q 322 1033 438 1033 z "},"ĭ":{"ha":447,"x_min":4,"x_max":640,"o":"m 451 783 l 313 0 l 4 0 l 143 783 l 451 783 m 326 833 q 167 888 228 833 q 107 1046 107 942 q 114 1115 107 1074 l 118 1139 l 261 1139 q 260 1119 260 1132 q 283 1069 260 1086 q 364 1053 307 1053 q 460 1074 429 1053 q 497 1139 490 1096 l 640 1139 l 636 1115 q 527 906 613 978 q 326 833 442 833 z "},"Į":{"ha":446,"x_min":-114,"x_max":465,"o":"m 465 983 l 293 0 l -15 0 l 157 983 l 465 983 m 299 35 l 274 -104 l 135 -104 q 94 -125 99 -104 l 94 -129 q 126 -147 94 -147 l 328 -147 l 300 -304 l 67 -304 q -61 -272 -8 -304 q -114 -169 -114 -240 q -111 -135 -114 -147 q -64 -35 -100 -74 q 17 19 -28 3 q 100 35 61 35 l 299 35 z "},"į":{"ha":433,"x_min":-101,"x_max":496,"o":"m 136 972 q 163 1062 136 1021 q 238 1127 190 1103 q 344 1151 286 1151 q 456 1116 415 1151 q 496 1025 496 1081 q 469 935 496 976 q 396 870 443 894 q 290 846 349 846 q 177 881 218 846 q 136 972 136 917 m 432 783 l 294 0 l -14 0 l 124 783 l 432 783 m 311 35 l 286 -104 l 147 -104 q 107 -125 111 -104 l 107 -129 q 139 -147 107 -147 l 340 -147 l 313 -304 l 79 -304 q -49 -272 4 -304 q -101 -169 -101 -240 q -99 -135 -101 -147 q -51 -35 -87 -74 q 29 19 -15 3 q 113 35 74 35 l 311 35 z "},"İ":{"ha":447,"x_min":-7,"x_max":475,"o":"m 474 983 l 301 0 l -7 0 l 165 983 l 474 983 m 231 1157 q 273 1258 231 1217 q 372 1300 315 1300 q 447 1273 418 1300 q 475 1203 475 1246 q 432 1103 475 1144 q 331 1061 389 1061 q 259 1088 288 1061 q 231 1157 231 1115 z "},"ı":{"ha":433,"x_min":-7,"x_max":440,"o":"m 440 783 l 301 0 l -7 0 l 132 783 l 440 783 z "},"Ķ":{"ha":1039,"x_min":-19,"x_max":1118,"o":"m 671 506 l 946 0 l 575 0 l 364 426 l 289 0 l -19 0 l 153 983 l 461 983 l 389 568 l 750 983 l 1118 983 l 671 506 m 607 -49 q 617 -144 617 -96 q 608 -236 617 -193 q 519 -412 589 -343 q 338 -481 450 -481 l 357 -372 q 451 -268 433 -372 l 454 -253 l 354 -253 l 390 -49 l 607 -49 z "},"ķ":{"ha":939,"x_min":-7,"x_max":993,"o":"m 629 400 l 847 0 l 494 0 l 358 324 l 301 0 l -7 0 l 174 1028 l 482 1028 l 389 500 l 635 783 l 993 783 l 629 400 m 496 -49 q 506 -142 506 -93 q 497 -236 506 -190 q 408 -412 478 -343 q 226 -481 339 -481 l 246 -372 q 340 -268 322 -372 l 343 -253 l 243 -253 l 279 -49 l 496 -49 z "},"Ĺ":{"ha":703,"x_min":-29,"x_max":692,"o":"m 319 233 l 617 233 l 576 0 l -29 0 l 143 983 l 451 983 l 319 233 m 651 1167 l 268 1036 l 304 1242 l 692 1394 l 651 1167 z "},"ĺ":{"ha":418,"x_min":-12,"x_max":596,"o":"m 476 1028 l 296 0 l -12 0 l 168 1028 l 476 1028 m 556 1175 l 172 1044 l 208 1250 l 596 1403 l 556 1175 z "},"Ļ":{"ha":710,"x_min":-19,"x_max":626,"o":"m 329 233 l 626 233 l 586 0 l -19 0 l 153 983 l 461 983 l 329 233 m 454 -49 q 465 -153 465 -107 q 458 -236 465 -192 q 369 -412 439 -343 q 186 -481 299 -481 l 204 -372 q 300 -268 281 -372 l 303 -253 l 203 -253 l 238 -49 l 454 -49 z "},"ļ":{"ha":446,"x_min":7,"x_max":496,"o":"m 496 1028 l 315 0 l 7 0 l 188 1028 l 496 1028 m 281 -49 q 290 -142 290 -93 q 282 -236 290 -190 q 193 -412 263 -343 q 11 -481 124 -481 l 31 -372 q 125 -268 107 -372 l 128 -253 l 28 -253 l 64 -49 l 281 -49 z "},"Ľ":{"ha":801,"x_min":-21,"x_max":825,"o":"m 328 233 l 625 233 l 585 0 l -21 0 l 151 983 l 460 983 l 328 233 m 815 983 q 825 889 825 939 q 817 797 825 842 q 728 620 797 689 q 546 551 658 551 l 565 661 q 626 687 601 661 q 660 764 650 713 l 663 781 l 563 781 l 599 983 l 815 983 z "},"ľ":{"ha":689,"x_min":-7,"x_max":768,"o":"m 482 1028 l 301 0 l -7 0 l 174 1028 l 482 1028 m 758 1028 q 768 933 768 983 q 760 842 768 886 q 671 665 740 733 q 489 596 601 596 l 508 706 q 569 731 544 706 q 603 808 593 757 l 606 825 l 506 825 l 542 1028 l 758 1028 z "},"Ŀ":{"ha":703,"x_min":-19,"x_max":672,"o":"m 329 233 l 626 233 l 586 0 l -19 0 l 153 983 l 461 983 l 329 233 m 428 468 q 470 569 428 528 q 569 611 513 611 q 644 584 615 611 q 672 514 672 557 q 629 414 672 456 q 528 372 586 372 q 456 399 485 372 q 428 468 428 426 z "},"ŀ":{"ha":653,"x_min":-7,"x_max":688,"o":"m 482 1028 l 301 0 l -7 0 l 174 1028 l 482 1028 m 443 490 q 485 592 443 550 q 585 633 528 633 q 659 606 631 633 q 688 536 688 579 q 644 436 688 478 q 543 394 601 394 q 472 422 500 394 q 443 490 443 449 z "},"Ł":{"ha":724,"x_min":-18,"x_max":650,"o":"m 650 233 l 610 0 l 4 0 l 61 328 l -18 307 l 35 607 l 114 628 l 176 983 l 485 983 l 438 713 l 547 742 l 494 442 l 385 413 l 353 233 l 650 233 z "},"ł":{"ha":447,"x_min":-36,"x_max":529,"o":"m 476 442 l 382 417 l 308 0 l 0 0 l 58 332 l -36 307 l 17 607 l 111 632 l 181 1028 l 489 1028 l 435 717 l 529 742 l 476 442 z "},"Ń":{"ha":1081,"x_min":-29,"x_max":1086,"o":"m 914 0 l 606 0 l 365 494 l 279 0 l -29 0 l 143 983 l 451 983 l 690 481 l 778 983 l 1086 983 l 914 0 m 818 1167 l 435 1036 l 471 1242 l 858 1394 l 818 1167 z "},"ń":{"ha":968,"x_min":6,"x_max":929,"o":"m 693 789 q 868 723 807 789 q 929 540 929 657 q 921 454 929 500 l 840 0 l 533 0 l 607 415 q 610 444 610 435 q 585 512 610 488 q 518 536 561 536 q 432 503 467 536 q 388 415 397 471 l 388 422 l 314 0 l 6 0 l 143 783 l 451 783 l 431 664 q 544 754 478 719 q 693 789 610 789 m 747 967 l 364 836 l 400 1042 l 788 1194 l 747 967 z "},"Ņ":{"ha":1085,"x_min":-17,"x_max":1099,"o":"m 926 0 l 618 0 l 378 494 l 292 0 l -17 0 l 156 983 l 464 983 l 703 481 l 790 983 l 1099 983 l 926 0 m 617 -49 q 628 -150 628 -104 q 619 -236 628 -194 q 530 -412 600 -343 q 347 -481 460 -481 l 367 -372 q 461 -268 443 -372 l 464 -253 l 364 -253 l 400 -49 l 617 -49 z "},"ņ":{"ha":968,"x_min":0,"x_max":924,"o":"m 688 789 q 863 723 801 789 q 924 540 924 657 q 915 454 924 500 l 835 0 l 528 0 l 601 415 q 604 444 604 435 q 580 512 604 488 q 513 536 556 536 q 426 503 461 536 q 382 415 392 471 l 382 422 l 308 0 l 0 0 l 138 783 l 446 783 l 425 664 q 538 754 472 719 q 688 789 604 789 m 574 -49 q 583 -144 583 -96 q 575 -236 583 -193 q 486 -412 556 -343 q 304 -481 417 -481 l 324 -372 q 418 -268 400 -372 l 421 -253 l 321 -253 l 357 -49 l 574 -49 z "},"Ň":{"ha":1082,"x_min":-24,"x_max":1092,"o":"m 919 0 l 611 0 l 371 494 l 285 0 l -24 0 l 149 983 l 457 983 l 696 481 l 783 983 l 1092 983 l 919 0 m 875 1140 l 625 1022 l 415 1140 l 450 1340 l 660 1218 l 910 1340 l 875 1140 z "},"ň":{"ha":969,"x_min":11,"x_max":935,"o":"m 699 789 q 874 723 813 789 q 935 540 935 657 q 926 454 935 500 l 846 0 l 539 0 l 613 415 q 615 444 615 435 q 591 512 615 488 q 524 536 567 536 q 438 503 472 536 q 393 415 403 471 l 393 422 l 319 0 l 11 0 l 149 783 l 457 783 l 436 664 q 549 754 483 719 q 699 789 615 789 m 804 940 l 554 822 l 344 940 l 379 1140 l 589 1018 l 839 1140 l 804 940 z "},"Ō":{"ha":1072,"x_min":33,"x_max":1039,"o":"m 585 1000 q 828 945 725 1000 q 985 791 931 890 q 1039 561 1039 692 q 1028 440 1039 507 q 932 206 1004 308 q 747 47 860 104 q 490 -10 633 -10 q 243 44 346 -10 q 87 197 140 99 q 33 426 33 296 q 44 551 33 494 q 141 785 68 683 q 328 943 214 886 q 585 1000 442 1000 m 563 715 q 418 660 475 715 q 344 510 361 606 q 339 450 339 482 q 383 324 339 369 q 513 278 426 278 q 656 333 599 278 q 729 482 714 389 q 735 543 735 511 q 691 670 735 625 q 563 715 647 715 m 985 1268 l 949 1064 l 350 1064 l 386 1268 l 985 1268 z "},"ō":{"ha":885,"x_min":39,"x_max":883,"o":"m 524 793 q 711 753 629 793 q 838 636 793 713 q 883 456 883 560 q 875 364 883 413 q 787 165 854 250 q 619 35 719 81 q 404 -10 519 -10 q 213 31 296 -10 q 85 149 131 72 q 39 329 39 225 q 47 419 39 372 q 136 618 68 533 q 306 748 204 703 q 524 793 407 793 m 485 526 q 407 492 442 526 q 360 392 372 458 q 356 351 356 369 q 378 281 356 304 q 438 257 400 257 q 515 291 481 257 q 563 392 550 325 q 567 432 567 413 q 544 503 567 479 q 485 526 521 526 m 861 1068 l 825 864 l 226 864 l 263 1068 l 861 1068 z "},"Ŏ":{"ha":1072,"x_min":17,"x_max":1022,"o":"m 568 1000 q 811 945 708 1000 q 968 791 914 890 q 1022 561 1022 692 q 1011 440 1022 507 q 915 206 988 308 q 730 47 843 104 q 474 -10 617 -10 q 226 44 329 -10 q 70 197 124 99 q 17 426 17 296 q 28 551 17 494 q 124 785 51 683 q 311 943 197 886 q 568 1000 425 1000 m 546 715 q 401 660 458 715 q 328 510 344 606 q 322 450 322 482 q 366 324 322 369 q 496 278 410 278 q 640 333 582 278 q 713 482 697 389 q 718 543 718 511 q 674 670 718 625 q 546 715 631 715 m 622 1033 q 463 1088 524 1033 q 403 1246 403 1142 q 410 1315 403 1274 l 414 1339 l 557 1339 q 556 1319 556 1332 q 579 1269 556 1286 q 660 1253 603 1253 q 756 1274 725 1253 q 793 1339 786 1296 l 936 1339 l 932 1315 q 823 1106 908 1178 q 622 1033 738 1033 z "},"ŏ":{"ha":885,"x_min":19,"x_max":864,"o":"m 504 793 q 692 753 610 793 q 819 636 774 713 q 864 456 864 560 q 856 364 864 413 q 767 165 835 250 q 600 35 700 81 q 385 -10 500 -10 q 194 31 276 -10 q 65 149 111 72 q 19 329 19 225 q 28 419 19 372 q 117 618 49 533 q 286 748 185 703 q 504 793 388 793 m 465 526 q 388 492 422 526 q 340 392 353 458 q 336 351 336 369 q 358 281 336 304 q 418 257 381 257 q 496 291 461 257 q 543 392 531 325 q 547 432 547 413 q 524 503 547 479 q 465 526 501 526 m 497 833 q 338 888 399 833 q 278 1046 278 942 q 285 1115 278 1074 l 289 1139 l 432 1139 q 431 1119 431 1132 q 454 1069 431 1086 q 535 1053 478 1053 q 631 1074 600 1053 q 668 1139 661 1096 l 811 1139 l 807 1115 q 698 906 783 978 q 497 833 613 833 z "},"Ő":{"ha":1072,"x_min":14,"x_max":1101,"o":"m 565 1000 q 808 945 706 1000 q 965 791 911 890 q 1019 561 1019 692 q 1008 440 1019 507 q 913 206 985 308 q 727 47 840 104 q 471 -10 614 -10 q 224 44 326 -10 q 67 197 121 99 q 14 426 14 296 q 25 551 14 494 q 122 785 49 683 q 308 943 194 886 q 565 1000 422 1000 m 543 715 q 399 660 456 715 q 325 510 342 606 q 319 450 319 482 q 363 324 319 369 q 493 278 407 278 q 637 333 579 278 q 710 482 694 389 q 715 543 715 511 q 672 670 715 625 q 543 715 628 715 m 540 1035 l 356 1035 l 528 1374 l 761 1374 l 540 1035 m 846 1035 l 661 1035 l 868 1374 l 1101 1374 l 846 1035 z "},"ő":{"ha":885,"x_min":31,"x_max":1006,"o":"m 515 793 q 703 753 621 793 q 830 636 785 713 q 875 456 875 560 q 867 364 875 413 q 778 165 846 250 q 611 35 711 81 q 396 -10 511 -10 q 205 31 288 -10 q 76 149 122 72 q 31 329 31 225 q 39 419 31 372 q 128 618 60 533 q 297 748 196 703 q 515 793 399 793 m 476 526 q 399 492 433 526 q 351 392 364 458 q 347 351 347 369 q 369 281 347 304 q 429 257 392 257 q 507 291 472 257 q 554 392 542 325 q 558 432 558 413 q 535 503 558 479 q 476 526 513 526 m 444 835 l 260 835 l 432 1174 l 665 1174 l 444 835 m 750 835 l 565 835 l 772 1174 l 1006 1174 l 750 835 z "},"Œ":{"ha":1458,"x_min":32,"x_max":1497,"o":"m 1085 617 l 1390 617 l 1350 385 l 1044 385 l 1019 246 l 1367 246 l 1324 0 l 668 0 l 678 51 q 436 -17 586 -10 q 224 36 315 -17 q 82 184 132 89 q 32 403 32 279 q 43 519 32 456 q 144 770 68 661 q 338 940 219 879 q 603 1000 456 1000 q 733 983 672 1000 q 833 932 793 967 l 842 983 l 1497 983 l 1454 739 l 1107 739 l 1085 617 m 511 268 q 663 328 603 268 q 742 492 722 388 q 747 551 747 519 q 706 672 747 629 q 589 715 665 715 q 440 659 499 715 q 364 506 381 603 q 358 439 358 474 q 397 313 358 358 q 511 268 436 268 z "},"œ":{"ha":1372,"x_min":6,"x_max":1351,"o":"m 1013 793 q 1260 710 1168 793 q 1351 485 1351 628 q 1343 399 1351 444 q 1325 338 1335 361 l 833 338 q 832 310 832 328 q 849 252 832 268 q 899 236 867 236 q 979 282 950 236 l 1306 282 q 1210 133 1275 199 q 1056 28 1144 67 q 871 -10 968 -10 q 631 68 724 -10 q 502 10 572 31 q 357 -10 432 -10 q 173 28 253 -10 q 49 138 93 67 q 6 308 6 210 q 14 392 6 349 q 106 605 36 514 q 278 744 175 696 q 499 793 381 793 q 744 715 650 793 q 1013 793 864 793 m 1042 464 q 1043 485 1043 471 q 1022 535 1043 518 q 969 551 1001 551 q 857 464 886 551 l 1042 464 m 529 392 q 533 432 533 413 q 510 503 533 479 q 451 526 488 526 q 374 492 408 526 q 326 392 339 458 q 322 351 322 369 q 344 281 322 304 q 404 257 367 257 q 482 291 447 257 q 529 392 517 325 z "},"Ŕ":{"ha":931,"x_min":-29,"x_max":925,"o":"m 601 983 q 842 912 760 983 q 925 722 925 840 q 919 661 925 689 q 833 485 901 561 q 656 376 764 410 l 804 0 l 465 0 l 340 353 l 279 0 l -29 0 l 143 983 l 601 983 m 376 558 l 499 558 q 603 642 589 558 q 604 660 604 649 q 585 708 604 690 q 529 725 567 725 l 407 725 l 376 558 m 764 1167 l 381 1036 l 417 1242 l 804 1394 l 764 1167 z "},"ŕ":{"ha":649,"x_min":6,"x_max":710,"o":"m 426 639 q 561 748 486 707 q 710 789 636 789 l 651 460 l 564 460 q 430 429 476 460 q 371 321 383 399 l 314 0 l 6 0 l 143 783 l 451 783 l 426 639 m 613 967 l 229 836 l 265 1042 l 653 1194 l 613 967 z "},"Ŗ":{"ha":974,"x_min":-61,"x_max":893,"o":"m 569 983 q 810 912 728 983 q 893 722 893 840 q 888 661 893 689 q 801 485 869 561 q 624 376 732 410 l 772 0 l 433 0 l 308 353 l 247 0 l -61 0 l 111 983 l 569 983 m 344 558 l 467 558 q 571 642 557 558 q 572 660 572 649 q 553 708 572 690 q 497 725 535 725 l 375 725 l 344 558 m 539 -49 q 550 -150 550 -104 q 542 -236 550 -194 q 452 -412 522 -343 q 269 -481 382 -481 l 289 -372 q 383 -268 365 -372 l 386 -253 l 286 -253 l 322 -49 l 539 -49 z "},"ŗ":{"ha":647,"x_min":-14,"x_max":690,"o":"m 407 639 q 542 748 467 707 q 690 789 617 789 l 632 460 l 544 460 q 410 429 457 460 q 351 321 364 399 l 294 0 l -14 0 l 124 783 l 432 783 l 407 639 m 292 -49 q 301 -144 301 -96 q 293 -236 301 -193 q 204 -412 274 -343 q 22 -481 135 -481 l 42 -372 q 136 -268 118 -372 l 139 -253 l 39 -253 l 75 -49 l 292 -49 z "},"Ř":{"ha":931,"x_min":-24,"x_max":931,"o":"m 607 983 q 848 912 765 983 q 931 722 931 840 q 925 661 931 689 q 838 485 907 561 q 661 376 769 410 l 810 0 l 471 0 l 346 353 l 285 0 l -24 0 l 149 983 l 607 983 m 382 558 l 504 558 q 608 642 594 558 q 610 660 610 649 q 591 708 610 690 q 535 725 572 725 l 413 725 l 382 558 m 821 1140 l 571 1022 l 361 1140 l 396 1340 l 606 1218 l 856 1340 l 821 1140 z "},"ř":{"ha":649,"x_min":11,"x_max":715,"o":"m 432 639 q 567 748 492 707 q 715 789 642 789 l 657 460 l 569 460 q 435 429 482 460 q 376 321 389 399 l 319 0 l 11 0 l 149 783 l 457 783 l 432 639 m 669 940 l 419 822 l 210 940 l 244 1140 l 454 1018 l 704 1140 l 669 940 z "},"Ś":{"ha":863,"x_min":-4,"x_max":829,"o":"m 776 249 q 712 117 764 176 q 575 24 660 58 q 382 -10 490 -10 q 99 75 200 -10 q -4 315 -3 160 l 324 315 q 385 231 315 231 q 429 246 411 231 q 447 290 447 261 q 415 346 447 324 q 311 399 382 368 q 181 462 233 431 q 92 548 129 493 q 54 685 54 603 q 61 756 54 714 q 191 936 82 872 q 449 1000 300 1000 q 732 917 639 1000 q 829 682 825 833 l 497 682 q 447 760 504 760 q 409 745 425 760 q 393 703 393 731 q 424 652 393 672 q 524 604 456 632 q 655 542 603 572 q 745 458 707 513 q 783 319 783 403 q 776 249 783 290 m 713 1167 l 329 1036 l 365 1242 l 753 1394 l 713 1167 z "},"ś":{"ha":817,"x_min":13,"x_max":793,"o":"m 419 793 q 687 716 594 793 q 793 513 779 639 l 492 513 q 393 579 485 579 q 349 572 365 579 q 333 547 333 565 q 363 516 333 528 q 457 489 393 504 q 607 444 547 467 q 712 374 667 421 q 757 250 757 326 q 751 199 757 222 q 641 48 733 106 q 390 -10 549 -10 q 124 63 225 -10 q 13 271 22 136 l 314 271 q 340 218 311 233 q 415 203 369 203 q 475 233 468 203 q 451 268 479 256 q 353 296 422 281 q 206 338 265 315 q 103 406 147 360 q 58 529 58 453 q 64 582 58 546 q 171 733 79 674 q 419 793 263 793 m 665 967 l 282 836 l 318 1042 l 706 1194 l 665 967 z "},"Ş":{"ha":864,"x_min":8,"x_max":842,"o":"m 789 249 q 724 117 776 176 q 588 24 672 58 q 394 -10 503 -10 q 111 75 213 -10 q 8 315 10 160 l 336 315 q 397 231 328 231 q 442 246 424 231 q 460 290 460 261 q 427 346 460 324 q 324 399 394 368 q 194 462 246 431 q 104 548 142 493 q 67 685 67 603 q 74 756 67 714 q 203 936 94 872 q 461 1000 313 1000 q 744 917 651 1000 q 842 682 838 833 l 510 682 q 460 760 517 760 q 422 745 438 760 q 406 703 406 731 q 437 652 406 672 q 536 604 468 632 q 667 542 615 572 q 758 458 719 513 q 796 319 796 403 q 789 249 796 290 m 474 -37 q 578 -69 531 -37 q 626 -171 626 -101 q 624 -207 626 -194 q 538 -337 607 -297 q 385 -376 468 -376 l 144 -376 l 172 -219 l 381 -219 q 408 -213 397 -219 q 421 -197 419 -207 l 421 -193 q 389 -176 421 -176 l 271 -176 l 304 10 l 482 10 l 474 -37 z "},"ş":{"ha":817,"x_min":14,"x_max":794,"o":"m 421 793 q 688 716 596 793 q 794 513 781 639 l 493 513 q 394 579 486 579 q 351 572 367 579 q 335 547 335 565 q 365 516 335 528 q 458 489 394 504 q 608 444 549 467 q 713 374 668 421 q 758 250 758 326 q 753 199 758 222 q 642 48 735 106 q 392 -10 550 -10 q 125 63 226 -10 q 14 271 24 136 l 315 271 q 342 218 313 233 q 417 203 371 203 q 476 233 469 203 q 452 268 481 256 q 354 296 424 281 q 208 338 267 315 q 104 406 149 360 q 60 529 60 453 q 65 582 60 546 q 172 733 81 674 q 421 793 264 793 m 493 -37 q 598 -69 550 -37 q 646 -171 646 -101 q 643 -207 646 -194 q 557 -337 626 -297 q 404 -376 488 -376 l 164 -376 l 192 -219 l 400 -219 q 428 -213 417 -219 q 440 -197 439 -207 l 440 -193 q 408 -176 440 -176 l 290 -176 l 324 10 l 501 10 l 493 -37 z "},"Š":{"ha":864,"x_min":1,"x_max":835,"o":"m 782 249 q 717 117 769 176 q 581 24 665 58 q 388 -10 496 -10 q 104 75 206 -10 q 1 315 3 160 l 329 315 q 390 231 321 231 q 435 246 417 231 q 453 290 453 261 q 420 346 453 324 q 317 399 388 368 q 187 462 239 431 q 97 548 135 493 q 60 685 60 603 q 67 756 60 714 q 197 936 88 872 q 454 1000 306 1000 q 738 917 644 1000 q 835 682 831 833 l 503 682 q 453 760 510 760 q 415 745 431 760 q 399 703 399 731 q 430 652 399 672 q 529 604 461 632 q 660 542 608 572 q 751 458 713 513 q 789 319 789 403 q 782 249 789 290 m 768 1140 l 518 1022 l 308 1140 l 343 1340 l 553 1218 l 803 1340 l 768 1140 z "},"š":{"ha":817,"x_min":18,"x_max":799,"o":"m 425 793 q 692 716 600 793 q 799 513 785 639 l 497 513 q 399 579 490 579 q 355 572 371 579 q 339 547 339 565 q 369 516 339 528 q 463 489 399 504 q 613 444 553 467 q 717 374 672 421 q 763 250 763 326 q 757 199 763 222 q 647 48 739 106 q 396 -10 554 -10 q 129 63 231 -10 q 18 271 28 136 l 319 271 q 346 218 317 233 q 421 203 375 203 q 481 233 474 203 q 456 268 485 256 q 358 296 428 281 q 212 338 271 315 q 108 406 153 360 q 64 529 64 453 q 69 582 64 546 q 176 733 85 674 q 425 793 268 793 m 722 940 l 472 822 l 263 940 l 297 1140 l 507 1018 l 757 1140 l 722 940 z "},"Ţ":{"ha":856,"x_min":57,"x_max":928,"o":"m 928 983 l 885 739 l 624 739 l 493 0 q 543 -103 543 -46 q 540 -135 543 -112 q 454 -265 524 -225 q 301 -304 385 -304 l 68 -304 l 96 -147 l 304 -147 q 338 -125 333 -147 l 338 -119 q 313 -104 338 -104 l 167 -104 l 315 739 l 57 739 l 100 983 l 928 983 z "},"ţ":{"ha":606,"x_min":33,"x_max":613,"o":"m 401 315 q 400 301 400 310 q 450 263 400 263 l 524 263 l 476 0 l 381 0 l 374 -37 q 479 -70 431 -37 q 528 -172 528 -103 q 525 -207 528 -194 q 439 -337 508 -297 q 286 -376 369 -376 l 46 -376 l 74 -219 l 282 -219 q 310 -213 299 -219 q 322 -197 321 -207 l 322 -193 q 290 -176 322 -176 l 172 -176 l 207 26 q 86 232 86 78 q 94 321 86 274 l 131 526 l 33 526 l 79 783 l 176 783 l 210 972 l 518 972 l 485 783 l 613 783 l 567 526 l 439 526 l 401 315 z "},"Ť":{"ha":856,"x_min":50,"x_max":921,"o":"m 921 983 l 878 739 l 617 739 l 488 0 l 179 0 l 308 739 l 50 739 l 93 983 l 921 983 m 763 1140 l 513 1022 l 303 1140 l 338 1340 l 547 1218 l 797 1340 l 763 1140 z "},"ť":{"ha":592,"x_min":17,"x_max":793,"o":"m 782 1236 q 793 1132 793 1176 q 788 1064 793 1096 q 701 906 769 967 q 519 846 633 846 l 539 956 q 625 1010 615 956 l 629 1033 l 529 1033 l 565 1236 l 782 1236 m 468 783 l 596 783 l 550 526 l 422 526 l 385 315 q 383 301 383 310 q 433 263 383 263 l 507 263 l 460 0 l 343 0 q 69 232 69 0 q 78 321 69 274 l 114 526 l 17 526 l 63 783 l 160 783 l 193 972 l 501 972 l 468 783 z "},"Ũ":{"ha":999,"x_min":42,"x_max":1019,"o":"m 456 983 l 358 429 q 354 383 354 407 q 379 309 354 336 q 458 282 404 282 q 564 322 525 282 q 615 429 603 361 l 713 983 l 1019 983 l 922 429 q 821 190 897 289 q 635 40 744 90 q 400 -10 525 -10 q 138 76 235 -10 q 42 324 42 163 q 51 429 42 376 l 149 983 l 456 983 m 542 1294 q 601 1285 575 1294 q 660 1257 628 1275 q 700 1237 686 1243 q 731 1231 714 1231 q 804 1296 782 1231 l 956 1296 q 844 1110 910 1167 q 689 1053 778 1053 q 629 1063 656 1053 q 571 1090 603 1072 q 551 1101 567 1093 q 524 1112 536 1108 q 500 1115 511 1115 q 425 1050 449 1115 l 275 1050 q 387 1237 321 1179 q 542 1294 453 1294 z "},"ũ":{"ha":968,"x_min":46,"x_max":969,"o":"m 969 783 l 832 0 l 524 0 l 544 119 q 431 29 497 64 q 282 -6 365 -6 q 107 60 168 -6 q 46 243 46 126 q 54 329 46 283 l 135 783 l 442 783 l 368 368 q 365 339 365 349 q 390 272 365 296 q 457 247 414 247 q 543 280 508 247 q 588 368 578 313 l 588 361 l 661 783 l 969 783 m 506 1094 q 565 1085 539 1094 q 624 1057 592 1075 q 664 1037 650 1043 q 694 1031 678 1031 q 768 1096 746 1031 l 919 1096 q 808 910 874 967 q 653 853 742 853 q 593 863 619 853 q 535 890 567 872 q 515 901 531 893 q 488 912 500 908 q 464 915 475 915 q 389 850 413 915 l 239 850 q 351 1037 285 979 q 506 1094 417 1094 z "},"Ū":{"ha":999,"x_min":44,"x_max":1022,"o":"m 458 983 l 361 429 q 357 383 357 407 q 382 309 357 336 q 461 282 407 282 q 567 322 528 282 q 618 429 606 361 l 715 983 l 1022 983 l 925 429 q 824 190 900 289 q 638 40 747 90 q 403 -10 528 -10 q 141 76 238 -10 q 44 324 44 163 q 54 429 44 376 l 151 983 l 458 983 m 936 1268 l 900 1064 l 301 1064 l 338 1268 l 936 1268 z "},"ū":{"ha":968,"x_min":49,"x_max":972,"o":"m 972 783 l 835 0 l 526 0 l 547 119 q 434 29 500 64 q 285 -6 368 -6 q 110 60 171 -6 q 49 243 49 126 q 57 329 49 283 l 138 783 l 444 783 l 371 368 q 368 339 368 349 q 392 272 368 296 q 460 247 417 247 q 546 280 511 247 q 590 368 581 313 l 590 361 l 664 783 l 972 783 m 900 1068 l 864 864 l 265 864 l 301 1068 l 900 1068 z "},"Ŭ":{"ha":999,"x_min":39,"x_max":1017,"o":"m 453 983 l 356 429 q 351 383 351 407 q 376 309 351 336 q 456 282 401 282 q 561 322 522 282 q 613 429 600 361 l 710 983 l 1017 983 l 919 429 q 818 190 894 289 q 632 40 742 90 q 397 -10 522 -10 q 135 76 232 -10 q 39 324 39 163 q 49 429 39 376 l 146 983 l 453 983 m 585 1033 q 426 1088 486 1033 q 365 1246 365 1142 q 372 1315 365 1274 l 376 1339 l 519 1339 q 518 1319 518 1332 q 542 1269 518 1286 q 622 1253 565 1253 q 718 1274 688 1253 q 756 1339 749 1296 l 899 1339 l 894 1315 q 785 1106 871 1178 q 585 1033 700 1033 z "},"ŭ":{"ha":968,"x_min":42,"x_max":965,"o":"m 965 783 l 828 0 l 519 0 l 540 119 q 427 29 493 64 q 278 -6 361 -6 q 103 60 164 -6 q 42 243 42 126 q 50 329 42 283 l 131 783 l 438 783 l 364 368 q 361 339 361 349 q 385 272 361 296 q 453 247 410 247 q 539 280 504 247 q 583 368 574 313 l 583 361 l 657 783 l 965 783 m 549 833 q 390 888 450 833 q 329 1046 329 942 q 336 1115 329 1074 l 340 1139 l 483 1139 q 482 1119 482 1132 q 506 1069 482 1086 q 586 1053 529 1053 q 682 1074 651 1053 q 719 1139 713 1096 l 863 1139 l 858 1115 q 749 906 835 978 q 549 833 664 833 z "},"Ů":{"ha":999,"x_min":33,"x_max":1011,"o":"m 447 983 l 350 429 q 346 383 346 407 q 371 309 346 336 q 450 282 396 282 q 556 322 517 282 q 607 429 594 361 l 704 983 l 1011 983 l 914 429 q 813 190 889 289 q 626 40 736 90 q 392 -10 517 -10 q 130 76 226 -10 q 33 324 33 163 q 43 429 33 376 l 140 983 l 447 983 m 639 1390 q 751 1351 708 1390 q 793 1244 793 1313 q 790 1207 793 1219 q 715 1074 776 1124 q 575 1024 653 1024 q 463 1063 506 1024 q 421 1169 421 1101 q 424 1207 421 1194 q 499 1340 438 1290 q 639 1390 561 1390 m 618 1272 q 564 1251 586 1272 q 542 1194 542 1229 q 557 1156 542 1171 q 596 1142 572 1142 q 649 1165 626 1142 q 672 1221 672 1188 q 657 1258 672 1244 q 618 1272 642 1272 z "},"ů":{"ha":968,"x_min":38,"x_max":961,"o":"m 961 783 l 824 0 l 515 0 l 536 119 q 423 29 489 64 q 274 -6 357 -6 q 99 60 160 -6 q 38 243 38 126 q 46 329 38 283 l 126 783 l 433 783 l 360 368 q 357 339 357 349 q 381 272 357 296 q 449 247 406 247 q 535 280 500 247 q 579 368 569 313 l 579 361 l 653 783 l 961 783 m 603 1190 q 715 1151 672 1190 q 757 1044 757 1113 q 754 1007 757 1019 q 678 874 740 924 q 539 824 617 824 q 427 863 469 824 q 385 969 385 901 q 388 1007 385 994 q 463 1140 401 1090 q 603 1190 525 1190 m 582 1072 q 528 1051 550 1072 q 506 994 506 1029 q 521 956 506 971 q 560 942 536 942 q 613 965 590 942 q 636 1021 636 988 q 621 1058 636 1044 q 582 1072 606 1072 z "},"Ű":{"ha":999,"x_min":35,"x_max":1013,"o":"m 449 983 l 351 429 q 347 383 347 407 q 372 309 347 336 q 451 282 397 282 q 557 322 518 282 q 608 429 596 361 l 706 983 l 1013 983 l 915 429 q 814 190 890 289 q 628 40 738 90 q 393 -10 518 -10 q 131 76 228 -10 q 35 324 35 163 q 44 429 35 376 l 142 983 l 449 983 m 421 1035 l 236 1035 l 408 1374 l 642 1374 l 421 1035 m 726 1035 l 542 1035 l 749 1374 l 982 1374 l 726 1035 z "},"ű":{"ha":968,"x_min":39,"x_max":963,"o":"m 963 783 l 825 0 l 517 0 l 538 119 q 424 29 490 64 q 275 -6 358 -6 q 100 60 161 -6 q 39 243 39 126 q 47 329 39 283 l 128 783 l 435 783 l 361 368 q 358 339 358 349 q 383 272 358 296 q 450 247 407 247 q 536 280 501 247 q 581 368 571 313 l 581 361 l 654 783 l 963 783 m 385 835 l 200 835 l 372 1174 l 606 1174 l 385 835 m 690 835 l 506 835 l 713 1174 l 946 1174 l 690 835 z "},"Ų":{"ha":999,"x_min":44,"x_max":1022,"o":"m 458 983 l 360 429 q 356 386 356 407 q 461 282 356 282 q 567 322 528 282 q 617 429 606 363 l 715 983 l 1022 983 l 924 429 q 847 231 904 318 q 713 90 790 144 q 554 14 635 36 q 514 -2 525 6 q 501 -19 503 -10 l 501 -24 q 536 -40 501 -40 l 721 -40 l 693 -196 l 449 -196 q 340 -160 386 -196 q 293 -54 293 -124 q 296 -18 293 -31 l 299 1 q 114 115 183 29 q 44 336 44 201 q 53 429 44 379 l 151 983 l 458 983 z "},"ų":{"ha":968,"x_min":31,"x_max":954,"o":"m 954 783 l 817 0 l 508 0 l 529 119 q 416 29 482 64 q 267 -6 350 -6 q 92 60 153 -6 q 31 243 31 126 q 39 329 31 283 l 119 783 l 426 783 l 353 368 q 350 339 350 349 q 374 272 350 296 q 442 247 399 247 q 528 280 493 247 q 572 368 563 313 l 572 361 l 646 783 l 954 783 m 822 35 l 797 -104 l 658 -104 q 618 -125 622 -104 l 618 -129 q 650 -147 618 -147 l 851 -147 l 824 -304 l 590 -304 q 463 -272 515 -304 q 410 -169 410 -240 q 413 -135 410 -147 q 460 -35 424 -74 q 540 19 496 3 q 624 35 585 35 l 822 35 z "},"Ŵ":{"ha":1528,"x_min":121,"x_max":1565,"o":"m 1565 983 l 1168 0 l 785 0 l 768 558 l 557 0 l 174 0 l 121 983 l 453 983 l 433 364 l 675 983 l 1011 983 l 1035 364 l 1233 983 l 1565 983 m 871 1144 l 619 1022 l 654 1222 l 906 1340 l 1114 1222 l 1079 1022 l 871 1144 z "},"ŵ":{"ha":1254,"x_min":50,"x_max":1310,"o":"m 1310 783 l 985 0 l 638 0 l 621 442 l 443 0 l 96 0 l 50 783 l 356 783 l 338 307 l 522 783 l 851 783 l 874 301 l 1025 783 l 1310 783 m 715 944 l 464 822 l 499 1022 l 750 1140 l 958 1022 l 924 822 l 715 944 z "},"Ŷ":{"ha":1014,"x_min":79,"x_max":1093,"o":"m 1093 983 l 619 299 l 568 0 l 260 0 l 311 299 l 79 983 l 432 983 l 528 635 l 746 983 l 1093 983 m 613 1144 l 361 1022 l 396 1222 l 647 1340 l 856 1222 l 821 1022 l 613 1144 z "},"ŷ":{"ha":942,"x_min":-40,"x_max":1004,"o":"m 379 783 l 456 386 l 664 783 l 1004 783 l 297 -375 l -40 -375 l 231 39 l 36 783 l 379 783 m 550 944 l 299 822 l 333 1022 l 585 1140 l 793 1022 l 758 822 l 550 944 z "},"Ÿ":{"ha":1014,"x_min":82,"x_max":1096,"o":"m 1096 983 l 622 299 l 571 0 l 263 0 l 314 299 l 82 983 l 435 983 l 531 635 l 749 983 l 1096 983 m 344 1157 q 387 1258 344 1217 q 486 1300 429 1300 q 560 1273 532 1300 q 589 1203 589 1246 q 546 1103 589 1144 q 444 1061 503 1061 q 373 1088 401 1061 q 344 1157 344 1115 m 657 1157 q 699 1258 657 1217 q 799 1300 742 1300 q 873 1273 844 1300 q 901 1203 901 1246 q 858 1103 901 1144 q 757 1061 815 1061 q 685 1088 714 1061 q 657 1157 657 1115 z "},"Ź":{"ha":875,"x_min":-29,"x_max":879,"o":"m 356 246 l 750 246 l 707 0 l -29 0 l 11 232 l 489 739 l 100 739 l 143 983 l 879 983 l 839 751 l 356 246 m 717 1167 l 333 1036 l 369 1242 l 757 1394 l 717 1167 z "},"ź":{"ha":719,"x_min":-36,"x_max":753,"o":"m 347 256 l 674 256 l 628 0 l -36 0 l 7 242 l 356 528 l 61 528 l 107 783 l 753 783 l 710 542 l 347 256 m 593 967 l 210 836 l 246 1042 l 633 1194 l 593 967 z "},"Ż":{"ha":874,"x_min":-21,"x_max":888,"o":"m 364 246 l 758 246 l 715 0 l -21 0 l 19 232 l 497 739 l 108 739 l 151 983 l 888 983 l 847 751 l 364 246 m 429 1157 q 472 1258 429 1217 q 571 1300 514 1300 q 645 1273 617 1300 q 674 1203 674 1246 q 631 1103 674 1144 q 529 1061 588 1061 q 458 1088 486 1061 q 429 1157 429 1115 z "},"ż":{"ha":719,"x_min":-42,"x_max":747,"o":"m 342 256 l 668 256 l 622 0 l -42 0 l 1 242 l 350 528 l 56 528 l 101 783 l 747 783 l 704 542 l 342 256 m 307 957 q 349 1058 307 1017 q 449 1100 392 1100 q 523 1073 494 1100 q 551 1003 551 1046 q 508 903 551 944 q 407 861 465 861 q 335 888 364 861 q 307 957 307 915 z "},"Ž":{"ha":875,"x_min":-24,"x_max":885,"o":"m 361 246 l 756 246 l 713 0 l -24 0 l 17 232 l 494 739 l 106 739 l 149 983 l 885 983 l 844 751 l 361 246 m 772 1140 l 522 1022 l 313 1140 l 347 1340 l 557 1218 l 807 1340 l 772 1140 z "},"ž":{"ha":721,"x_min":-31,"x_max":758,"o":"m 353 256 l 679 256 l 633 0 l -31 0 l 13 242 l 361 528 l 67 528 l 113 783 l 758 783 l 715 542 l 353 256 m 678 940 l 428 822 l 218 940 l 253 1140 l 463 1018 l 713 1140 l 678 940 z "},"ƒ":{"ha":472,"x_min":-232,"x_max":660,"o":"m 588 839 q 527 828 549 839 q 497 790 506 818 l 496 783 l 582 783 l 510 526 l 422 526 l 236 -136 q 81 -365 190 -300 q -186 -431 -29 -431 l -232 -431 l -161 -167 l -108 -167 q -86 -158 -96 -167 q -72 -136 -76 -150 l 115 526 l 58 526 l 131 783 l 189 783 l 190 790 q 350 1026 236 951 q 660 1101 464 1101 l 588 839 z "},"Ǽ":{"ha":1369,"x_min":-99,"x_max":1396,"o":"m 1019 739 l 999 621 l 1290 621 l 1250 389 l 958 389 l 933 246 l 1267 246 l 1224 0 l 582 0 l 606 135 l 322 135 l 236 0 l -99 0 l 544 983 l 1396 983 l 1353 739 l 1019 739 m 646 367 l 713 746 l 471 367 l 646 367 m 1218 1167 l 835 1036 l 871 1242 l 1258 1394 l 1218 1167 z "},"ǽ":{"ha":1464,"x_min":25,"x_max":1454,"o":"m 1183 793 q 1381 715 1308 793 q 1454 499 1454 638 q 1444 399 1454 463 q 1426 338 1436 361 l 883 338 q 905 256 881 279 q 975 232 929 232 q 1081 282 1049 232 l 1407 282 q 1260 72 1358 154 q 1042 -10 1161 -10 q 906 21 958 -10 q 832 107 853 51 l 813 0 l 506 0 l 525 107 q 425 22 486 53 q 288 -10 364 -10 q 97 69 169 -10 q 25 289 25 149 q 35 392 25 342 q 115 606 57 515 q 256 745 174 697 q 429 793 338 793 q 556 762 506 793 q 625 676 606 731 l 644 783 l 951 783 l 932 676 q 1035 763 969 732 q 1183 793 1100 793 m 1143 464 q 1144 481 1144 469 q 1115 533 1144 515 q 1040 551 1086 551 q 907 464 940 551 l 1143 464 m 575 392 q 578 425 578 404 q 553 498 578 472 q 485 524 528 524 q 397 489 435 524 q 347 392 358 454 q 344 358 344 379 q 369 285 344 311 q 438 260 394 260 q 526 294 488 260 q 575 392 564 329 m 994 967 l 611 836 l 647 1042 l 1035 1194 l 994 967 z "},"Ș":{"ha":869,"x_min":17,"x_max":850,"o":"m 797 249 q 733 117 785 176 q 596 24 681 58 q 403 -10 511 -10 q 119 75 221 -10 q 17 315 18 160 l 344 315 q 406 231 336 231 q 450 246 432 231 q 468 290 468 261 q 435 346 468 324 q 332 399 403 368 q 202 462 254 431 q 113 548 150 493 q 75 685 75 603 q 82 756 75 714 q 212 936 103 872 q 469 1000 321 1000 q 753 917 660 1000 q 850 682 846 833 l 518 682 q 468 760 525 760 q 430 745 446 760 q 414 703 414 731 q 445 652 414 672 q 544 604 476 632 q 676 542 624 572 q 766 458 728 513 q 804 319 804 403 q 797 249 804 290 m 525 -49 q 536 -150 536 -104 q 528 -236 536 -194 q 438 -412 508 -343 q 256 -481 368 -481 l 275 -372 q 369 -268 351 -372 l 372 -253 l 272 -253 l 308 -49 l 525 -49 z "},"ș":{"ha":817,"x_min":21,"x_max":801,"o":"m 428 793 q 695 716 603 793 q 801 513 788 639 l 500 513 q 401 579 493 579 q 358 572 374 579 q 342 547 342 565 q 372 516 342 528 q 465 489 401 504 q 615 444 556 467 q 720 374 675 421 q 765 250 765 326 q 760 199 765 222 q 649 48 742 106 q 399 -10 557 -10 q 132 63 233 -10 q 21 271 31 136 l 322 271 q 349 218 319 233 q 424 203 378 203 q 483 233 476 203 q 459 268 488 256 q 361 296 431 281 q 215 338 274 315 q 111 406 156 360 q 67 529 67 453 q 72 582 67 546 q 179 733 88 674 q 428 793 271 793 m 469 -49 q 479 -144 479 -96 q 471 -236 479 -193 q 382 -412 451 -343 q 200 -481 313 -481 l 219 -372 q 314 -268 296 -372 l 317 -253 l 217 -253 l 253 -49 l 469 -49 z "},"Ț":{"ha":856,"x_min":54,"x_max":925,"o":"m 925 983 l 882 739 l 621 739 l 492 0 l 183 0 l 313 739 l 54 739 l 97 983 l 925 983 m 440 -49 q 450 -144 450 -96 q 442 -236 450 -193 q 353 -412 422 -343 q 171 -481 283 -481 l 190 -372 q 285 -268 267 -372 l 288 -253 l 188 -253 l 224 -49 l 440 -49 z "},"ț":{"ha":606,"x_min":40,"x_max":619,"o":"m 408 315 q 407 301 407 310 q 457 263 407 263 l 531 263 l 483 0 l 367 0 q 93 232 93 0 q 101 321 93 274 l 138 526 l 40 526 l 86 783 l 183 783 l 217 972 l 525 972 l 492 783 l 619 783 l 574 526 l 446 526 l 408 315 m 425 -49 q 435 -151 435 -97 q 428 -236 435 -190 q 338 -412 408 -343 q 156 -481 268 -481 l 175 -372 q 269 -268 251 -372 l 272 -253 l 172 -253 l 208 -49 l 425 -49 z "},"ʼ":{"ha":390,"x_min":56,"x_max":333,"o":"m 324 1217 q 333 1119 333 1169 q 326 1031 333 1076 q 238 853 307 922 q 56 785 168 785 l 75 894 q 135 920 111 894 q 169 997 160 946 l 172 1014 l 72 1014 l 107 1217 l 324 1217 z "},"ˆ":{"ha":488,"x_min":69,"x_max":564,"o":"m 321 944 l 69 822 l 104 1022 l 356 1140 l 564 1022 l 529 822 l 321 944 z "},"ˇ":{"ha":488,"x_min":90,"x_max":585,"o":"m 550 940 l 300 822 l 90 940 l 125 1140 l 335 1018 l 585 1140 l 550 940 z "},"ˉ":{"ha":626,"x_min":79,"x_max":714,"o":"m 714 1068 l 678 864 l 79 864 l 115 1068 l 714 1068 z "},"˘":{"ha":549,"x_min":113,"x_max":646,"o":"m 332 833 q 173 888 233 833 q 113 1046 113 942 q 119 1115 113 1074 l 124 1139 l 267 1139 q 265 1119 265 1132 q 289 1069 265 1086 q 369 1053 313 1053 q 465 1074 435 1053 q 503 1139 496 1096 l 646 1139 l 642 1115 q 533 906 618 978 q 332 833 447 833 z "},"˙":{"ha":267,"x_min":94,"x_max":339,"o":"m 94 957 q 137 1058 94 1017 q 236 1100 179 1100 q 310 1073 282 1100 q 339 1003 339 1046 q 296 903 339 944 q 194 861 253 861 q 123 888 151 861 q 94 957 94 915 z "},"˚":{"ha":393,"x_min":94,"x_max":467,"o":"m 313 1190 q 424 1151 382 1190 q 467 1044 467 1113 q 464 1007 467 1019 q 388 874 450 924 q 249 824 326 824 q 137 863 179 824 q 94 969 94 901 q 97 1007 94 994 q 173 1140 111 1090 q 313 1190 235 1190 m 292 1072 q 238 1051 260 1072 q 215 994 215 1029 q 231 956 215 971 q 269 942 246 942 q 323 965 300 942 q 346 1021 346 988 q 331 1058 346 1044 q 292 1072 315 1072 z "},"˛":{"ha":442,"x_min":-3,"x_max":439,"o":"m 410 35 l 385 -104 l 246 -104 q 206 -125 210 -104 l 206 -129 q 238 -147 206 -147 l 439 -147 l 411 -304 l 178 -304 q 50 -272 103 -304 q -3 -169 -3 -240 q 0 -135 -3 -147 q 47 -35 11 -74 q 128 19 83 3 q 211 35 172 35 l 410 35 z "},"˜":{"ha":636,"x_min":61,"x_max":742,"o":"m 328 1094 q 388 1085 361 1094 q 446 1057 414 1075 q 486 1037 472 1043 q 517 1031 500 1031 q 590 1096 568 1031 l 742 1096 q 630 910 696 967 q 475 853 564 853 q 415 863 442 853 q 357 890 389 872 q 338 901 353 893 q 310 912 322 908 q 286 915 297 915 q 211 850 235 915 l 61 850 q 173 1037 107 979 q 328 1094 239 1094 z "},"˝":{"ha":713,"x_min":67,"x_max":813,"o":"m 251 835 l 67 835 l 239 1174 l 472 1174 l 251 835 m 557 835 l 372 835 l 579 1174 l 813 1174 l 557 835 z "},"π":{"ha":983,"x_min":35,"x_max":1046,"o":"m 1046 783 l 1004 553 l 914 553 l 817 0 l 508 0 l 606 553 l 440 553 l 343 0 l 35 0 l 132 553 l 42 553 l 83 783 l 1046 783 z "},"Ẁ":{"ha":1528,"x_min":117,"x_max":1561,"o":"m 1561 983 l 1164 0 l 781 0 l 764 558 l 553 0 l 169 0 l 117 983 l 449 983 l 429 364 l 671 983 l 1007 983 l 1031 364 l 1229 983 l 1561 983 m 1056 1242 l 1019 1036 l 683 1167 l 724 1394 l 1056 1242 z "},"ẁ":{"ha":1254,"x_min":46,"x_max":1306,"o":"m 1306 783 l 981 0 l 633 0 l 617 442 l 439 0 l 92 0 l 46 783 l 351 783 l 333 307 l 518 783 l 847 783 l 869 301 l 1021 783 l 1306 783 m 901 1042 l 865 836 l 529 967 l 569 1194 l 901 1042 z "},"Ẃ":{"ha":1528,"x_min":117,"x_max":1561,"o":"m 1561 983 l 1164 0 l 781 0 l 764 558 l 553 0 l 169 0 l 117 983 l 449 983 l 429 364 l 671 983 l 1007 983 l 1031 364 l 1229 983 l 1561 983 m 1043 1167 l 660 1036 l 696 1242 l 1083 1394 l 1043 1167 z "},"ẃ":{"ha":1254,"x_min":46,"x_max":1306,"o":"m 1306 783 l 981 0 l 633 0 l 617 442 l 439 0 l 92 0 l 46 783 l 351 783 l 333 307 l 518 783 l 847 783 l 869 301 l 1021 783 l 1306 783 m 889 967 l 506 836 l 542 1042 l 929 1194 l 889 967 z "},"Ẅ":{"ha":1528,"x_min":125,"x_max":1569,"o":"m 1569 983 l 1172 0 l 789 0 l 772 558 l 561 0 l 178 0 l 125 983 l 457 983 l 438 364 l 679 983 l 1015 983 l 1039 364 l 1238 983 l 1569 983 m 601 1157 q 644 1258 601 1217 q 743 1300 686 1300 q 817 1273 789 1300 q 846 1203 846 1246 q 803 1103 846 1144 q 701 1061 760 1061 q 630 1088 658 1061 q 601 1157 601 1115 m 914 1157 q 956 1258 914 1217 q 1056 1300 999 1300 q 1130 1273 1101 1300 q 1158 1203 1158 1246 q 1115 1103 1158 1144 q 1014 1061 1072 1061 q 942 1088 971 1061 q 914 1157 914 1115 z "},"ẅ":{"ha":1254,"x_min":54,"x_max":1314,"o":"m 1314 783 l 989 0 l 642 0 l 625 442 l 447 0 l 100 0 l 54 783 l 360 783 l 342 307 l 526 783 l 856 783 l 878 301 l 1029 783 l 1314 783 m 447 957 q 490 1058 447 1017 q 589 1100 532 1100 q 663 1073 635 1100 q 692 1003 692 1046 q 649 903 692 944 q 547 861 606 861 q 476 888 504 861 q 447 957 447 915 m 760 957 q 802 1058 760 1017 q 901 1100 844 1100 q 976 1073 947 1100 q 1004 1003 1004 1046 q 961 903 1004 944 q 860 861 918 861 q 788 888 817 861 q 760 957 760 915 z "},"Ẽ":{"ha":772,"x_min":-19,"x_max":853,"o":"m 418 739 l 397 617 l 703 617 l 661 385 l 356 385 l 332 246 l 679 246 l 636 0 l -19 0 l 153 983 l 808 983 l 765 739 l 418 739 m 439 1294 q 499 1285 472 1294 q 557 1257 525 1275 q 597 1237 583 1243 q 628 1231 611 1231 q 701 1296 679 1231 l 853 1296 q 741 1110 807 1167 q 586 1053 675 1053 q 526 1063 553 1053 q 468 1090 500 1072 q 449 1101 464 1093 q 421 1112 433 1108 q 397 1115 408 1115 q 322 1050 346 1115 l 172 1050 q 284 1237 218 1179 q 439 1294 350 1294 z "},"ẽ":{"ha":853,"x_min":22,"x_max":853,"o":"m 499 793 q 746 710 654 793 q 838 485 838 628 q 829 399 838 444 q 811 338 821 361 l 319 338 q 318 310 318 328 q 335 252 318 268 q 385 236 353 236 q 465 282 436 236 l 792 282 q 627 72 743 153 q 357 -10 511 -10 q 113 76 203 -10 q 22 313 22 161 q 31 407 22 357 q 118 613 51 525 q 283 747 185 700 q 499 793 382 793 m 528 464 q 529 485 529 471 q 508 535 529 518 q 456 551 488 551 q 343 464 372 551 l 528 464 m 439 1094 q 499 1085 472 1094 q 557 1057 525 1075 q 597 1037 583 1043 q 628 1031 611 1031 q 701 1096 679 1031 l 853 1096 q 741 910 807 967 q 586 853 675 853 q 526 863 553 853 q 468 890 500 872 q 449 901 464 893 q 421 912 433 908 q 397 915 408 915 q 322 850 346 915 l 172 850 q 284 1037 218 979 q 439 1094 350 1094 z "},"Ỳ":{"ha":1014,"x_min":74,"x_max":1088,"o":"m 1088 983 l 614 299 l 563 0 l 254 0 l 306 299 l 74 983 l 426 983 l 522 635 l 740 983 l 1088 983 m 799 1242 l 763 1036 l 426 1167 l 467 1394 l 799 1242 z "},"ỳ":{"ha":940,"x_min":-46,"x_max":999,"o":"m 374 783 l 450 386 l 658 783 l 999 783 l 292 -375 l -46 -375 l 225 39 l 31 783 l 374 783 m 735 1042 l 699 836 l 363 967 l 403 1194 l 735 1042 z "},"Ỹ":{"ha":1014,"x_min":83,"x_max":1097,"o":"m 1097 983 l 624 299 l 572 0 l 264 0 l 315 299 l 83 983 l 436 983 l 532 635 l 750 983 l 1097 983 m 549 1294 q 608 1285 582 1294 q 667 1257 635 1275 q 707 1237 693 1243 q 738 1231 721 1231 q 811 1296 789 1231 l 963 1296 q 851 1110 917 1167 q 696 1053 785 1053 q 636 1063 663 1053 q 578 1090 610 1072 q 558 1101 574 1093 q 531 1112 543 1108 q 507 1115 518 1115 q 432 1050 456 1115 l 282 1050 q 394 1237 328 1179 q 549 1294 460 1294 z "},"ỹ":{"ha":942,"x_min":-64,"x_max":981,"o":"m 356 783 l 432 386 l 640 783 l 981 783 l 274 -375 l -64 -375 l 207 39 l 13 783 l 356 783 m 458 1094 q 518 1085 492 1094 q 576 1057 544 1075 q 617 1037 603 1043 q 647 1031 631 1031 q 721 1096 699 1031 l 872 1096 q 760 910 826 967 q 606 853 694 853 q 546 863 572 853 q 488 890 519 872 q 468 901 483 893 q 440 912 453 908 q 417 915 428 915 q 342 850 365 915 l 192 850 q 303 1037 238 979 q 458 1094 369 1094 z "},"–":{"ha":949,"x_min":54,"x_max":894,"o":"m 894 601 l 850 347 l 54 347 l 99 601 l 894 601 z "},"—":{"ha":1300,"x_min":54,"x_max":1246,"o":"m 1246 601 l 1201 347 l 54 347 l 99 601 l 1246 601 z "},"‘":{"ha":390,"x_min":57,"x_max":336,"o":"m 68 785 q 57 889 57 843 q 64 972 57 928 q 153 1148 83 1079 q 336 1217 224 1217 l 318 1108 q 222 1004 242 1108 l 221 989 l 321 989 l 285 785 l 68 785 z "},"’":{"ha":390,"x_min":56,"x_max":333,"o":"m 324 1217 q 333 1119 333 1169 q 326 1031 333 1076 q 238 853 307 922 q 56 785 168 785 l 75 894 q 135 920 111 894 q 169 997 160 946 l 172 1014 l 72 1014 l 107 1217 l 324 1217 z "},"‚":{"ha":383,"x_min":-3,"x_max":308,"o":"m 282 182 q 308 42 308 121 q 276 -118 308 -42 q 176 -243 244 -194 q 6 -292 108 -292 l 25 -183 q 85 -167 64 -183 q 115 -100 107 -150 l 118 -85 l -3 -85 l 44 182 l 282 182 z "},"“":{"ha":703,"x_min":57,"x_max":647,"o":"m 68 785 q 57 889 57 843 q 64 972 57 928 q 153 1148 83 1079 q 336 1217 224 1217 l 318 1108 q 222 1004 242 1108 l 221 989 l 321 989 l 285 785 l 68 785 m 379 785 q 369 883 369 832 q 376 972 369 926 q 465 1148 396 1079 q 647 1217 535 1217 l 629 1108 q 533 1004 553 1108 l 532 989 l 632 989 l 596 785 l 379 785 z "},"”":{"ha":703,"x_min":56,"x_max":646,"o":"m 324 1217 q 333 1119 333 1169 q 326 1031 333 1076 q 238 853 307 922 q 56 785 168 785 l 75 894 q 135 920 111 894 q 169 997 160 946 l 172 1014 l 72 1014 l 107 1217 l 324 1217 m 635 1217 q 646 1114 646 1161 q 639 1031 646 1075 q 549 853 619 922 q 367 785 479 785 l 386 894 q 481 997 463 894 l 483 1014 l 383 1014 l 418 1217 l 635 1217 z "},"„":{"ha":703,"x_min":-4,"x_max":586,"o":"m 264 203 q 274 106 274 156 q 267 17 274 63 q 178 -160 247 -92 q -4 -229 108 -229 l 15 -119 q 76 -94 51 -119 q 110 -17 100 -68 l 113 0 l 13 0 l 47 203 l 264 203 m 575 203 q 586 100 586 147 q 579 17 586 61 q 490 -160 560 -92 q 307 -229 419 -229 l 326 -119 q 421 -17 403 -119 l 424 0 l 324 0 l 358 203 l 575 203 z "},"†":{"ha":996,"x_min":104,"x_max":999,"o":"m 958 553 l 658 574 l 521 -375 l 213 -375 l 410 574 l 104 553 l 144 783 l 443 763 l 474 1103 l 782 1103 l 692 763 l 999 783 l 958 553 z "},"‡":{"ha":994,"x_min":-4,"x_max":999,"o":"m 658 574 l 583 154 l 892 176 l 851 -56 l 550 -35 l 519 -375 l 211 -375 l 301 -35 l -4 -56 l 36 176 l 335 154 l 410 574 l 103 553 l 143 783 l 443 763 l 472 1103 l 781 1103 l 692 763 l 999 783 l 958 553 l 658 574 z "},"•":{"ha":744,"x_min":135,"x_max":610,"o":"m 139 463 q 191 581 150 528 q 291 666 232 635 q 414 697 350 697 q 556 644 501 697 q 610 507 610 590 q 606 463 610 486 q 554 345 594 399 q 455 261 514 292 q 331 231 396 231 q 190 284 244 231 q 135 419 135 338 q 139 463 135 440 z "},"…":{"ha":1119,"x_min":-17,"x_max":1078,"o":"m 710 294 l 657 0 l 351 0 l 404 294 l 710 294 m 1078 294 l 1025 0 l 719 0 l 772 294 l 1078 294 m 342 294 l 289 0 l -17 0 l 36 294 l 342 294 z "},"‰":{"ha":1783,"x_min":68,"x_max":1715,"o":"m 368 1001 q 522 952 464 1001 q 579 808 579 903 q 574 750 579 778 q 472 564 551 628 q 281 500 392 500 q 126 549 183 500 q 68 690 68 597 q 74 750 68 722 q 175 937 94 872 q 368 1001 256 1001 m 1117 988 l 424 0 l 129 0 l 822 988 l 1117 988 m 275 750 q 272 724 272 731 q 310 679 272 679 q 351 697 335 679 q 374 750 368 715 q 376 774 376 767 q 335 822 376 822 q 275 750 288 822 m 967 489 q 1120 440 1064 489 q 1176 299 1176 392 q 1171 238 1176 267 q 1071 51 1150 115 q 879 -14 992 -14 q 725 35 783 -14 q 667 179 667 85 q 672 238 667 210 q 775 424 694 360 q 967 489 856 489 m 1506 489 q 1658 440 1601 489 q 1715 299 1715 392 q 1710 238 1715 267 q 1609 51 1689 115 q 1418 -14 1529 -14 q 1263 35 1321 -14 q 1204 179 1204 85 q 1210 238 1204 210 q 1313 424 1232 360 q 1506 489 1393 489 m 872 238 q 869 211 869 218 q 908 165 869 165 q 949 183 932 165 q 971 238 965 201 q 974 263 974 257 q 935 310 974 310 q 894 291 911 310 q 872 238 878 272 m 1411 238 q 1408 211 1408 218 q 1446 165 1408 165 q 1488 183 1471 165 q 1510 238 1504 201 q 1513 263 1513 254 q 1472 310 1513 310 q 1433 291 1449 310 q 1411 238 1417 272 z "},"‹":{"ha":518,"x_min":63,"x_max":492,"o":"m 126 167 l 63 410 l 213 653 l 492 653 l 339 410 l 406 167 l 126 167 z "},"›":{"ha":518,"x_min":26,"x_max":456,"o":"m 181 410 l 113 653 l 393 653 l 456 410 l 307 167 l 26 167 l 181 410 z "},"⁄":{"ha":771,"x_min":-111,"x_max":876,"o":"m 876 988 l 183 0 l -111 0 l 582 988 l 876 988 z "},"€":{"ha":1097,"x_min":-7,"x_max":1076,"o":"m 750 606 q 701 681 738 654 q 611 708 664 708 q 482 654 536 708 l 654 654 l 631 515 l 410 515 l 406 493 l 403 476 l 624 476 l 599 339 l 421 339 q 536 278 458 278 q 635 305 589 278 q 711 381 681 332 l 1036 381 q 828 99 974 204 q 492 -7 683 -7 q 205 86 311 -7 q 85 339 99 179 l -7 339 l 18 476 l 90 476 l 93 493 l 97 515 l 25 515 l 49 654 l 142 654 q 349 902 211 811 q 667 993 488 993 q 887 945 794 993 q 1028 810 979 897 q 1075 606 1076 722 l 750 606 z "},"₺":{"ha":1138,"x_min":-15,"x_max":1154,"o":"m 1154 668 q 1033 280 1111 426 q 824 65 954 133 q 494 -3 694 -3 q 79 43 329 -3 l 132 346 l -15 326 l 17 506 l 164 526 l 172 572 l 24 551 l 54 725 l 203 747 l 246 989 l 558 989 l 524 794 l 678 817 l 646 638 l 493 617 l 485 569 l 644 592 l 613 411 l 453 389 l 436 296 q 543 286 481 286 q 713 340 653 286 q 796 467 772 393 q 842 668 819 542 l 1154 668 z "},"₽":{"ha":985,"x_min":-58,"x_max":994,"o":"m 669 983 q 911 916 828 983 q 994 736 994 849 q 989 675 994 703 q 853 451 965 536 q 561 367 742 367 l 439 367 l 429 310 l 588 310 l 547 81 l 389 81 l 375 0 l 67 0 l 81 81 l -58 81 l -18 310 l 121 310 l 131 367 l -8 367 l 33 600 l 172 600 l 239 983 l 669 983 m 678 690 q 660 735 678 717 q 610 753 643 753 l 507 753 l 481 600 l 583 600 q 652 625 626 600 q 678 690 678 650 z "},"ℓ":{"ha":447,"x_min":-21,"x_max":468,"o":"m 468 1028 l 288 0 l -21 0 l 160 1028 l 468 1028 z "},"™":{"ha":1315,"x_min":53,"x_max":1317,"o":"m 538 983 l 506 807 l 386 807 l 332 497 l 118 497 l 172 807 l 53 807 l 85 983 l 538 983 m 1317 983 l 1231 497 l 1035 497 l 1071 728 l 936 497 l 793 497 l 744 749 l 700 497 l 514 497 l 600 983 l 893 983 l 924 767 l 1050 983 l 1317 983 z "},"Ω":{"ha":1099,"x_min":-42,"x_max":1069,"o":"m 1061 538 q 1006 365 1044 440 q 894 232 967 290 l 1007 232 l 967 0 l 596 0 l 638 239 q 704 369 681 313 q 739 493 728 425 q 746 560 746 532 q 706 676 746 636 q 588 715 665 715 q 435 659 494 715 q 357 493 376 603 q 349 397 349 442 q 371 239 349 328 l 329 0 l -42 0 l -1 232 l 111 232 q 42 429 42 310 q 53 538 42 478 q 163 788 78 683 q 371 946 247 892 q 638 1000 494 1000 q 862 957 764 1000 q 1015 831 960 914 q 1069 631 1069 747 q 1061 538 1069 588 z "},"℮":{"ha":1028,"x_min":25,"x_max":1006,"o":"m 438 -10 q 221 34 314 -10 q 76 163 128 78 q 25 367 25 249 q 35 472 25 419 q 138 744 61 624 q 335 933 215 864 q 603 1001 454 1001 q 823 951 732 1001 q 960 816 914 901 q 1006 626 1006 731 q 997 539 1006 583 l 982 450 l 343 450 l 299 194 q 468 163 385 163 q 817 300 656 163 l 894 185 q 673 39 786 88 q 438 -10 560 -10 m 736 814 q 574 838 679 838 q 490 830 526 838 q 407 808 454 822 l 368 593 l 697 593 l 736 814 z "},"∂":{"ha":892,"x_min":8,"x_max":871,"o":"m 468 779 q 604 732 564 779 q 548 826 592 796 q 411 857 504 857 q 338 853 376 857 l 363 1001 q 554 1028 468 1028 q 791 941 711 1028 q 871 694 871 854 q 858 557 871 631 q 669 141 811 290 q 313 -8 526 -8 q 93 65 178 -8 q 8 281 8 139 q 17 369 8 322 q 106 590 39 497 q 268 731 174 683 q 468 779 363 779 m 456 524 q 329 371 357 524 q 326 335 326 357 q 343 277 326 296 q 388 258 360 258 q 466 303 436 258 q 511 432 496 347 q 514 457 514 451 q 497 507 514 490 q 456 524 481 524 z "},"∆":{"ha":1069,"x_min":-60,"x_max":996,"o":"m 747 988 l 996 233 l 954 0 l -60 0 l -18 233 l 499 988 l 747 988 m 300 233 l 678 233 l 561 639 l 300 233 z "},"∏":{"ha":1046,"x_min":17,"x_max":1119,"o":"m 1119 988 l 1078 757 l 988 757 l 854 0 l 546 0 l 679 757 l 458 757 l 325 0 l 17 0 l 150 757 l 60 757 l 101 988 l 1119 988 z "},"∑":{"ha":814,"x_min":-37,"x_max":851,"o":"m 810 756 l 433 756 l 682 604 l 642 372 l 301 171 l 707 171 l 665 -62 l -37 -62 l 26 297 l 361 481 l 85 629 l 149 988 l 851 988 l 810 756 z "},"−":{"ha":703,"x_min":19,"x_max":711,"o":"m 711 601 l 667 347 l 19 347 l 64 601 l 711 601 z "},"∕":{"ha":554,"x_min":-192,"x_max":756,"o":"m 756 1326 l 104 -275 l -192 -275 l 461 1326 l 756 1326 z "},"∙":{"ha":425,"x_min":32,"x_max":390,"o":"m 390 565 l 338 271 l 32 271 l 85 565 l 390 565 z "},"√":{"ha":1417,"x_min":-8,"x_max":1497,"o":"m 1497 1288 l 497 -56 l 351 -56 l 194 354 l 51 279 l -8 418 l 436 656 l 576 286 l 1325 1288 l 1497 1288 z "},"∞":{"ha":1172,"x_min":40,"x_max":1133,"o":"m 893 743 q 1072 692 1010 743 q 1133 544 1133 640 q 1128 483 1133 513 q 1067 344 1114 404 q 953 253 1021 285 q 813 222 886 222 q 657 253 721 222 q 546 336 593 283 q 423 253 492 283 q 279 222 354 222 q 102 274 164 222 q 40 422 40 326 q 46 482 40 454 q 106 622 60 563 q 219 712 153 681 q 360 743 286 743 q 517 710 457 743 q 618 619 576 678 q 744 710 672 676 q 893 743 815 743 m 332 421 q 451 469 397 421 q 404 526 426 507 q 354 546 382 546 q 303 525 324 546 q 282 467 282 504 q 295 433 282 444 q 332 421 308 421 m 892 497 q 878 533 892 521 q 840 546 864 546 q 772 530 807 546 q 706 482 736 514 q 755 437 729 453 q 818 421 781 421 q 870 442 849 421 q 892 497 892 463 z "},"∫":{"ha":433,"x_min":-235,"x_max":661,"o":"m 221 1036 q 376 1265 267 1200 q 643 1331 486 1331 l 661 1331 l 589 1067 l 564 1067 q 528 1036 540 1067 l 206 -136 q 50 -365 160 -300 q -217 -431 -60 -431 l -235 -431 l -162 -167 l -139 -167 q -101 -136 -114 -167 l 221 1036 z "},"≈":{"ha":986,"x_min":-32,"x_max":1031,"o":"m 358 464 q 447 449 408 464 q 532 408 486 435 q 590 380 568 389 q 635 371 611 371 q 695 393 672 371 q 733 467 718 415 l 964 467 q 800 189 901 278 q 572 100 699 100 q 485 115 522 100 q 400 156 447 129 q 342 184 364 175 q 296 193 319 193 q 235 171 258 193 q 196 97 213 149 l -32 97 q 132 375 32 286 q 358 464 232 464 m 425 846 q 514 831 475 846 q 599 790 553 817 q 656 762 635 771 q 701 753 678 753 q 762 775 739 753 q 800 849 785 797 l 1031 849 q 867 571 968 660 q 639 482 765 482 q 551 497 589 482 q 467 538 514 511 q 408 566 431 557 q 363 575 386 575 q 302 553 325 575 q 263 479 279 531 l 35 479 q 199 757 99 668 q 425 846 299 846 z "},"≠":{"ha":869,"x_min":-54,"x_max":925,"o":"m 803 806 l 900 806 l 851 526 l 558 526 l 461 417 l 832 417 l 783 138 l 217 138 l 94 -1 l -54 -1 l 68 138 l -31 138 l 18 417 l 314 417 l 410 526 l 38 526 l 86 806 l 656 806 l 778 944 l 925 944 l 803 806 z "},"≤":{"ha":683,"x_min":-8,"x_max":731,"o":"m 438 521 l 643 271 l 265 271 l 58 521 l 353 772 l 731 772 l 438 521 m 33 154 l 622 154 l 581 -83 l -8 -83 l 33 154 z "},"≥":{"ha":683,"x_min":-47,"x_max":686,"o":"m 15 271 l 308 521 l 103 772 l 481 772 l 686 521 l 393 271 l 15 271 m -6 154 l 583 154 l 542 -83 l -47 -83 l -6 154 z "},"◊":{"ha":794,"x_min":14,"x_max":781,"o":"m 781 493 l 331 110 l 14 493 l 467 875 l 781 493 m 303 493 l 382 397 l 493 493 l 415 588 l 303 493 z "},"ﬁ":{"ha":989,"x_min":42,"x_max":1025,"o":"m 593 839 q 568 840 583 840 q 518 827 536 840 q 490 783 500 814 l 967 783 l 829 0 l 521 0 l 613 526 l 443 526 l 350 0 l 42 0 l 133 526 l 50 526 l 96 783 l 179 783 q 314 1020 210 936 q 581 1104 418 1104 q 639 1101 600 1104 l 593 839 m 871 1110 q 984 1077 943 1110 q 1025 990 1025 1044 q 967 867 1025 915 q 819 818 908 818 q 706 850 746 818 q 665 938 665 882 q 723 1061 665 1013 q 871 1110 781 1110 z "},"ﬂ":{"ha":989,"x_min":28,"x_max":1017,"o":"m 599 839 q 565 842 574 842 q 508 828 529 842 q 476 783 488 814 l 589 783 l 544 526 l 429 526 l 336 0 l 28 0 l 119 526 l 38 526 l 82 783 l 165 783 q 303 1020 194 936 q 582 1104 413 1104 q 646 1101 601 1104 l 599 839 m 1017 1028 l 836 0 l 528 0 l 708 1028 l 1017 1028 z "}}}
